<svg width="31" height="31" viewBox="0 0 31 31" fill="none" xmlns="http://www.w3.org/2000/svg">
<path d="M24.4752 21.1523L23.4051 20.2781L22.1184 16.0729C22.0578 15.8776 21.9482 15.701 21.8 15.5601C21.6518 15.4191 21.4699 15.3185 21.2718 15.2679C19.5113 14.849 17.7066 14.6449 15.8971 14.6599C14.0876 14.6449 12.2829 14.849 10.5224 15.2679C10.324 15.3184 10.1419 15.419 9.99349 15.5602C9.84513 15.7013 9.73552 15.8782 9.67516 16.0739L8.38844 20.279L7.31899 21.1523C7.09252 21.3368 6.91007 21.5695 6.78494 21.8335C6.65982 22.0974 6.59517 22.386 6.59571 22.6781V25.841C6.5964 26.1221 6.69667 26.3939 6.87872 26.6081C7.06076 26.8224 7.31282 26.9652 7.59016 27.0112V28.5886C7.59041 28.8629 7.69951 29.126 7.89351 29.32C8.08751 29.514 8.35056 29.6231 8.62493 29.6233H10.4577C10.7321 29.6231 10.9952 29.514 11.1892 29.32C11.3832 29.126 11.4923 28.8629 11.4925 28.5886V27.0311H20.3034V28.5883C20.3037 28.8627 20.4128 29.1258 20.6069 29.3198C20.8009 29.5139 21.064 29.623 21.3384 29.6233H23.1707C23.4451 29.623 23.7082 29.5139 23.9022 29.3198C24.0963 29.1258 24.2054 28.8627 24.2057 28.5883V27.0112C24.483 26.9652 24.7351 26.8224 24.9172 26.6081C25.0992 26.3939 25.1995 26.1221 25.2002 25.841V22.6781C25.2005 22.3858 25.1356 22.0972 25.0102 21.8332C24.8848 21.5693 24.702 21.3366 24.4752 21.1523ZM10.6706 28.5886C10.6706 28.6454 10.648 28.7 10.6077 28.7402C10.5675 28.7804 10.513 28.803 10.4561 28.803H8.62328C8.56641 28.803 8.51186 28.7804 8.47164 28.7402C8.43143 28.7 8.40883 28.6454 8.40883 28.5886V27.0311H10.6706V28.5886ZM23.1693 28.803H21.3377C21.2807 28.803 21.2262 28.7803 21.1859 28.7401C21.1457 28.6998 21.123 28.6452 21.123 28.5883V27.0311H23.3847V28.5883C23.3846 28.6452 23.362 28.6998 23.3217 28.7401C23.2815 28.7803 23.2269 28.803 23.17 28.803H23.1693ZM24.3784 25.841C24.3783 25.939 24.3393 26.033 24.27 26.1024C24.2006 26.1717 24.1066 26.2107 24.0086 26.2108H7.78493C7.68687 26.2107 7.59288 26.1717 7.52354 26.1024C7.45421 26.033 7.41521 25.939 7.41508 25.841V22.6781C7.41467 22.5076 7.45233 22.3392 7.52531 22.1851C7.5983 22.031 7.70477 21.8952 7.83696 21.7875L9.00368 20.8345C9.06637 20.783 9.11251 20.7142 9.13633 20.6367L10.4596 16.3127C10.4779 16.2517 10.5118 16.1965 10.558 16.1526C10.6041 16.1087 10.661 16.0776 10.7228 16.0624C12.4177 15.66 14.1552 15.4645 15.8971 15.4802C17.639 15.4646 19.3763 15.6601 21.0712 16.0624C21.1331 16.0776 21.19 16.1087 21.2362 16.1526C21.2824 16.1966 21.3163 16.2518 21.3346 16.3129L22.6579 20.6369C22.6817 20.7145 22.7279 20.7833 22.7906 20.8347L23.9573 21.7875C24.0894 21.8952 24.1959 22.031 24.2688 22.1851C24.3418 22.3392 24.3795 22.5076 24.3791 22.6781L24.3784 25.841Z" fill="#040401"/>
<path d="M10.2937 20.8106C12.1524 21.0393 14.0243 21.1437 15.8969 21.123C17.7695 21.1437 19.6414 21.0393 21.5001 20.8106C21.5591 20.8026 21.6156 20.7818 21.6657 20.7497C21.7158 20.7177 21.7584 20.6751 21.7904 20.625C21.8225 20.5748 21.8432 20.5183 21.8513 20.4594C21.8593 20.4004 21.8544 20.3404 21.8369 20.2835L20.8043 16.9085C20.783 16.8388 20.7436 16.776 20.69 16.7266C20.6365 16.6771 20.5708 16.6429 20.4996 16.6273C18.9862 16.3092 17.4433 16.1533 15.8969 16.1623C14.3505 16.1522 12.8074 16.3081 11.2943 16.6273C11.2231 16.6429 11.1574 16.6772 11.1038 16.7266C11.0503 16.776 11.0109 16.8388 10.9896 16.9085L9.95691 20.2835C9.93952 20.3403 9.93469 20.4003 9.94276 20.4592C9.95082 20.5181 9.97159 20.5745 10.0036 20.6246C10.0357 20.6746 10.0782 20.7171 10.1283 20.7491C10.1784 20.7812 10.2348 20.8019 10.2937 20.8099V20.8106ZM11.7039 17.3794C13.0849 17.1077 14.4895 16.9748 15.8969 16.9826C17.3046 16.9759 18.7095 17.1094 20.0908 17.381L20.9097 20.0578C19.2448 20.2342 17.5711 20.316 15.8969 20.3027C14.2227 20.3161 12.5491 20.2345 10.8841 20.0583L11.7039 17.3794Z" fill="#040401"/>
<path d="M17.6504 23.0596H14.1432C14.0275 23.0596 13.9133 23.0853 13.8088 23.1349C13.7042 23.1845 13.6121 23.2568 13.539 23.3464C13.4659 23.4361 13.4137 23.5409 13.3862 23.6532C13.3586 23.7656 13.3565 23.8827 13.3798 23.996L13.6039 25.0858C13.6404 25.2614 13.7362 25.4191 13.8752 25.5324C14.0141 25.6458 14.1879 25.7079 14.3672 25.7083H17.4263C17.6056 25.7079 17.7794 25.6458 17.9184 25.5324C18.0574 25.4191 18.1531 25.2614 18.1897 25.0858L18.4137 23.996C18.4371 23.8827 18.4349 23.7656 18.4074 23.6532C18.3798 23.5409 18.3276 23.4361 18.2545 23.3464C18.1814 23.2568 18.0893 23.1845 17.9848 23.1349C17.8803 23.0853 17.766 23.0596 17.6504 23.0596ZM14.1931 23.8799H15.4866V24.8878H14.4005L14.1931 23.8799ZM17.393 24.8878H16.3069V23.8799H17.6004L17.393 24.8878Z" fill="#FF3600"/>
<path d="M23.3766 23.0906C23.2246 22.974 23.0475 22.8945 22.8593 22.8583C22.6712 22.8221 22.4773 22.8302 22.2928 22.882L20.8109 23.2929C20.5977 23.3525 20.4099 23.4801 20.2759 23.6563C20.142 23.8325 20.0693 24.0477 20.0688 24.269V24.6717C20.0692 24.9403 20.176 25.1978 20.366 25.3877C20.5559 25.5776 20.8134 25.6844 21.0821 25.6847H22.8539C23.1223 25.684 23.3794 25.577 23.569 25.3871C23.7587 25.1973 23.8654 24.94 23.8657 24.6717V24.0787C23.8665 23.8873 23.8228 23.6984 23.7378 23.5269C23.6529 23.3554 23.5293 23.206 23.3766 23.0906ZM23.0461 24.6717C23.0461 24.7228 23.0257 24.7718 22.9895 24.8079C22.9534 24.8441 22.9043 24.8644 22.8532 24.8644H21.0813C21.0302 24.8644 20.9812 24.8441 20.945 24.8079C20.9089 24.7718 20.8885 24.7228 20.8885 24.6717V24.269C20.8885 24.227 20.9023 24.1861 20.9276 24.1526C20.953 24.1191 20.9886 24.0948 21.0291 24.0834L22.5113 23.6726C22.5483 23.6624 22.5865 23.6572 22.6249 23.6571C22.7366 23.6575 22.8435 23.7021 22.9223 23.7811C23.0012 23.8602 23.0454 23.9673 23.0454 24.079L23.0461 24.6717Z" fill="#040401"/>
<path d="M10.9833 23.2928L9.50088 22.882C9.31651 22.8311 9.12288 22.8235 8.93508 22.8597C8.74729 22.8959 8.57039 22.9751 8.41819 23.0909C8.26598 23.2067 8.14258 23.3561 8.05759 23.5274C7.9726 23.6988 7.92833 23.8874 7.92822 24.0787V24.6717C7.92853 24.9403 8.03539 25.1978 8.22534 25.3877C8.41529 25.5776 8.67282 25.6844 8.94143 25.6846H10.7133C10.9819 25.6844 11.2394 25.5776 11.4294 25.3877C11.6193 25.1978 11.7262 24.9403 11.7265 24.6717V24.269C11.726 24.0475 11.6531 23.8323 11.5189 23.6561C11.3848 23.4798 11.1967 23.3523 10.9833 23.2928ZM10.9055 24.6717C10.9054 24.7228 10.8851 24.7718 10.8489 24.8079C10.8127 24.844 10.7637 24.8643 10.7126 24.8643H8.94072C8.88961 24.8643 8.84058 24.844 8.80441 24.8079C8.76824 24.7718 8.74789 24.7228 8.74783 24.6717V24.0787C8.74783 23.9671 8.79209 23.86 8.8709 23.7809C8.94971 23.7018 9.05666 23.6572 9.1683 23.6568C9.20664 23.6569 9.24479 23.6621 9.28174 23.6723L10.7642 24.0834C10.8046 24.0948 10.8402 24.1191 10.8656 24.1526C10.891 24.1861 10.9047 24.227 10.9048 24.269L10.9055 24.6717Z" fill="#040401"/>
<path d="M22.2535 2.08429C20.9804 2.08868 19.758 2.58386 18.8409 3.46677C17.9237 4.34968 17.3823 5.55229 17.3295 6.82429C17.2766 8.09628 17.7163 9.33965 18.5571 10.2956C19.3979 11.2515 20.575 11.8464 21.8433 11.9564V13.8905C21.8433 13.9992 21.8865 14.1036 21.9634 14.1805C22.0404 14.2574 22.1447 14.3006 22.2535 14.3006C22.3622 14.3006 22.4666 14.2574 22.5435 14.1805C22.6204 14.1036 22.6636 13.9992 22.6636 13.8905V11.9564C23.932 11.8464 25.109 11.2515 25.9498 10.2956C26.7906 9.33965 27.2303 8.09628 27.1775 6.82429C27.1246 5.55229 26.5833 4.34968 25.6661 3.46677C24.7489 2.58386 23.5266 2.08868 22.2535 2.08429ZM22.2535 7.6289C21.9954 7.62894 21.743 7.55245 21.5284 7.40908C21.3137 7.26571 21.1464 7.06192 21.0476 6.82346C20.9488 6.58501 20.923 6.32261 20.9733 6.06945C21.0236 5.81629 21.1479 5.58374 21.3304 5.40121C21.5129 5.21868 21.7454 5.09436 21.9986 5.04399C22.2517 4.99362 22.5141 5.01945 22.7526 5.11821C22.9911 5.21698 23.1949 5.38424 23.3383 5.59886C23.4817 5.81347 23.5582 6.06578 23.5582 6.3239C23.5579 6.66985 23.4203 7.00153 23.1757 7.24618C22.9311 7.49083 22.5994 7.62846 22.2535 7.6289ZM21.4097 8.2732C21.6759 8.38908 21.9631 8.44889 22.2535 8.44889C22.5438 8.44889 22.831 8.38908 23.0972 8.2732L24.395 8.56031C24.5312 8.59127 24.653 8.66744 24.7404 8.77643C24.8279 8.88542 24.8759 9.0208 24.8766 9.16054V10.2126C24.1384 10.8228 23.2107 11.1566 22.253 11.1566C21.2953 11.1566 20.3676 10.8228 19.6294 10.2126V9.16031C19.6287 9.0202 19.6762 8.88411 19.7639 8.77483C19.8515 8.66556 19.9741 8.58973 20.111 8.56007L21.4097 8.2732ZM25.6988 9.29741V9.16077C25.7004 8.83363 25.5895 8.51587 25.3847 8.26078C25.1799 8.00568 24.8936 7.82876 24.5738 7.75968L23.936 7.61905C24.179 7.30473 24.329 6.92859 24.3689 6.53334C24.4089 6.13809 24.3373 5.73954 24.1622 5.38294C23.9871 5.02633 23.7156 4.72594 23.3784 4.51587C23.0412 4.30579 22.6519 4.19443 22.2546 4.19443C21.8574 4.19443 21.4681 4.30579 21.1309 4.51587C20.7937 4.72594 20.5222 5.02633 20.3471 5.38294C20.172 5.73954 20.1004 6.13809 20.1403 6.53334C20.1803 6.92859 20.3303 7.30473 20.5732 7.61905L19.9355 7.75968C19.6157 7.82872 19.3294 8.00563 19.1245 8.26073C18.9197 8.51584 18.8088 8.83362 18.8105 9.16077V9.29788C18.4 8.67589 18.1656 7.95432 18.1321 7.20981C18.0987 6.46529 18.2676 5.72563 18.6208 5.06937C18.9739 4.4131 19.4982 3.86474 20.138 3.4825C20.7778 3.10027 21.5091 2.89843 22.2544 2.89843C22.9997 2.89843 23.731 3.10027 24.3708 3.4825C25.0106 3.86474 25.5349 4.4131 25.8881 5.06937C26.2412 5.72563 26.4101 6.46529 26.3767 7.20981C26.3433 7.95432 26.1088 8.67589 25.6983 9.29788L25.6988 9.29741Z" fill="#040401"/>
<path d="M9.13008 13.8904C9.13008 13.9992 9.1733 14.1035 9.25021 14.1805C9.32713 14.2574 9.43146 14.3006 9.54024 14.3006C9.64902 14.3006 9.75334 14.2574 9.83026 14.1805C9.90718 14.1035 9.95039 13.9992 9.95039 13.8904V11.9564C11.2224 11.8505 12.4042 11.2571 13.2488 10.3002C14.0934 9.34329 14.5354 8.09693 14.4825 6.82167C14.4295 5.54642 13.8856 4.341 12.9646 3.45741C12.0435 2.57381 10.8166 2.08044 9.54024 2.08044C8.26389 2.08044 7.03694 2.57381 6.11588 3.45741C5.19483 4.341 4.65098 5.54642 4.59801 6.82167C4.54505 8.09693 4.98708 9.34329 5.8317 10.3002C6.67631 11.2571 7.85812 11.8505 9.13008 11.9564V13.8904ZM9.54024 7.62888C9.28212 7.62893 9.02979 7.55243 8.81516 7.40906C8.60052 7.26569 8.43322 7.0619 8.33441 6.82344C8.2356 6.58499 8.20972 6.32259 8.26005 6.06943C8.31038 5.81627 8.43465 5.58372 8.61715 5.40119C8.79964 5.21866 9.03217 5.09434 9.28533 5.04397C9.53848 4.9936 9.80088 5.01943 10.0394 5.11819C10.2778 5.21696 10.4816 5.38422 10.6251 5.59884C10.7685 5.81345 10.845 6.06576 10.845 6.32388C10.8446 6.66981 10.707 7.00146 10.4624 7.24609C10.2178 7.49073 9.88617 7.62838 9.54024 7.62888ZM8.69649 8.27341C8.96269 8.3893 9.24991 8.44911 9.54024 8.44911C9.83057 8.44911 10.1178 8.3893 10.384 8.27341L11.6817 8.56075C11.8187 8.59042 11.9412 8.66624 12.0289 8.77552C12.1166 8.88479 12.1641 9.02088 12.1634 9.16099V10.2133C11.4252 10.8235 10.4975 11.1573 9.53977 11.1573C8.58208 11.1573 7.65434 10.8235 6.91618 10.2133V9.16075C6.91688 9.02102 6.96487 8.88563 7.05233 8.77665C7.13978 8.66766 7.26155 8.59148 7.39782 8.56052L8.69649 8.27341ZM5.41524 7.03122C5.41443 6.38772 5.56415 5.75294 5.85243 5.17762C6.14071 4.6023 6.55956 4.10238 7.0755 3.71781C7.59145 3.33323 8.1902 3.07466 8.8239 2.96276C9.4576 2.85086 10.1087 2.88873 10.7251 3.07334C11.3416 3.25796 11.9063 3.58419 12.3742 4.02599C12.8421 4.46779 13.2002 5.01289 13.4198 5.61776C13.6394 6.22262 13.7146 6.87047 13.6392 7.50954C13.5638 8.14861 13.3399 8.76119 12.9856 9.29833V9.16122C12.9872 8.83407 12.8763 8.51629 12.6715 8.26118C12.4667 8.00608 12.1803 7.82917 11.8606 7.76013L11.2231 7.6195C11.4661 7.30516 11.6161 6.92898 11.6561 6.53366C11.6962 6.13834 11.6246 5.73972 11.4495 5.38304C11.2744 5.02636 11.0028 4.7259 10.6656 4.51577C10.3284 4.30564 9.93898 4.19426 9.54164 4.19426C9.14431 4.19426 8.75492 4.30564 8.41769 4.51577C8.08046 4.7259 7.80889 5.02636 7.6338 5.38304C7.45871 5.73972 7.38712 6.13834 7.42714 6.53366C7.46717 6.92898 7.61721 7.30516 7.86024 7.6195L7.2225 7.76013C6.90273 7.82921 6.61643 8.00613 6.4116 8.26122C6.20678 8.51632 6.09588 8.83408 6.0975 9.16122V9.29786C5.65164 8.62584 5.4139 7.83723 5.41407 7.03075L5.41524 7.03122Z" fill="#040401"/>
</svg>
