<svg width="20" height="20" viewBox="0 0 20 20" fill="none" xmlns="http://www.w3.org/2000/svg">
<g clip-path="url(#clip0_23_487)">
<path d="M17.4992 7.85423L11.252 1.60703C10.3631 0.713118 9.15341 0.212033 7.89276 0.215595H3.07943C2.20543 0.216664 1.49716 0.924928 1.49609 1.79893V18.8989C1.49609 19.0738 1.63788 19.2156 1.81276 19.2156H11.1348C11.9459 19.2156 12.6923 18.7725 13.0807 18.0604C13.9388 16.4857 15.2328 15.1917 16.8076 14.3335C17.5197 13.9451 17.9627 13.1988 17.9628 12.3876V8.97364C17.9639 8.55359 17.797 8.15047 17.4992 7.85423ZM17.3294 12.3876C17.3295 12.9671 17.013 13.5004 16.5042 13.7778C14.8226 14.6938 13.4409 16.0754 12.525 17.757C12.2475 18.2658 11.7143 18.5823 11.1348 18.5823H2.12943V1.79893C2.12943 1.27425 2.55475 0.848928 3.07943 0.848928H7.89276C8.98522 0.84596 10.0335 1.28019 10.8039 2.0548L17.0514 8.30199C17.2288 8.48055 17.3288 8.72189 17.3294 8.97364V12.3876Z" fill="#616161"/>
<path d="M15.9699 8.22497L10.2474 2.50249C9.59565 1.84707 8.70875 1.4797 7.7844 1.48219H3.7127C3.18802 1.48219 2.7627 1.90751 2.7627 2.43219V8.44886C2.7627 8.62374 2.90448 8.76552 3.07936 8.76552H15.746C15.8741 8.76556 15.9896 8.68845 16.0386 8.57014C16.0877 8.45179 16.0605 8.31554 15.9699 8.22497ZM10.996 8.13219H3.39603V2.43219C3.39603 2.25731 3.53782 2.11552 3.7127 2.11552H7.7844C8.54067 2.11347 9.26636 2.41402 9.79966 2.95026L10.996 4.14662V8.13219ZM11.6294 8.13219V4.77996L14.9816 8.13219H11.6294Z" fill="#616161"/>
<path d="M15.1127 9.71558H13.2127C12.688 9.71558 12.2627 10.1409 12.2627 10.6656C12.2627 11.1903 12.688 11.6156 13.2127 11.6156H15.1127C15.6374 11.6156 16.0627 11.1903 16.0627 10.6656C16.0627 10.1409 15.6374 9.71558 15.1127 9.71558ZM15.1127 10.9822H13.2127C13.0378 10.9822 12.896 10.8405 12.896 10.6656C12.896 10.4907 13.0378 10.3489 13.2127 10.3489H15.1127C15.2876 10.3489 15.4294 10.4907 15.4294 10.6656C15.4294 10.8405 15.2876 10.9822 15.1127 10.9822Z" fill="#616161"/>
</g>
<defs>
<clipPath id="clip0_23_487">
<rect width="19" height="19" fill="white" transform="translate(0.229492 0.215576)"/>
</clipPath>
</defs>
</svg>
