<svg width="32" height="33" viewBox="0 0 32 33" fill="none" xmlns="http://www.w3.org/2000/svg">
<g clip-path="url(#clip0_37_650)">
<path d="M22.875 25.604C22.53 25.604 22.25 25.884 22.25 26.229C22.25 26.574 22.53 26.854 22.875 26.854C23.22 26.854 23.5 26.574 23.5 26.229C23.5 25.884 23.22 25.604 22.875 25.604Z" fill="#FF3600"/>
<path d="M24.4139 23.5829L21.4433 22.5929L20.3768 20.46C21.3376 19.4821 22.0046 18.1883 22.2296 16.8387L22.3626 16.0415H23.5C24.5339 16.0415 25.375 15.2004 25.375 14.1665V10.229C25.375 5.05963 21.1694 0.854004 16 0.854004C10.8174 0.854004 6.625 5.04757 6.625 10.229V14.1665C6.625 14.9813 7.14756 15.676 7.875 15.934V16.6665C7.875 17.7004 8.71613 18.5415 9.75 18.5415H10.2989C10.5698 19.1301 10.9205 19.6752 11.3472 20.1649C11.4358 20.2666 11.5281 20.3653 11.6226 20.4612L10.5568 22.5929L7.58606 23.583C4.132 24.7348 1.625 28.3709 1.625 32.229C1.625 32.5742 1.90481 32.854 2.25 32.854H29.75C30.0951 32.854 30.375 32.5742 30.375 32.229C30.375 28.3709 27.8681 24.7348 24.4139 23.5829ZM24.125 14.1665C24.125 14.5111 23.8446 14.7915 23.5 14.7915H22.5461C22.705 13.5609 22.8109 12.2513 22.8534 10.9615C22.8547 10.9251 22.8557 10.8898 22.8568 10.854H24.125V14.1665ZM8.5 14.7915C8.15538 14.7915 7.875 14.5111 7.875 14.1665V10.854H9.14363C9.14569 10.9192 9.14787 10.9847 9.15031 11.0506C9.15037 11.0529 9.1505 11.0551 9.15056 11.0573C9.15056 11.0575 9.15056 11.0577 9.15056 11.0579C9.19431 12.3124 9.29881 13.5879 9.45406 14.7914H8.5V14.7915ZM9.75 17.2915C9.40538 17.2915 9.125 17.0111 9.125 16.6665V16.0415H9.63737L9.77038 16.8389C9.79575 16.9905 9.82694 17.1415 9.863 17.2915H9.75ZM9.12606 9.604H7.89875C8.21531 5.41519 11.7111 2.104 16 2.104C20.2699 2.104 23.781 5.41475 24.1012 9.604H22.874C22.829 6.15232 20.0182 3.354 16.5594 3.354H15.4407C11.982 3.354 9.171 6.15232 9.12606 9.604ZM15.4406 4.604H16.5594C19.3599 4.604 21.6266 6.89469 21.625 9.69213C21.625 9.88882 21.6234 10.0601 21.6201 10.2159C21.6201 10.2179 21.6201 10.2199 21.6201 10.222L20.8383 10.1103C18.7146 9.80707 16.7093 8.80444 15.1919 7.28707C15.0747 7.16988 14.9157 7.104 14.75 7.104C13.0715 7.104 11.4648 7.86875 10.4026 9.16075C10.6644 6.61582 12.8158 4.604 15.4406 4.604ZM11.1587 17.2915C10.8459 16.2507 10.4879 13.1882 10.4087 11.2257L11.2499 10.1041C12.0225 9.07432 13.2244 8.4345 14.503 8.36107C16.1853 9.96207 18.3617 11.0193 20.6616 11.3477L21.5817 11.4792C21.5202 12.7845 21.3945 14.0944 21.2144 15.2991C21.2144 15.2994 21.2143 15.2999 21.2143 15.3003C21.157 15.6876 21.1119 15.9369 20.9966 16.6331C20.6656 18.6184 19.1842 20.4137 17.2287 20.9026C16.4239 21.1036 15.576 21.1035 14.7716 20.9026C13.5506 20.5974 12.4309 19.7525 11.7084 18.5415H12.9825C13.2405 19.2689 13.9352 19.7915 14.75 19.7915H16C17.0359 19.7915 17.875 18.9525 17.875 17.9165C17.875 16.8826 17.0339 16.0415 16 16.0415H14.75C13.9171 16.0415 13.2326 16.5795 12.9814 17.2915H11.1587ZM14.6974 22.1675C15.1261 22.2578 15.5632 22.304 16 22.304C16.3419 22.304 16.6839 22.2754 17.0221 22.2199L15.9177 23.3878L14.6974 22.1675ZM15.0584 24.2964L13.0761 26.3928C12.5303 25.3482 12.0614 24.261 11.6768 23.148L12.4212 21.6591L15.0584 24.2964ZM19.4729 21.4474L20.3231 23.1479C19.9379 24.2628 19.4688 25.3504 18.9236 26.3938L16.8019 24.272L19.4729 21.4474ZM14.125 17.9165C14.125 17.5714 14.4049 17.2915 14.75 17.2915H16C16.3446 17.2915 16.625 17.5719 16.625 17.9165C16.625 18.2616 16.3451 18.5415 16 18.5415H14.75C14.4054 18.5415 14.125 18.2611 14.125 17.9165ZM2.9 31.604C3.14769 28.5078 5.20825 25.6936 7.98138 24.7688L10.6123 23.8921C11.0943 25.2249 11.6914 26.5203 12.3912 27.7508C12.3924 27.7529 12.3935 27.7551 12.3947 27.7571L12.3947 27.7573C12.9061 28.6566 13.4816 29.5354 14.1055 30.3697L14.8744 31.604H2.9ZM16 31.0469L15.1524 29.6861C15.1429 29.6708 15.1327 29.656 15.122 29.6416C14.6159 28.9665 14.1438 28.2604 13.7137 27.5378L15.9427 25.1806L18.2913 27.5293C17.8584 28.2572 17.3847 28.9662 16.8781 29.6415C16.8475 29.6823 16.8909 29.618 16 31.0469ZM17.1256 31.604L17.8944 30.3698C18.5211 29.5323 19.1007 28.6464 19.6172 27.7365C19.6203 27.731 19.6233 27.7254 19.6264 27.7199C19.6268 27.7192 19.6271 27.7186 19.6275 27.7179C20.3184 26.4991 20.9093 25.2149 21.3878 23.8921L24.0186 24.7688C26.7917 25.6936 28.8523 28.5078 29.1 31.604H17.1256Z" fill="black"/>
<path d="M27.2217 29.0745C26.804 28.2385 26.1922 27.4957 25.4524 26.9266C25.1788 26.716 24.7864 26.7672 24.576 27.0408C24.3655 27.3145 24.4167 27.7068 24.6902 27.9173C25.2811 28.3719 25.7697 28.9652 26.1034 29.6332C26.258 29.9425 26.6336 30.067 26.9418 29.913C27.2506 29.7587 27.3759 29.3833 27.2217 29.0745Z" fill="#FF3600"/>
</g>
<defs>
<clipPath id="clip0_37_650">
<rect width="32" height="32" fill="white" transform="translate(0 0.854004)"/>
</clipPath>
</defs>
</svg>
