<svg width="31" height="31" viewBox="0 0 31 31" fill="none" xmlns="http://www.w3.org/2000/svg">
<path d="M26.938 13.2087L18.0604 4.33115C16.7972 3.06085 15.0782 2.34879 13.2868 2.35385H6.44678C5.20478 2.35537 4.1983 3.36185 4.19678 4.60385V28.9038C4.19678 29.1523 4.39826 29.3538 4.64678 29.3538H17.8939C19.0465 29.3538 20.1071 28.7242 20.6591 27.7122C21.8786 25.4744 23.7174 23.6356 25.9552 22.4162C26.9671 21.8642 27.5967 20.8036 27.5968 19.6509V14.7995C27.5984 14.2026 27.3612 13.6297 26.938 13.2087ZM26.6968 19.6509C26.6968 20.4744 26.247 21.2322 25.5241 21.6264C23.1344 22.9281 21.171 24.8915 19.8694 27.2811C19.4751 28.0041 18.7174 28.4539 17.8939 28.4538H5.09678V4.60385C5.09678 3.85825 5.70118 3.25385 6.44678 3.25385H13.2868C14.8392 3.24963 16.3289 3.86669 17.4236 4.96744L26.3017 13.845C26.5538 14.0988 26.6958 14.4417 26.6968 14.7995V19.6509Z" fill="#040401"/>
<path d="M24.7647 13.7357L16.6328 5.60373C15.7066 4.67234 14.4462 4.15028 13.1327 4.15383H7.34658C6.60099 4.15383 5.99658 4.75823 5.99658 5.50383V14.0538C5.99658 14.3023 6.19807 14.5038 6.44658 14.5038H24.4466C24.6285 14.5039 24.7927 14.3943 24.8624 14.2262C24.9321 14.058 24.8935 13.8644 24.7647 13.7357ZM17.6966 13.6038H6.89658V5.50383C6.89658 5.25531 7.09807 5.05383 7.34658 5.05383H13.1327C14.2074 5.0509 15.2386 5.47801 15.9965 6.24002L17.6966 7.94012V13.6038ZM18.5966 13.6038V8.84012L23.3603 13.6038H18.5966Z" fill="#040401"/>
<path d="M23.5466 15.8538H20.8466C20.101 15.8538 19.4966 16.4582 19.4966 17.2038C19.4966 17.9494 20.101 18.5538 20.8466 18.5538H23.5466C24.2922 18.5538 24.8966 17.9494 24.8966 17.2038C24.8966 16.4583 24.2922 15.8538 23.5466 15.8538ZM23.5466 17.6538H20.8466C20.5981 17.6538 20.3966 17.4523 20.3966 17.2038C20.3966 16.9553 20.5981 16.7538 20.8466 16.7538H23.5466C23.7951 16.7538 23.9966 16.9553 23.9966 17.2038C23.9966 17.4523 23.7951 17.6538 23.5466 17.6538Z" fill="#FF3600"/>
</svg>
