<svg width="24" height="25" viewBox="0 0 24 25" fill="none" xmlns="http://www.w3.org/2000/svg">
<path d="M19.0532 9.58099H4.94385L6.0658 7.35045C6.58494 6.31826 7.6415 5.66693 8.79697 5.66693H15.2001C16.3553 5.66693 17.4119 6.31826 17.931 7.35045L19.0532 9.58099Z" stroke="black" stroke-miterlimit="10"/>
<path d="M21.8188 13.079V15.6183C21.8188 15.9091 21.7666 16.1979 21.6644 16.4704L21.5976 16.6488C21.5177 16.8626 21.3707 17.0374 21.186 17.1536C21.0274 17.2537 20.8403 17.31 20.6439 17.31L18.9681 17.3519C18.8458 17.3552 18.7258 17.3179 18.6267 17.2462L17.7642 16.6219L17.29 16.2787L6.70682 16.2319L6.23291 16.5747L5.36385 17.2038C5.26869 17.2727 5.15408 17.31 5.03643 17.31H3.35291C3.1565 17.31 2.96971 17.2537 2.81104 17.1536C2.62611 17.0374 2.47939 16.8626 2.39924 16.6488L2.33244 16.4704C2.23049 16.1979 2.17822 15.9091 2.17822 15.6183V13.079C2.17822 11.9784 2.74494 10.9556 3.67822 10.3722L4.94385 9.58099H19.0532L20.3186 10.3722C21.2519 10.9556 21.8188 11.9784 21.8188 13.079Z" stroke="black" stroke-miterlimit="10"/>
<path d="M6.23314 16.5747V18.2529C6.23314 18.5927 5.95752 18.8683 5.61768 18.8683H3.4265C3.08666 18.8683 2.81104 18.5927 2.81104 18.2529V17.1536C2.96971 17.2537 3.1565 17.31 3.35291 17.31H5.03643" stroke="black" stroke-miterlimit="10"/>
<path d="M18.9684 17.3519L20.6442 17.31C20.8406 17.31 21.0276 17.2537 21.1863 17.1537V18.2529C21.1863 18.5927 20.9106 18.8683 20.5708 18.8683H18.3796C18.0398 18.8683 17.7642 18.5927 17.7642 18.2529V16.6219" stroke="black" stroke-miterlimit="10"/>
<path d="M19.0533 9.51984C18.4554 10.6516 17.6712 11.6848 16.7417 12.5648" stroke="black" stroke-miterlimit="10"/>
<path d="M4.94385 9.51984C5.54174 10.6516 6.32596 11.6848 7.25549 12.5648" stroke="black" stroke-miterlimit="10"/>
<path d="M17.6904 14.8415C17.6904 13.939 18.4221 13.2072 19.3247 13.2072H20.1389C20.2918 13.2072 20.4155 13.331 20.4155 13.4838V14.205C20.4155 14.5565 20.1305 14.8415 19.7789 14.8415H17.6904Z" stroke="black" stroke-miterlimit="10"/>
<path d="M18.9648 9.47692C18.9648 8.69528 19.5984 8.06177 20.38 8.06177H21.085C21.2172 8.06177 21.3245 8.16888 21.3245 8.3013V8.92567C21.3245 9.23013 21.0777 9.47692 20.7733 9.47692H18.9648Z" stroke="black" stroke-miterlimit="10"/>
<path d="M5.03229 9.51983C5.03229 8.73819 4.39877 8.10468 3.61713 8.10468H2.91189C2.77971 8.10468 2.67236 8.21178 2.67236 8.34421V8.96858C2.67236 9.27303 2.91916 9.51983 3.22361 9.51983H5.03229Z" stroke="black" stroke-miterlimit="10"/>
<path d="M6.30613 14.8415C6.30613 13.939 5.57441 13.2072 4.67184 13.2072H3.85762C3.7048 13.2072 3.58105 13.331 3.58105 13.4838V14.205C3.58105 14.5565 3.86605 14.8415 4.21762 14.8415H6.30613Z" stroke="black" stroke-miterlimit="10"/>
<path d="M7.9292 14.3728H15.908" stroke="black" stroke-miterlimit="10"/>
</svg>
