<svg width="24" height="25" viewBox="0 0 24 25" fill="none" xmlns="http://www.w3.org/2000/svg">
<path d="M19.5029 3.15048H18.0029C18.0029 2.32348 17.3299 1.65048 16.5029 1.65048C15.6759 1.65048 15.0029 2.32348 15.0029 3.15048H9.00293C9.00293 2.32348 8.32993 1.65048 7.50293 1.65048C6.67593 1.65048 6.00293 2.32348 6.00293 3.15048H4.50293C3.12443 3.15048 2.00293 4.27198 2.00293 5.65048V20.1505C2.00293 21.529 3.12443 22.6505 4.50293 22.6505H19.5029C20.8814 22.6505 22.0029 21.529 22.0029 20.1505V5.65048C22.0029 4.27198 20.8814 3.15048 19.5029 3.15048ZM16.0029 3.15048C16.0029 2.87498 16.2269 2.65048 16.5029 2.65048C16.7789 2.65048 17.0029 2.87498 17.0029 3.15048V4.15048C17.0029 4.42598 16.7789 4.65048 16.5029 4.65048C16.2269 4.65048 16.0029 4.42598 16.0029 4.15048V3.15048ZM7.00293 3.15048C7.00293 2.87498 7.22693 2.65048 7.50293 2.65048C7.77893 2.65048 8.00293 2.87498 8.00293 3.15048V4.15048C8.00293 4.42598 7.77893 4.65048 7.50293 4.65048C7.22693 4.65048 7.00293 4.42598 7.00293 4.15048V3.15048ZM3.00293 5.65048C3.00293 4.82348 3.67593 4.15048 4.50293 4.15048H6.00293C6.00293 4.97748 6.67593 5.65048 7.50293 5.65048C8.32993 5.65048 9.00293 4.97748 9.00293 4.15048H15.0029C15.0029 4.97748 15.6759 5.65048 16.5029 5.65048C17.3299 5.65048 18.0029 4.97748 18.0029 4.15048H19.5029C20.3299 4.15048 21.0029 4.82348 21.0029 5.65048V7.65048H3.00293V5.65048ZM21.0029 20.1505C21.0029 20.9775 20.3299 21.6505 19.5029 21.6505H4.50293C3.67593 21.6505 3.00293 20.9775 3.00293 20.1505V8.65048H21.0029V20.1505Z" fill="#12182B"/>
<path d="M6.00293 14.1505H7.50293C8.05443 14.1505 8.50293 13.702 8.50293 13.1505V11.6505C8.50293 11.099 8.05443 10.6505 7.50293 10.6505H6.00293C5.45143 10.6505 5.00293 11.099 5.00293 11.6505V13.1505C5.00293 13.702 5.45143 14.1505 6.00293 14.1505ZM6.00293 11.6505H7.50293L7.50393 13.1505H6.00293V11.6505Z" fill="#12182B"/>
<path d="M11.2529 14.1505H12.7529C13.3044 14.1505 13.7529 13.702 13.7529 13.1505V11.6505C13.7529 11.099 13.3044 10.6505 12.7529 10.6505H11.2529C10.7014 10.6505 10.2529 11.099 10.2529 11.6505V13.1505C10.2529 13.702 10.7014 14.1505 11.2529 14.1505ZM11.2529 11.6505H12.7529L12.7539 13.1505H11.2529V11.6505Z" fill="#12182B"/>
<path d="M16.5029 14.1505H18.0029C18.5544 14.1505 19.0029 13.702 19.0029 13.1505V11.6505C19.0029 11.099 18.5544 10.6505 18.0029 10.6505H16.5029C15.9514 10.6505 15.5029 11.099 15.5029 11.6505V13.1505C15.5029 13.702 15.9514 14.1505 16.5029 14.1505ZM16.5029 11.6505H18.0029L18.0039 13.1505H16.5029V11.6505Z" fill="#12182B"/>
<path d="M6.00293 19.6505H7.50293C8.05443 19.6505 8.50293 19.202 8.50293 18.6505V17.1505C8.50293 16.599 8.05443 16.1505 7.50293 16.1505H6.00293C5.45143 16.1505 5.00293 16.599 5.00293 17.1505V18.6505C5.00293 19.202 5.45143 19.6505 6.00293 19.6505ZM6.00293 17.1505H7.50293L7.50393 18.6505H6.00293V17.1505Z" fill="#12182B"/>
<path d="M11.2529 19.6505H12.7529C13.3044 19.6505 13.7529 19.202 13.7529 18.6505V17.1505C13.7529 16.599 13.3044 16.1505 12.7529 16.1505H11.2529C10.7014 16.1505 10.2529 16.599 10.2529 17.1505V18.6505C10.2529 19.202 10.7014 19.6505 11.2529 19.6505ZM11.2529 17.1505H12.7529L12.7539 18.6505H11.2529V17.1505Z" fill="#12182B"/>
<path d="M16.5029 19.6505H18.0029C18.5544 19.6505 19.0029 19.202 19.0029 18.6505V17.1505C19.0029 16.599 18.5544 16.1505 18.0029 16.1505H16.5029C15.9514 16.1505 15.5029 16.599 15.5029 17.1505V18.6505C15.5029 19.202 15.9514 19.6505 16.5029 19.6505ZM16.5029 17.1505H18.0029L18.0039 18.6505H16.5029V17.1505Z" fill="#12182B"/>
</svg>
