<svg width="62" height="62" viewBox="0 0 62 62" fill="none" xmlns="http://www.w3.org/2000/svg">
<path d="M31 31C33.874 31 36.6835 30.1478 39.0731 28.551C41.4628 26.9543 43.3253 24.6849 44.4251 22.0296C45.525 19.3744 45.8127 16.4526 45.252 13.6339C44.6913 10.8151 43.3074 8.22584 41.2751 6.19361C39.2429 4.16138 36.6537 2.77741 33.8349 2.21672C31.0161 1.65603 28.0944 1.9438 25.4391 3.04363C22.7839 4.14347 20.5144 6.00597 18.9177 8.39563C17.321 10.7853 16.4688 13.5947 16.4688 16.4688C16.4731 20.3213 18.0055 24.0149 20.7297 26.7391C23.4539 29.4633 27.1474 30.9956 31 31ZM31 3.87501C33.4908 3.87501 35.9257 4.61362 37.9967 5.99744C40.0677 7.38126 41.6819 9.34813 42.6351 11.6493C43.5883 13.9505 43.8377 16.4827 43.3518 18.9257C42.8658 21.3686 41.6664 23.6126 39.9051 25.3739C38.1439 27.1351 35.8999 28.3346 33.4569 28.8205C31.014 29.3065 28.4818 29.0571 26.1806 28.1039C23.8794 27.1507 21.9125 25.5365 20.5287 23.4655C19.1449 21.3944 18.4062 18.9596 18.4062 16.4688C18.4101 13.1299 19.7382 9.92883 22.0991 7.56788C24.4601 5.20693 27.6611 3.87885 31 3.87501Z" fill="black"/>
<path d="M31 28.0938C33.2992 28.0938 35.5468 27.412 37.4585 26.1346C39.3702 24.8572 40.8602 23.0416 41.7401 20.9175C42.62 18.7933 42.8502 16.4559 42.4016 14.2008C41.9531 11.9458 40.8459 9.87442 39.2201 8.24864C37.5943 6.62285 35.523 5.51568 33.2679 5.06713C31.0129 4.61857 28.6755 4.84879 26.5513 5.72866C24.4271 6.60852 22.6115 8.09853 21.3342 10.0103C20.0568 11.922 19.375 14.1695 19.375 16.4688C19.3783 19.5509 20.6042 22.5058 22.7836 24.6852C24.963 26.8646 27.9179 28.0904 31 28.0938ZM21.7591 19.375H25.6341L27.1473 21.6448L27.497 25.4917C26.1448 24.9649 24.9276 24.1421 23.9347 23.0837C22.9419 22.0253 22.1985 20.7581 21.7591 19.375ZM29.4955 26.0274L29.0625 21.2253C29.0476 21.0643 28.9931 20.9095 28.9036 20.7748L26.9661 17.8686C26.8773 17.7354 26.7568 17.6263 26.6155 17.5511C26.4741 17.4759 26.3164 17.4368 26.1562 17.4375H21.3619C21.296 16.7934 21.296 16.1442 21.3619 15.5H26.1562C26.3597 15.5001 26.5579 15.4361 26.7229 15.3171C26.8879 15.1982 27.0113 15.0304 27.0756 14.8374L27.8235 12.5938H34.1765L34.9244 14.8374C34.9887 15.0304 35.1121 15.1982 35.2771 15.3171C35.4421 15.4361 35.6403 15.5001 35.8438 15.5H40.6381C40.704 16.1442 40.704 16.7934 40.6381 17.4375H35.8438C35.6843 17.4375 35.5273 17.4768 35.3867 17.552C35.2461 17.6272 35.1262 17.736 35.0377 17.8686L33.1002 20.7748C33.0094 20.9092 32.9535 21.064 32.9375 21.2253L32.5006 26.0274C31.505 26.1992 30.4873 26.1992 29.4917 26.0274H29.4955ZM34.4991 25.4917L34.8488 21.6448L36.362 19.375H40.237C39.7976 20.7581 39.0542 22.0253 38.0614 23.0837C37.0685 24.1421 35.8513 24.9649 34.4991 25.4917ZM31 6.78126C33.0608 6.78375 35.0673 7.44232 36.7288 8.66155C38.3902 9.88078 39.6204 11.5973 40.2409 13.5625H36.5422L35.7943 11.3189C35.7301 11.1259 35.6067 10.958 35.4417 10.8391C35.2767 10.7202 35.0784 10.6562 34.875 10.6563H27.125C26.9216 10.6562 26.7233 10.7202 26.5583 10.8391C26.3933 10.958 26.2699 11.1259 26.2057 11.3189L25.4578 13.5625H21.7591C22.3796 11.5973 23.6098 9.88078 25.2712 8.66155C26.9327 7.44232 28.9392 6.78375 31 6.78126Z" fill="black"/>
<path d="M14.2208 27.125C14.4341 27.125 14.6414 27.0547 14.8106 26.9249C14.9798 26.7951 15.1014 26.6131 15.1567 26.4072L16.2223 22.4353L14.3516 21.9335L13.9583 23.3992C12.9091 20.8015 12.4639 17.9994 12.6564 15.2045C12.8489 12.4095 13.674 9.6949 15.0695 7.26562L13.3916 6.29688C11.8006 9.06716 10.8815 12.172 10.7082 15.362C10.5349 18.5519 11.1122 21.738 12.3938 24.6644L10.5008 24.1567L10 26.0284L13.9719 27.094C14.0531 27.1152 14.1369 27.1256 14.2208 27.125Z" fill="#FF3600"/>
<path d="M48.0442 9.53491C49.0933 12.133 49.5382 14.9356 49.3452 17.7309C49.1522 20.5262 48.3264 23.2411 46.9301 25.6704L48.608 26.6392C50.199 23.8689 51.1181 20.764 51.2914 17.5741C51.4647 14.3841 50.8874 11.198 49.6058 8.27166L51.4988 8.77928L51.9996 6.90766L48.0277 5.84203C47.9049 5.80878 47.7766 5.80022 47.6504 5.81684C47.5242 5.83347 47.4025 5.87496 47.2925 5.93891C47.07 6.06731 46.9076 6.27883 46.841 6.52694L45.7754 10.4988L47.646 11.0006L48.0442 9.53491Z" fill="#FF3600"/>
<path d="M47.4688 39.7187H44.9122C43.4252 38.5049 36.1208 32.9375 27.125 32.9375C18.1292 32.9375 10.8267 38.503 9.33778 39.7187H4.84375C4.07296 39.7187 3.33375 40.0249 2.78872 40.57C2.24369 41.115 1.9375 41.8542 1.9375 42.625V48.4375C1.9378 48.6288 1.9944 48.8158 2.10025 48.9752L5.97525 54.7877C6.06374 54.9203 6.18361 55.029 6.32421 55.1042C6.46481 55.1794 6.6218 55.2188 6.78125 55.2187H10.7434C10.9711 56.5726 11.6712 57.8019 12.7193 58.6885C13.7675 59.5751 15.0959 60.0616 16.4688 60.0616C17.8416 60.0616 19.17 59.5751 20.2182 58.6885C21.2663 57.8019 21.9664 56.5726 22.1941 55.2187H40.7747C41.0024 56.5726 41.7024 57.8019 42.7506 58.6885C43.7987 59.5751 45.1272 60.0616 46.5 60.0616C47.8728 60.0616 49.2013 59.5751 50.2494 58.6885C51.2976 57.8019 51.9976 56.5726 52.2253 55.2187H59.0938C59.3507 55.2187 59.5971 55.1167 59.7788 54.935C59.9604 54.7533 60.0625 54.5069 60.0625 54.25V52.3125C60.0587 48.9736 58.7306 45.7726 56.3696 43.4116C54.0087 41.0507 50.8076 39.7226 47.4688 39.7187ZM55.6818 45.5312H51.862L51.2168 44.5625H54.7596C55.0865 44.8662 55.3945 45.1897 55.6818 45.5312ZM28.0938 44.5625H29.5469C29.6753 44.5625 29.7985 44.6135 29.8894 44.7044C29.9802 44.7952 30.0312 44.9184 30.0312 45.0469C30.0312 45.1753 29.9802 45.2985 29.8894 45.3894C29.7985 45.4802 29.6753 45.5312 29.5469 45.5312H28.0938V44.5625ZM28.0938 34.9167C33.8171 35.1995 38.8217 37.8781 41.602 39.7187H28.0938V34.9167ZM26.1562 34.9167V39.7187H12.648C15.4293 37.8781 20.4329 35.1995 26.1562 34.9167ZM3.875 44.5625H6.90816L6.26297 45.5312H3.875V44.5625ZM16.4688 58.125C15.7023 58.125 14.9532 57.8977 14.3159 57.4719C13.6787 57.0462 13.182 56.441 12.8887 55.7329C12.5954 55.0248 12.5187 54.2457 12.6682 53.494C12.8177 52.7423 13.1868 52.0519 13.7287 51.51C14.2706 50.968 14.9611 50.599 15.7128 50.4495C16.4645 50.2999 17.2436 50.3767 17.9516 50.67C18.6597 50.9633 19.2649 51.4599 19.6907 52.0972C20.1165 52.7344 20.3438 53.4836 20.3438 54.25C20.3438 55.2777 19.9355 56.2633 19.2088 56.99C18.4821 57.7167 17.4965 58.125 16.4688 58.125ZM16.4688 48.4375C15.0965 48.44 13.7692 48.9276 12.7216 49.8139C11.6739 50.7002 10.9733 51.9283 10.7434 53.2812H7.29953L3.875 48.1469V47.4687H6.78125C6.9407 47.4688 7.09769 47.4294 7.23829 47.3542C7.37889 47.279 7.49876 47.1703 7.58725 47.0377L9.52475 44.1314C9.62209 43.9855 9.67799 43.8159 9.6865 43.6407C9.69501 43.4656 9.65581 43.2914 9.57307 43.1367C9.49032 42.9821 9.36716 42.8528 9.2167 42.7627C9.06624 42.6726 8.89414 42.625 8.71875 42.625H3.875C3.875 42.3681 3.97706 42.1217 4.15874 41.94C4.34042 41.7583 4.58682 41.6562 4.84375 41.6562H26.1562V53.2812H22.1941C21.9642 51.9283 21.2636 50.7002 20.2159 49.8139C19.1683 48.9276 17.841 48.44 16.4688 48.4375ZM46.5 58.125C45.7336 58.125 44.9844 57.8977 44.3472 57.4719C43.7099 57.0462 43.2133 56.441 42.92 55.7329C42.6267 55.0248 42.5499 54.2457 42.6995 53.494C42.849 52.7423 43.218 52.0519 43.76 51.51C44.3019 50.968 44.9923 50.599 45.744 50.4495C46.4957 50.2999 47.2748 50.3767 47.9829 50.67C48.691 50.9633 49.2962 51.4599 49.7219 52.0972C50.1477 52.7344 50.375 53.4836 50.375 54.25C50.375 55.2777 49.9667 56.2633 49.24 56.99C48.5133 57.7167 47.5277 58.125 46.5 58.125ZM58.125 53.2812H52.2253C51.9976 51.9274 51.2976 50.6981 50.2494 49.8115C49.2013 48.9249 47.8728 48.4384 46.5 48.4384C45.1272 48.4384 43.7987 48.9249 42.7506 49.8115C41.7024 50.6981 41.0024 51.9274 40.7747 53.2812H28.0938V47.4687H29.5469C30.1892 47.4687 30.8052 47.2136 31.2594 46.7594C31.7136 46.3052 31.9688 45.6892 31.9688 45.0469C31.9688 44.4046 31.7136 43.7885 31.2594 43.3343C30.8052 42.8802 30.1892 42.625 29.5469 42.625H28.0938V41.6562H47.4688C48.9923 41.6575 50.4975 41.9879 51.8814 42.625H49.4062C49.2309 42.625 49.0588 42.6726 48.9083 42.7627C48.7578 42.8528 48.6347 42.9821 48.5519 43.1367C48.4692 43.2914 48.43 43.4656 48.4385 43.6407C48.447 43.8159 48.5029 43.9855 48.6002 44.1314L50.5377 47.0377C50.6262 47.1703 50.7461 47.279 50.8867 47.3542C51.0273 47.4294 51.1843 47.4688 51.3438 47.4687H56.948C57.7207 48.9665 58.1242 50.6272 58.125 52.3125V53.2812Z" fill="black"/>
</svg>
