<svg width="31" height="31" viewBox="0 0 31 31" fill="none" xmlns="http://www.w3.org/2000/svg">
<path fill-rule="evenodd" clip-rule="evenodd" d="M10.0837 10.9967C9.92444 10.9967 9.79284 10.8686 9.79284 10.7093V8.05652C9.41189 8.39244 9.03787 8.54482 9.01709 8.55521C8.86818 8.61408 8.70195 8.54136 8.63961 8.39591C8.58073 8.24699 8.65346 8.0773 8.79891 8.01842C8.8093 8.01496 9.47077 7.73791 9.8344 7.12839C9.98331 6.87904 10.3712 6.98294 10.3712 7.27384V10.7093C10.3712 10.8686 10.243 10.9967 10.0837 10.9967Z" fill="#040401"/>
<path fill-rule="evenodd" clip-rule="evenodd" d="M15.6769 10.879C15.0327 10.879 14.5063 10.3526 14.5063 9.70843C14.5063 9.54913 14.6379 9.42099 14.7973 9.42099C14.9566 9.42099 15.0847 9.54913 15.0847 9.70843C15.0847 10.034 15.3514 10.3006 15.6769 10.3006C16.0024 10.3006 16.2691 10.034 16.2691 9.70843C16.2691 9.3829 16.0024 9.11623 15.6769 9.11623C15.5176 9.11623 15.3895 8.9881 15.3895 8.82879C15.3895 8.66949 15.5176 8.54135 15.6769 8.54135C15.9124 8.54135 16.1063 8.34741 16.1063 8.11192C16.1063 7.87643 15.9124 7.68249 15.6769 7.68249C15.4414 7.68249 15.2475 7.87643 15.2475 8.11192C15.2475 8.27122 15.1193 8.39936 14.96 8.39936C14.8007 8.39936 14.6726 8.27122 14.6726 8.11192C14.6726 7.55782 15.1228 7.1076 15.6769 7.1076C16.5531 7.1076 17.0102 8.1604 16.4111 8.79762C16.6777 9.01234 16.8474 9.34134 16.8474 9.70843C16.8474 10.3526 16.321 10.879 15.6769 10.879Z" fill="#040401"/>
<path fill-rule="evenodd" clip-rule="evenodd" d="M21.3043 10.879C20.6602 10.879 20.1338 10.3526 20.1338 9.70844C20.1338 9.54913 20.2619 9.421 20.4212 9.421C20.5805 9.421 20.7121 9.54913 20.7121 9.70844C20.7121 10.034 20.9753 10.3006 21.3043 10.3006C21.6299 10.3006 21.8965 10.034 21.8965 9.70844C21.8965 9.3829 21.6299 9.11624 21.3009 9.11624L20.4801 9.11278C20.3208 9.11278 20.1892 8.98464 20.1892 8.82533V7.67557C20.1892 7.37774 20.4351 7.13531 20.7329 7.13531H22.1667C22.326 7.13531 22.4576 7.26345 22.4576 7.42276C22.4576 7.58206 22.326 7.7102 22.1667 7.7102H20.7675V8.53789H21.3043C21.9485 8.54136 22.4714 9.06429 22.4714 9.70844C22.4714 10.3526 21.9485 10.879 21.3043 10.879Z" fill="#040401"/>
<path fill-rule="evenodd" clip-rule="evenodd" d="M11.3306 24.5377H8.96177C8.70549 24.5377 8.57736 24.226 8.75744 24.0459C8.8648 23.9386 9.05527 23.7619 9.30116 23.5334C9.75483 23.1143 10.3782 22.5394 10.6899 22.1897C10.818 22.0511 10.8457 21.9161 10.7799 21.7637C10.6691 21.5178 10.3366 21.3135 10.0527 21.3135C9.61977 21.3135 9.26999 21.6633 9.26999 22.0927C9.26999 22.252 9.14185 22.3801 8.98255 22.3801C8.82324 22.3801 8.6951 22.252 8.6951 22.0927C8.6951 21.3447 9.30116 20.7351 10.0492 20.7351C10.9635 20.7351 11.8535 21.7637 11.1193 22.5775C10.7868 22.9446 10.1566 23.5299 9.69249 23.9593C9.69249 23.9593 9.69249 23.9593 9.68903 23.9593H11.3306C11.4899 23.9593 11.6215 24.0909 11.6215 24.2502C11.6215 24.4061 11.4899 24.5377 11.3306 24.5377Z" fill="#040401"/>
<path fill-rule="evenodd" clip-rule="evenodd" d="M16.2137 24.6139C16.0544 24.6139 15.9262 24.4823 15.9262 24.323V23.5541H14.5514C14.3159 23.5541 14.1808 23.2875 14.3159 23.097L15.9817 20.7802C16.1444 20.5516 16.5046 20.6693 16.5046 20.9499V22.9758H16.9825C17.1418 22.9758 17.27 23.1039 17.27 23.2632C17.27 23.4225 17.1418 23.5541 16.9825 23.5541H16.5046V24.323C16.5046 24.4823 16.373 24.6139 16.2137 24.6139ZM15.1124 22.9758H15.9262V21.8433L15.1124 22.9758Z" fill="#FF3600"/>
<path fill-rule="evenodd" clip-rule="evenodd" d="M20.5219 24.7212C20.3626 24.7212 20.231 24.5931 20.231 24.4338V21.0884C20.231 20.9291 20.3626 20.8009 20.5219 20.8009C20.6812 20.8009 20.8093 20.9291 20.8093 21.0884V24.4338C20.8093 24.5931 20.6812 24.7212 20.5219 24.7212Z" fill="#040401"/>
<path fill-rule="evenodd" clip-rule="evenodd" d="M21.9383 23.1697H20.5219C20.3626 23.1697 20.231 23.0416 20.231 22.8823V21.0884C20.231 20.9291 20.3626 20.8009 20.5219 20.8009H21.9383C22.5928 20.8009 23.1262 21.3308 23.1262 21.9853C23.1262 22.6399 22.5928 23.1697 21.9383 23.1697ZM20.8093 22.5948H21.9383C22.2742 22.5948 22.5478 22.3213 22.5478 21.9853C22.5478 21.6494 22.2742 21.3758 21.9383 21.3758H20.8093V22.5948Z" fill="#040401"/>
<path fill-rule="evenodd" clip-rule="evenodd" d="M22.8837 24.6554C22.7902 24.6554 22.6967 24.6069 22.6413 24.5204L21.6959 23.0381C21.6093 22.9031 21.6508 22.7264 21.7824 22.6399C21.9175 22.5533 22.0976 22.5948 22.1807 22.7264L23.1261 24.2121C23.2508 24.4061 23.1088 24.6554 22.8837 24.6554Z" fill="#040401"/>
<path fill-rule="evenodd" clip-rule="evenodd" d="M9.96957 20.039C9.81027 20.039 9.68213 19.9109 9.68213 19.7516V11.956C9.68213 11.7967 9.81027 11.6686 9.96957 11.6686C10.1289 11.6686 10.257 11.7967 10.257 11.956V19.7516C10.257 19.9109 10.1289 20.039 9.96957 20.039Z" fill="#040401"/>
<path fill-rule="evenodd" clip-rule="evenodd" d="M15.7425 20.039C15.5832 20.039 15.4551 19.9109 15.4551 19.7516V11.956C15.4551 11.7967 15.5832 11.6686 15.7425 11.6686C15.9018 11.6686 16.03 11.7967 16.03 11.956V19.7516C16.03 19.9109 15.9018 20.039 15.7425 20.039Z" fill="#040401"/>
<path fill-rule="evenodd" clip-rule="evenodd" d="M21.5155 20.039C21.3562 20.039 21.2246 19.9109 21.2246 19.7516V17.085C21.2246 16.9256 21.3562 16.7975 21.5155 16.7975C21.6748 16.7975 21.803 16.9256 21.803 17.085V19.7516C21.803 19.9109 21.6748 20.039 21.5155 20.039ZM21.5155 14.9101C21.3562 14.9101 21.2246 14.782 21.2246 14.6227V11.956C21.2246 11.7967 21.3562 11.6686 21.5155 11.6686C21.6748 11.6686 21.803 11.7967 21.803 11.956V14.6227C21.803 14.782 21.6748 14.9101 21.5155 14.9101Z" fill="#040401"/>
<path fill-rule="evenodd" clip-rule="evenodd" d="M21.5157 16.143H9.96957C9.81027 16.143 9.68213 16.0148 9.68213 15.8555C9.68213 15.6962 9.81027 15.5646 9.96957 15.5646H21.5157C21.675 15.5646 21.8032 15.6962 21.8032 15.8555C21.8032 16.0148 21.675 16.143 21.5157 16.143Z" fill="#040401"/>
<path fill-rule="evenodd" clip-rule="evenodd" d="M23.7564 27.4917H8.04058C5.58174 27.4917 3.5835 25.4935 3.5835 23.0381V8.6695C3.5835 6.21412 5.58174 4.21588 8.04058 4.21588H23.7564C26.2117 4.21588 28.21 6.21412 28.21 8.6695V23.0381C28.21 25.4935 26.2117 27.4917 23.7564 27.4917ZM8.04058 4.79077C5.90035 4.79077 4.16184 6.53273 4.16184 8.6695V23.0381C4.16184 25.1749 5.90035 26.9169 8.04058 26.9169H23.7564C25.8931 26.9169 27.6316 25.1749 27.6316 23.0381V8.6695C27.6316 6.53273 25.8931 4.79077 23.7564 4.79077H8.04058Z" fill="#040401"/>
<path fill-rule="evenodd" clip-rule="evenodd" d="M23.7562 26.245H8.04038C6.27071 26.245 4.8335 24.8078 4.8335 23.0381V8.6695C4.8335 6.89983 6.27071 5.46262 8.04038 5.46262H23.7562C25.5224 5.46262 26.9631 6.89983 26.9631 8.6695V23.0381C26.9631 24.8078 25.5224 26.245 23.7562 26.245ZM8.04038 6.04096C6.58932 6.04096 5.40838 7.21844 5.40838 8.6695V23.0381C5.40838 24.4892 6.58932 25.6667 8.04038 25.6667H23.7562C25.2038 25.6667 26.3847 24.4892 26.3847 23.0381V8.6695C26.3847 7.21844 25.2038 6.04096 23.7562 6.04096H8.04038Z" fill="#040401"/>
</svg>
