<svg width="34" height="34" viewBox="0 0 34 34" fill="none" xmlns="http://www.w3.org/2000/svg">
<g clip-path="url(#clip0_727_47)">
<path d="M7.36875 8.5H5.10208C4.8015 8.5 4.51324 8.6194 4.3007 8.83195C4.08815 9.04449 3.96875 9.33275 3.96875 9.63333V11.9C3.96875 12.2006 4.08815 12.4888 4.3007 12.7014C4.51324 12.9139 4.8015 13.0333 5.10208 13.0333H7.36875C7.66933 13.0333 7.9576 12.9139 8.17014 12.7014C8.38268 12.4888 8.50208 12.2006 8.50208 11.9V9.63333C8.50208 9.33275 8.38268 9.04449 8.17014 8.83195C7.9576 8.6194 7.66933 8.5 7.36875 8.5ZM5.10208 11.9V9.63333H7.36875V11.9H5.10208Z" fill="black"/>
<path d="M13.0328 8.5H10.7661C10.4656 8.5 10.1773 8.6194 9.96476 8.83195C9.75222 9.04449 9.63281 9.33275 9.63281 9.63333V11.9C9.63281 12.2006 9.75222 12.4888 9.96476 12.7014C10.1773 12.9139 10.4656 13.0333 10.7661 13.0333H13.0328C13.3334 13.0333 13.6217 12.9139 13.8342 12.7014C14.0467 12.4888 14.1661 12.2006 14.1661 11.9V9.63333C14.1661 9.33275 14.0467 9.04449 13.8342 8.83195C13.6217 8.6194 13.3334 8.5 13.0328 8.5ZM10.7661 11.9V9.63333H13.0328V11.9H10.7661Z" fill="black"/>
<path d="M16.4302 13.0333H18.6969C18.9975 13.0333 19.2857 12.9139 19.4983 12.7014C19.7108 12.4888 19.8302 12.2006 19.8302 11.9V9.63333C19.8302 9.33275 19.7108 9.04449 19.4983 8.83195C19.2857 8.6194 18.9975 8.5 18.6969 8.5H16.4302C16.1296 8.5 15.8414 8.6194 15.6288 8.83195C15.4163 9.04449 15.2969 9.33275 15.2969 9.63333V11.9C15.2969 12.2006 15.4163 12.4888 15.6288 12.7014C15.8414 12.9139 16.1296 13.0333 16.4302 13.0333ZM16.4302 9.63333H18.6969V11.9H16.4302V9.63333Z" fill="black"/>
<path d="M22.1021 13.0333H24.3688C24.6693 13.0333 24.9576 12.9139 25.1701 12.7014C25.3827 12.4888 25.5021 12.2006 25.5021 11.9V9.63333C25.5021 9.33275 25.3827 9.04449 25.1701 8.83195C24.9576 8.6194 24.6693 8.5 24.3688 8.5H22.1021C21.8015 8.5 21.5132 8.6194 21.3007 8.83195C21.0882 9.04449 20.9688 9.33275 20.9688 9.63333V11.9C20.9688 12.2006 21.0882 12.4888 21.3007 12.7014C21.5132 12.9139 21.8015 13.0333 22.1021 13.0333ZM22.1021 9.63333H24.3688V11.9H22.1021V9.63333Z" fill="black"/>
<path d="M7.36875 14.7344H5.10208C4.8015 14.7344 4.51324 14.8538 4.3007 15.0663C4.08815 15.2789 3.96875 15.5671 3.96875 15.8677V18.1344C3.96875 18.435 4.08815 18.7232 4.3007 18.9358C4.51324 19.1483 4.8015 19.2677 5.10208 19.2677H7.36875C7.66933 19.2677 7.9576 19.1483 8.17014 18.9358C8.38268 18.7232 8.50208 18.435 8.50208 18.1344V15.8677C8.50208 15.5671 8.38268 15.2789 8.17014 15.0663C7.9576 14.8538 7.66933 14.7344 7.36875 14.7344ZM5.10208 18.1344V15.8677H7.36875V18.1344H5.10208Z" fill="black"/>
<path d="M13.0328 14.7344H10.7661C10.4656 14.7344 10.1773 14.8538 9.96476 15.0663C9.75222 15.2789 9.63281 15.5671 9.63281 15.8677V18.1344C9.63281 18.435 9.75222 18.7232 9.96476 18.9358C10.1773 19.1483 10.4656 19.2677 10.7661 19.2677H13.0328C13.3334 19.2677 13.6217 19.1483 13.8342 18.9358C14.0467 18.7232 14.1661 18.435 14.1661 18.1344V15.8677C14.1661 15.5671 14.0467 15.2789 13.8342 15.0663C13.6217 14.8538 13.3334 14.7344 13.0328 14.7344ZM10.7661 18.1344V15.8677H13.0328V18.1344H10.7661Z" fill="black"/>
<path d="M16.4302 19.2677H18.6969C18.9975 19.2677 19.2857 19.1483 19.4983 18.9358C19.7108 18.7232 19.8302 18.435 19.8302 18.1344V15.8677C19.8302 15.5671 19.7108 15.2789 19.4983 15.0663C19.2857 14.8538 18.9975 14.7344 18.6969 14.7344H16.4302C16.1296 14.7344 15.8414 14.8538 15.6288 15.0663C15.4163 15.2789 15.2969 15.5671 15.2969 15.8677V18.1344C15.2969 18.435 15.4163 18.7232 15.6288 18.9358C15.8414 19.1483 16.1296 19.2677 16.4302 19.2677ZM16.4302 15.8677H18.6969V18.1344H16.4302V15.8677Z" fill="black"/>
<path d="M7.36875 20.9688H5.10208C4.8015 20.9688 4.51324 21.0882 4.3007 21.3007C4.08815 21.5132 3.96875 21.8015 3.96875 22.1021V24.3688C3.96875 24.6693 4.08815 24.9576 4.3007 25.1701C4.51324 25.3827 4.8015 25.5021 5.10208 25.5021H7.36875C7.66933 25.5021 7.9576 25.3827 8.17014 25.1701C8.38268 24.9576 8.50208 24.6693 8.50208 24.3688V22.1021C8.50208 21.8015 8.38268 21.5132 8.17014 21.3007C7.9576 21.0882 7.66933 20.9688 7.36875 20.9688ZM5.10208 24.3688V22.1021H7.36875V24.3688H5.10208Z" fill="black"/>
<path d="M13.0328 20.9688H10.7661C10.4656 20.9688 10.1773 21.0882 9.96476 21.3007C9.75222 21.5132 9.63281 21.8015 9.63281 22.1021V24.3688C9.63281 24.6693 9.75222 24.9576 9.96476 25.1701C10.1773 25.3827 10.4656 25.5021 10.7661 25.5021H13.0328C13.3334 25.5021 13.6217 25.3827 13.8342 25.1701C14.0467 24.9576 14.1661 24.6693 14.1661 24.3688V22.1021C14.1661 21.8015 14.0467 21.5132 13.8342 21.3007C13.6217 21.0882 13.3334 20.9688 13.0328 20.9688ZM10.7661 24.3688V22.1021H13.0328V24.3688H10.7661Z" fill="black"/>
<path d="M29.4667 17.9877V3.96667C29.4667 3.36551 29.2279 2.78897 28.8028 2.36389C28.3777 1.93881 27.8012 1.7 27.2 1.7H26.6333C26.6333 1.24913 26.4542 0.81673 26.1354 0.497919C25.8166 0.179107 25.3842 0 24.9333 0C24.4825 0 24.0501 0.179107 23.7313 0.497919C23.4124 0.81673 23.2333 1.24913 23.2333 1.7H19.8333C19.8333 1.24913 19.6542 0.81673 19.3354 0.497919C19.0166 0.179107 18.5842 0 18.1333 0C17.6825 0 17.2501 0.179107 16.9313 0.497919C16.6124 0.81673 16.4333 1.24913 16.4333 1.7H13.0333C13.0333 1.24913 12.8542 0.81673 12.5354 0.497919C12.2166 0.179107 11.7842 0 11.3333 0C10.8825 0 10.4501 0.179107 10.1313 0.497919C9.81244 0.81673 9.63333 1.24913 9.63333 1.7H6.23333C6.23333 1.24913 6.05423 0.81673 5.73542 0.497919C5.4166 0.179107 4.9842 0 4.53333 0C4.08247 0 3.65006 0.179107 3.33125 0.497919C3.01244 0.81673 2.83333 1.24913 2.83333 1.7H2.26667C1.66551 1.7 1.08897 1.93881 0.663891 2.36389C0.238809 2.78897 0 3.36551 0 3.96667L0 26.6333C0 27.2345 0.238809 27.811 0.663891 28.2361C1.08897 28.6612 1.66551 28.9 2.26667 28.9H17.7146C18.2571 30.1444 19.0899 31.2407 20.1432 32.0971C21.1965 32.9535 22.4396 33.545 23.7685 33.8222C25.0974 34.0994 26.4734 34.0542 27.7812 33.6903C29.089 33.3265 30.2907 32.6546 31.2854 31.7309C32.2802 30.8072 33.0392 29.6586 33.4989 28.3813C33.9585 27.1039 34.1055 25.7351 33.9274 24.3893C33.7493 23.0435 33.2513 21.76 32.4752 20.6462C31.6991 19.5325 30.6675 18.6208 29.4667 17.9877ZM24.3667 1.7C24.3667 1.54971 24.4264 1.40558 24.5326 1.29931C24.6389 1.19304 24.783 1.13333 24.9333 1.13333C25.0836 1.13333 25.2278 1.19304 25.334 1.29931C25.4403 1.40558 25.5 1.54971 25.5 1.7V2.83333C25.5 2.98362 25.4403 3.12776 25.334 3.23403C25.2278 3.3403 25.0836 3.4 24.9333 3.4C24.783 3.4 24.6389 3.3403 24.5326 3.23403C24.4264 3.12776 24.3667 2.98362 24.3667 2.83333V1.7ZM17.5667 1.7C17.5667 1.54971 17.6264 1.40558 17.7326 1.29931C17.8389 1.19304 17.983 1.13333 18.1333 1.13333C18.2836 1.13333 18.4278 1.19304 18.534 1.29931C18.6403 1.40558 18.7 1.54971 18.7 1.7V2.83333C18.7 2.98362 18.6403 3.12776 18.534 3.23403C18.4278 3.3403 18.2836 3.4 18.1333 3.4C17.983 3.4 17.8389 3.3403 17.7326 3.23403C17.6264 3.12776 17.5667 2.98362 17.5667 2.83333V1.7ZM10.7667 1.7C10.7667 1.54971 10.8264 1.40558 10.9326 1.29931C11.0389 1.19304 11.183 1.13333 11.3333 1.13333C11.4836 1.13333 11.6278 1.19304 11.734 1.29931C11.8403 1.40558 11.9 1.54971 11.9 1.7V2.83333C11.9 2.98362 11.8403 3.12776 11.734 3.23403C11.6278 3.3403 11.4836 3.4 11.3333 3.4C11.183 3.4 11.0389 3.3403 10.9326 3.23403C10.8264 3.12776 10.7667 2.98362 10.7667 2.83333V1.7ZM3.96667 1.7C3.96667 1.54971 4.02637 1.40558 4.13264 1.29931C4.23891 1.19304 4.38304 1.13333 4.53333 1.13333C4.68362 1.13333 4.82776 1.19304 4.93403 1.29931C5.0403 1.40558 5.1 1.54971 5.1 1.7V2.83333C5.1 2.98362 5.0403 3.12776 4.93403 3.23403C4.82776 3.3403 4.68362 3.4 4.53333 3.4C4.38304 3.4 4.23891 3.3403 4.13264 3.23403C4.02637 3.12776 3.96667 2.98362 3.96667 2.83333V1.7ZM2.26667 2.83333H2.83333C2.83333 3.2842 3.01244 3.7166 3.33125 4.03542C3.65006 4.35423 4.08247 4.53333 4.53333 4.53333C4.9842 4.53333 5.4166 4.35423 5.73542 4.03542C6.05423 3.7166 6.23333 3.2842 6.23333 2.83333H9.63333C9.63333 3.2842 9.81244 3.7166 10.1313 4.03542C10.4501 4.35423 10.8825 4.53333 11.3333 4.53333C11.7842 4.53333 12.2166 4.35423 12.5354 4.03542C12.8542 3.7166 13.0333 3.2842 13.0333 2.83333H16.4333C16.4333 3.2842 16.6124 3.7166 16.9313 4.03542C17.2501 4.35423 17.6825 4.53333 18.1333 4.53333C18.5842 4.53333 19.0166 4.35423 19.3354 4.03542C19.6542 3.7166 19.8333 3.2842 19.8333 2.83333H23.2333C23.2333 3.2842 23.4124 3.7166 23.7313 4.03542C24.0501 4.35423 24.4825 4.53333 24.9333 4.53333C25.3842 4.53333 25.8166 4.35423 26.1354 4.03542C26.4542 3.7166 26.6333 3.2842 26.6333 2.83333H27.2C27.5006 2.83333 27.7889 2.95274 28.0014 3.16528C28.2139 3.37782 28.3333 3.66609 28.3333 3.96667V5.66667H1.13333V3.96667C1.13333 3.66609 1.25274 3.37782 1.46528 3.16528C1.67782 2.95274 1.96609 2.83333 2.26667 2.83333ZM2.26667 27.7667C1.96609 27.7667 1.67782 27.6473 1.46528 27.4347C1.25274 27.2222 1.13333 26.9339 1.13333 26.6333V6.8H28.3333V17.4958C27.4242 17.1698 26.4658 17.0021 25.5 17V15.8667C25.5 15.5661 25.3806 15.2778 25.1681 15.0653C24.9555 14.8527 24.6672 14.7333 24.3667 14.7333H22.1C21.7994 14.7333 21.5112 14.8527 21.2986 15.0653C21.0861 15.2778 20.9667 15.5661 20.9667 15.8667V18.1333C20.9674 18.1932 20.9731 18.2529 20.9837 18.3118C19.9106 18.9885 19.0015 19.8954 18.322 20.9667H16.4333C16.1328 20.9667 15.8445 21.0861 15.6319 21.2986C15.4194 21.5112 15.3 21.7994 15.3 22.1V24.3667C15.3 24.6673 15.4194 24.9555 15.6319 25.1681C15.8445 25.3806 16.1328 25.5 16.4333 25.5H17C17.0022 26.2664 17.1086 27.0289 17.3162 27.7667H2.26667ZM24.3667 17.0844C23.5854 17.1875 22.8224 17.3996 22.1 17.7146V15.8667H24.3667V17.0844ZM17.0844 24.3667H16.4333V22.1H17.7146C17.3996 22.8224 17.1875 23.5854 17.0844 24.3667ZM25.5 32.8667C24.043 32.8667 22.6187 32.4346 21.4073 31.6252C20.1959 30.8157 19.2517 29.6652 18.6941 28.3191C18.1365 26.973 17.9906 25.4918 18.2749 24.0628C18.5591 22.6338 19.2607 21.3212 20.291 20.291C21.3212 19.2607 22.6338 18.5591 24.0628 18.2749C25.4918 17.9906 26.973 18.1365 28.3191 18.6941C29.6652 19.2517 30.8157 20.1959 31.6252 21.4073C32.4346 22.6187 32.8667 24.043 32.8667 25.5C32.8644 27.4531 32.0876 29.3255 30.7065 30.7065C29.3255 32.0876 27.4531 32.8644 25.5 32.8667Z" fill="black"/>
<path d="M27.892 22.3131L23.7554 27.4856L23.0697 26.8C22.9628 26.6967 22.8197 26.6396 22.6711 26.6409C22.5225 26.6422 22.3804 26.7018 22.2753 26.8069C22.1703 26.9119 22.1107 27.0541 22.1094 27.2026C22.1081 27.3512 22.1652 27.4944 22.2684 27.6012L23.4018 28.7346C23.4541 28.7872 23.5164 28.829 23.5849 28.8575C23.6535 28.886 23.727 28.9006 23.8013 28.9006H23.833C23.9125 28.8962 23.9902 28.8751 24.0609 28.8387C24.1317 28.8023 24.1941 28.7513 24.2438 28.6892L28.7772 23.0226C28.8711 22.9052 28.9146 22.7553 28.898 22.6059C28.8814 22.4565 28.8062 22.3198 28.6888 22.2258C28.5714 22.1319 28.4215 22.0884 28.2721 22.105C28.1227 22.1216 27.986 22.1969 27.892 22.3142V22.3131Z" fill="#FF3600"/>
</g>
<defs>
<clipPath id="clip0_727_47">
<rect width="34" height="34" fill="white"/>
</clipPath>
</defs>
</svg>
