<svg width="20" height="20" viewBox="0 0 20 20" fill="none" xmlns="http://www.w3.org/2000/svg">
<g clip-path="url(#clip0_23_445)">
<path fill-rule="evenodd" clip-rule="evenodd" d="M5.24473 5.96811C5.12182 5.96811 5.02029 5.86925 5.02029 5.74634V3.69965C4.72637 3.95883 4.43781 4.07639 4.42178 4.08441C4.30688 4.12983 4.17863 4.07372 4.13054 3.9615C4.08511 3.84661 4.14123 3.71568 4.25345 3.67026C4.26146 3.66759 4.7718 3.45384 5.05235 2.98358C5.16724 2.7912 5.4665 2.87136 5.4665 3.0958V5.74634C5.4665 5.86925 5.36763 5.96811 5.24473 5.96811Z" fill="#616161"/>
<path fill-rule="evenodd" clip-rule="evenodd" d="M9.55985 5.87725C9.06287 5.87725 8.65674 5.47112 8.65674 4.97414C8.65674 4.85123 8.75827 4.75237 8.88118 4.75237C9.00409 4.75237 9.10295 4.85123 9.10295 4.97414C9.10295 5.2253 9.30869 5.43104 9.55985 5.43104C9.81101 5.43104 10.0167 5.2253 10.0167 4.97414C10.0167 4.72298 9.81101 4.51724 9.55985 4.51724C9.43694 4.51724 9.33808 4.41838 9.33808 4.29547C9.33808 4.17256 9.43694 4.0737 9.55985 4.0737C9.74154 4.0737 9.89116 3.92408 9.89116 3.74239C9.89116 3.56069 9.74154 3.41107 9.55985 3.41107C9.37816 3.41107 9.22853 3.56069 9.22853 3.74239C9.22853 3.86529 9.12967 3.96415 9.00676 3.96415C8.88385 3.96415 8.78499 3.86529 8.78499 3.74239C8.78499 3.31488 9.13234 2.96753 9.55985 2.96753C10.2358 2.96753 10.5885 3.77979 10.1263 4.27142C10.332 4.43708 10.463 4.69092 10.463 4.97414C10.463 5.47112 10.0568 5.87725 9.55985 5.87725Z" fill="#616161"/>
<path fill-rule="evenodd" clip-rule="evenodd" d="M13.9016 5.87736C13.4047 5.87736 12.9985 5.47122 12.9985 4.97425C12.9985 4.85134 13.0974 4.75248 13.2203 4.75248C13.3432 4.75248 13.4447 4.85134 13.4447 4.97425C13.4447 5.22541 13.6478 5.43115 13.9016 5.43115C14.1528 5.43115 14.3585 5.22541 14.3585 4.97425C14.3585 4.72309 14.1528 4.51735 13.899 4.51735L13.2657 4.51468C13.1428 4.51468 13.0413 4.41582 13.0413 4.29291V3.40583C13.0413 3.17605 13.231 2.98901 13.4608 2.98901H14.567C14.6899 2.98901 14.7914 3.08787 14.7914 3.21078C14.7914 3.33369 14.6899 3.43255 14.567 3.43255H13.4875V4.07114H13.9016C14.3986 4.07381 14.8021 4.47727 14.8021 4.97425C14.8021 5.47122 14.3986 5.87736 13.9016 5.87736Z" fill="#616161"/>
<path fill-rule="evenodd" clip-rule="evenodd" d="M6.20637 16.4155H4.37878C4.18106 16.4155 4.0822 16.175 4.22114 16.036C4.30397 15.9532 4.45092 15.8169 4.64063 15.6406C4.99065 15.3173 5.47159 14.8738 5.71207 14.6039C5.81093 14.497 5.8323 14.3928 5.78154 14.2752C5.69603 14.0855 5.43953 13.9279 5.22043 13.9279C4.88644 13.9279 4.61658 14.1978 4.61658 14.5291C4.61658 14.652 4.51772 14.7508 4.39481 14.7508C4.2719 14.7508 4.17304 14.652 4.17304 14.5291C4.17304 13.9519 4.64063 13.4817 5.21776 13.4817C5.92315 13.4817 6.60983 14.2752 6.04338 14.9031C5.78688 15.1864 5.30059 15.6379 4.94255 15.9692C4.94255 15.9692 4.94255 15.9692 4.93988 15.9692H6.20637C6.32928 15.9692 6.43081 16.0708 6.43081 16.1937C6.43081 16.3139 6.32928 16.4155 6.20637 16.4155Z" fill="#616161"/>
<path fill-rule="evenodd" clip-rule="evenodd" d="M9.97388 16.4741C9.85097 16.4741 9.75211 16.3726 9.75211 16.2497V15.6565H8.69136C8.50967 15.6565 8.40547 15.4508 8.50967 15.3038L9.79486 13.5163C9.92044 13.3399 10.1983 13.4308 10.1983 13.6472V15.2103H10.567C10.69 15.2103 10.7888 15.3091 10.7888 15.4321C10.7888 15.555 10.69 15.6565 10.567 15.6565H10.1983V16.2497C10.1983 16.3726 10.0968 16.4741 9.97388 16.4741ZM9.12421 15.2103H9.75211V14.3366L9.12421 15.2103Z" fill="#616161"/>
<path fill-rule="evenodd" clip-rule="evenodd" d="M13.2977 16.5571C13.1748 16.5571 13.0732 16.4582 13.0732 16.3353V13.7542C13.0732 13.6313 13.1748 13.5325 13.2977 13.5325C13.4206 13.5325 13.5195 13.6313 13.5195 13.7542V16.3353C13.5195 16.4582 13.4206 16.5571 13.2977 16.5571Z" fill="#616161"/>
<path fill-rule="evenodd" clip-rule="evenodd" d="M14.3905 15.3601H13.2977C13.1748 15.3601 13.0732 15.2612 13.0732 15.1383V13.7542C13.0732 13.6313 13.1748 13.5325 13.2977 13.5325H14.3905C14.8955 13.5325 15.307 13.9413 15.307 14.4463C15.307 14.9513 14.8955 15.3601 14.3905 15.3601ZM13.5195 14.9165H14.3905C14.6497 14.9165 14.8608 14.7054 14.8608 14.4463C14.8608 14.1871 14.6497 13.976 14.3905 13.976H13.5195V14.9165Z" fill="#616161"/>
<path fill-rule="evenodd" clip-rule="evenodd" d="M15.12 16.5061C15.0479 16.5061 14.9757 16.4687 14.933 16.4019L14.2035 15.2584C14.1367 15.1542 14.1688 15.0179 14.2703 14.9511C14.3745 14.8843 14.5135 14.9164 14.5776 15.0179L15.307 16.1641C15.4032 16.3138 15.2937 16.5061 15.12 16.5061Z" fill="#616161"/>
<path fill-rule="evenodd" clip-rule="evenodd" d="M5.15634 12.9446C5.03343 12.9446 4.93457 12.8457 4.93457 12.7228V6.70834C4.93457 6.58543 5.03343 6.48657 5.15634 6.48657C5.27925 6.48657 5.37811 6.58543 5.37811 6.70834V12.7228C5.37811 12.8457 5.27925 12.9446 5.15634 12.9446Z" fill="#616161"/>
<path fill-rule="evenodd" clip-rule="evenodd" d="M9.61044 12.9446C9.48753 12.9446 9.38867 12.8457 9.38867 12.7228V6.70834C9.38867 6.58543 9.48753 6.48657 9.61044 6.48657C9.73335 6.48657 9.83221 6.58543 9.83221 6.70834V12.7228C9.83221 12.8457 9.73335 12.9446 9.61044 12.9446Z" fill="#616161"/>
<path fill-rule="evenodd" clip-rule="evenodd" d="M14.0648 12.9446C13.9419 12.9446 13.8403 12.8457 13.8403 12.7228V10.6655C13.8403 10.5425 13.9419 10.4437 14.0648 10.4437C14.1877 10.4437 14.2865 10.5425 14.2865 10.6655V12.7228C14.2865 12.8457 14.1877 12.9446 14.0648 12.9446ZM14.0648 8.98749C13.9419 8.98749 13.8403 8.88863 13.8403 8.76572V6.70834C13.8403 6.58543 13.9419 6.48657 14.0648 6.48657C14.1877 6.48657 14.2865 6.58543 14.2865 6.70834V8.76572C14.2865 8.88863 14.1877 8.98749 14.0648 8.98749Z" fill="#616161"/>
<path fill-rule="evenodd" clip-rule="evenodd" d="M14.0645 9.93864H5.15634C5.03343 9.93864 4.93457 9.83978 4.93457 9.71687C4.93457 9.59396 5.03343 9.49243 5.15634 9.49243H14.0645C14.1874 9.49243 14.2863 9.59396 14.2863 9.71687C14.2863 9.83978 14.1874 9.93864 14.0645 9.93864Z" fill="#616161"/>
<path fill-rule="evenodd" clip-rule="evenodd" d="M15.7934 18.6945H3.66825C1.77119 18.6945 0.229492 17.1528 0.229492 15.2584V4.17266C0.229492 2.27827 1.77119 0.736572 3.66825 0.736572H15.7934C17.6878 0.736572 19.2295 2.27827 19.2295 4.17266V15.2584C19.2295 17.1528 17.6878 18.6945 15.7934 18.6945ZM3.66825 1.18011C2.017 1.18011 0.675702 2.52408 0.675702 4.17266V15.2584C0.675702 16.907 2.017 18.251 3.66825 18.251H15.7934C17.442 18.251 18.7833 16.907 18.7833 15.2584V4.17266C18.7833 2.52408 17.442 1.18011 15.7934 1.18011H3.66825Z" fill="#616161"/>
<path fill-rule="evenodd" clip-rule="evenodd" d="M15.7932 17.7327H3.66804C2.30269 17.7327 1.19385 16.6238 1.19385 15.2585V4.17268C1.19385 2.80733 2.30269 1.69849 3.66804 1.69849H15.7932C17.1559 1.69849 18.2674 2.80733 18.2674 4.17268V15.2585C18.2674 16.6238 17.1559 17.7327 15.7932 17.7327ZM3.66804 2.1447C2.54851 2.1447 1.63739 3.05315 1.63739 4.17268V15.2585C1.63739 16.378 2.54851 17.2864 3.66804 17.2864H15.7932C16.9101 17.2864 17.8212 16.378 17.8212 15.2585V4.17268C17.8212 3.05315 16.9101 2.1447 15.7932 2.1447H3.66804Z" fill="#616161"/>
</g>
<defs>
<clipPath id="clip0_23_445">
<rect width="19" height="19" fill="white" transform="translate(0.229492 0.215576)"/>
</clipPath>
</defs>
</svg>
