<svg width="33" height="33" viewBox="0 0 33 33" fill="none" xmlns="http://www.w3.org/2000/svg">
<g clip-path="url(#clip0_37_681)">
<path d="M8.60752 15.3512L6.05752 14.8012C5.35752 14.6512 4.70752 15.2012 4.70752 15.9012V16.9512C4.70752 17.8012 5.35752 18.0012 6.15752 18.0012H8.95752C9.50752 18.0012 10.0575 17.9012 10.0575 17.3012V17.1512C10.0575 16.2512 9.45752 15.5012 8.60752 15.3512ZM5.65752 16.9512C5.65752 16.9012 5.65752 16.9012 5.65752 15.8512C5.65752 15.7512 5.75752 15.6512 5.85752 15.7012L8.40752 16.2512C8.75752 16.3512 9.00752 16.6512 9.05752 17.0012C7.30752 17.0012 5.80752 17.0012 5.65752 16.9512Z" fill="black"/>
<path d="M31.3075 10.001L27.7075 8.30098C26.5075 7.75098 25.2075 7.55098 23.9575 7.80098L23.4075 6.70098C23.0075 5.70098 22.0575 5.00098 20.9575 5.00098H9.25747C8.15747 5.00098 7.20747 5.65098 6.80747 6.65098L4.85747 10.701C4.40747 10.051 3.65747 9.65098 2.85747 9.65098H2.00747C1.25747 9.65098 0.657471 10.251 0.657471 11.001V11.551C0.657471 12.301 1.25747 12.901 2.00747 12.901H3.30747C2.75747 13.601 2.50747 14.501 2.50747 15.401V18.401C2.50747 19.551 2.90747 20.651 3.70747 21.601V23.851C3.70747 24.851 4.50747 25.651 5.50747 25.651H7.35747C8.35747 25.651 9.15747 24.851 9.15747 23.851V22.951H19.1575C21.3575 25.951 24.8075 27.251 24.8575 27.251C24.9575 27.301 25.0575 27.301 25.2075 27.251C25.2575 27.201 32.6575 24.501 32.6575 17.751V12.151C32.6575 11.251 32.1075 10.401 31.3075 10.001ZM7.70747 7.05098C7.95747 6.40098 8.55747 6.00098 9.25747 6.00098H20.9575C21.6575 6.00098 22.2575 6.40098 22.5575 7.10098L23.0075 8.05098C22.8075 8.10098 22.6075 8.20098 22.4075 8.30098L18.8075 10.001C18.0075 10.401 17.4575 11.201 17.4575 12.101H5.20747C5.40747 11.801 5.20747 12.301 7.70747 7.05098ZM1.65747 11.551V11.001C1.65747 10.801 1.80747 10.651 2.00747 10.651H2.85747C3.85747 10.651 4.20747 11.551 4.30747 11.701C4.25747 11.801 4.20747 11.851 4.10747 11.951H2.00747C1.80747 11.901 1.65747 11.751 1.65747 11.551ZM8.15747 23.801C8.15747 24.251 7.80747 24.601 7.35747 24.601H5.45747C5.00747 24.651 4.65747 24.251 4.65747 23.801V22.351C5.25747 22.701 5.95747 22.901 6.65747 22.901H8.15747V23.801ZM6.60747 21.951C4.80747 21.951 3.40747 20.201 3.40747 18.351V15.351C3.40747 14.501 3.75747 13.701 4.35747 13.051H17.4575V17.451H11.9575C11.7075 17.451 11.4575 17.651 11.4575 17.951C11.4575 18.251 11.6575 18.451 11.9575 18.451H17.5075C17.5575 18.801 17.5575 19.101 17.6575 19.401H11.9575C11.7075 19.401 11.4575 19.601 11.4575 19.901C11.4575 20.201 11.6575 20.401 11.9575 20.401H17.8575C18.0575 20.951 18.2575 21.501 18.5575 21.951H6.60747ZM31.6575 17.751C31.6575 23.301 26.0575 25.851 25.0575 26.251C21.4575 24.801 18.4575 21.701 18.4575 17.751C18.4575 15.901 18.4575 14.901 18.4575 12.151C18.4575 11.601 18.7575 11.151 19.2575 10.901L22.8575 9.20098C24.3075 8.50098 25.9075 8.50098 27.3575 9.20098L30.9575 10.901C31.4075 11.151 31.7575 11.601 31.7575 12.151V17.751H31.6575Z" fill="black"/>
<path d="M29.9574 12.051L26.6574 10.501C25.6574 10.001 24.4074 10.001 23.4074 10.501L20.1574 12.051C20.0074 12.151 19.8574 12.301 19.8574 12.501V17.751C19.8574 21.701 23.3074 23.851 24.8074 24.601C24.9574 24.651 25.1074 24.651 25.2574 24.601C26.7574 23.851 30.2074 21.701 30.2074 17.751V12.501C30.2074 12.301 30.1074 12.151 29.9574 12.051ZM29.2574 17.751C29.2574 20.951 26.4574 22.851 25.0574 23.601C23.4074 22.701 20.8574 20.901 20.8574 17.751V12.801L23.8574 11.351C24.6074 11.001 25.5074 11.001 26.2574 11.351L29.2574 12.801V17.751Z" fill="black"/>
<path d="M23.1074 17.6012C22.9074 17.4512 22.6074 17.5012 22.4074 17.7012C22.2074 17.9012 22.3074 18.2012 22.5074 18.4012L24.4074 19.8512C24.6074 20.0012 24.9074 19.9512 25.1074 19.7512L27.9074 16.1012C28.0574 15.9012 28.0074 15.6012 27.8074 15.4012C27.6074 15.2512 27.3074 15.3012 27.1074 15.5012L24.6074 18.7512L23.1074 17.6012Z" fill="#FF3600"/>
</g>
<defs>
<clipPath id="clip0_37_681">
<rect width="32" height="32" fill="white" transform="translate(0.657471 0.150879)"/>
</clipPath>
</defs>
</svg>
