<svg width="63" height="63" viewBox="0 0 63 63" fill="none" xmlns="http://www.w3.org/2000/svg">
<path d="M39.2461 57.4636H56.6836C56.9405 57.4636 57.1869 57.3616 57.3686 57.1799C57.5503 56.9982 57.6523 56.7518 57.6523 56.4949V33.2449C57.6523 32.9879 57.5503 32.7415 57.3686 32.5599C57.1869 32.3782 56.9405 32.2761 56.6836 32.2761H39.2461C38.9892 32.2761 38.7428 32.3782 38.5611 32.5599C38.3794 32.7415 38.2773 32.9879 38.2773 33.2449V56.4949C38.2773 56.7518 38.3794 56.9982 38.5611 57.1799C38.7428 57.3616 38.9892 57.4636 39.2461 57.4636ZM40.2148 51.6511H44.0898V55.5261H40.2148V51.6511ZM55.7148 40.0261V43.9011H51.8398V40.0261H55.7148ZM49.9023 43.9011H46.0273V40.0261H49.9023V43.9011ZM49.9023 55.5261H46.0273V51.6511H49.9023V55.5261ZM49.9023 49.7136H46.0273V45.8386H49.9023V49.7136ZM44.0898 43.9011H40.2148V40.0261H44.0898V43.9011ZM44.0898 45.8386V49.7136H40.2148V45.8386H44.0898ZM51.8398 55.5261V45.8386H55.7148V55.5261H51.8398ZM55.7148 34.2136V38.0886H40.2148V34.2136H55.7148Z" fill="black"/>
<path d="M60.5586 28.4011H50.3179L47.1898 21.8833C46.7942 21.0671 46.2067 20.3588 45.4778 19.819C44.7488 19.2791 43.9 18.9238 43.0039 18.7833C44.655 17.5839 45.8851 15.8936 46.5187 13.9536C47.1523 12.0137 47.1571 9.92319 46.5324 7.98035C45.9077 6.03752 44.6854 4.3416 43.0399 3.13452C41.3943 1.92744 39.4096 1.27088 37.3688 1.25848C35.3281 1.24608 33.3355 1.87849 31.6754 3.06549C30.0153 4.25248 28.7725 5.93343 28.1242 7.86853C27.476 9.80364 27.4554 11.894 28.0654 13.8415C28.6754 15.789 29.8849 17.4941 31.5213 18.7136H26.6523C26.6538 17.0374 26.2203 15.3896 25.3943 13.9311C24.5683 12.4726 23.378 11.2534 21.9398 10.3926C20.5015 9.53186 18.8645 9.05898 17.1888 9.02023C15.5131 8.98148 13.856 9.37817 12.3795 10.1715C10.903 10.9649 9.65762 12.1278 8.76507 13.5465C7.87251 14.9653 7.36334 16.5913 7.28732 18.2658C7.21129 19.9402 7.57102 21.6057 8.33134 23.0995C9.09166 24.5933 10.2266 25.8642 11.6251 26.7881L9.56069 30.6631C9.15426 30.4527 8.70377 30.3415 8.24609 30.3386H4.37109C3.60031 30.3386 2.86109 30.6448 2.31606 31.1898C1.77104 31.7348 1.46484 32.4741 1.46484 33.2448C1.46484 34.0156 1.77104 34.7548 2.31606 35.2999C2.86109 35.8449 3.60031 36.1511 4.37109 36.1511H5.43672C4.12686 37.606 3.40214 39.4944 3.40234 41.4521V48.7448C3.40966 50.5134 4.10446 52.2097 5.33984 53.4753V57.4636C5.33984 58.4913 5.7481 59.4769 6.4748 60.2036C7.20151 60.9303 8.18713 61.3386 9.21484 61.3386H13.0898C14.1176 61.3386 15.1032 60.9303 15.8299 60.2036C16.5566 59.4769 16.9648 58.4913 16.9648 57.4636V55.5261H34.4023V60.3698C34.4023 60.6268 34.5044 60.8732 34.6861 61.0549C34.8678 61.2365 35.1142 61.3386 35.3711 61.3386H60.5586C60.8155 61.3386 61.0619 61.2365 61.2436 61.0549C61.4253 60.8732 61.5273 60.6268 61.5273 60.3698V29.3698C61.5273 29.1129 61.4253 28.8665 61.2436 28.6848C61.0619 28.5032 60.8155 28.4011 60.5586 28.4011ZM29.5586 10.9636C29.5586 9.43079 30.0131 7.93241 30.8647 6.65793C31.7163 5.38345 32.9267 4.39011 34.3428 3.80353C35.7589 3.21695 37.3172 3.06348 38.8205 3.36251C40.3239 3.66155 41.7048 4.39966 42.7887 5.48352C43.8725 6.56738 44.6106 7.9483 44.9097 9.45165C45.2087 10.955 45.0552 12.5133 44.4687 13.9294C43.8821 15.3455 42.8887 16.5559 41.6143 17.4075C40.3398 18.2591 38.8414 18.7136 37.3086 18.7136C35.2539 18.7113 33.284 17.894 31.8311 16.4411C30.3782 14.9882 29.5609 13.0183 29.5586 10.9636ZM42.1523 20.6511C42.8402 20.6527 43.5138 20.8476 44.0962 21.2137C44.6786 21.5797 45.1464 22.1021 45.4461 22.7213L48.1693 28.4011H45.2204L43.0465 23.1844C42.9729 23.0079 42.8487 22.8572 42.6896 22.7512C42.5305 22.6451 42.3435 22.5886 42.1523 22.5886H25.8376C26.1121 21.9665 26.3196 21.317 26.4567 20.6511H42.1523ZM21.7204 35.1823L29.0975 24.5261H31.5842L24.2072 35.1823H21.7204ZM16.2247 32.0475L18.0828 28.3313C19.3855 28.1784 20.6436 27.7622 21.7805 27.1081C22.9174 26.454 23.9095 25.5755 24.6964 24.5261H26.7405L19.3635 35.1823H18.1622C17.793 35.1824 17.4299 35.088 17.1074 34.9082C16.7849 34.7284 16.5137 34.4691 16.3195 34.155C16.1254 33.8409 16.0148 33.4824 15.9982 33.1136C15.9816 32.7447 16.0596 32.3777 16.2247 32.0475ZM9.21484 18.7136C9.21484 17.1808 9.66937 15.6824 10.521 14.4079C11.3725 13.1334 12.5829 12.1401 13.999 11.5535C15.4152 10.967 16.9734 10.8135 18.4768 11.1125C19.9801 11.4115 21.3611 12.1497 22.4449 13.2335C23.5288 14.3174 24.2669 15.6983 24.5659 17.2016C24.865 18.705 24.7115 20.2633 24.1249 21.6794C23.5383 23.0955 22.545 24.3059 21.2705 25.1575C19.996 26.0091 18.4976 26.4636 16.9648 26.4636C14.9101 26.4613 12.9402 25.644 11.4873 24.1911C10.0344 22.7382 9.21715 20.7683 9.21484 18.7136ZM3.40234 33.2448C3.40234 32.9879 3.50441 32.7415 3.68608 32.5598C3.86776 32.3782 4.11417 32.2761 4.37109 32.2761H8.24609C8.38554 32.2789 8.52271 32.3119 8.64813 32.373L7.66484 34.2136H4.37109C4.11417 34.2136 3.86776 34.1115 3.68608 33.9299C3.50441 33.7482 3.40234 33.5018 3.40234 33.2448ZM15.0273 57.4636C15.0273 57.9775 14.8232 58.4703 14.4599 58.8336C14.0965 59.197 13.6037 59.4011 13.0898 59.4011H9.21484C8.70099 59.4011 8.20818 59.197 7.84482 58.8336C7.48147 58.4703 7.27734 57.9775 7.27734 57.4636V54.8528C8.18407 55.2909 9.17663 55.5225 10.1836 55.5309H15.0273V57.4636ZM10.1836 53.5886C8.89895 53.5886 7.66692 53.0783 6.75855 52.1699C5.85017 51.2615 5.33984 50.0295 5.33984 48.7448V41.4521C5.33682 40.3303 5.64803 39.23 6.23821 38.276C6.82839 37.322 7.67396 36.5523 8.67912 36.0542C8.85881 35.964 9.0063 35.8206 9.1015 35.6435L13.3407 27.6997C14.1635 28.0345 15.0288 28.2533 15.9118 28.3498L14.4916 31.1814C14.1789 31.8071 14.0313 32.5023 14.0627 33.201C14.0942 33.8997 14.3038 34.5788 14.6716 35.1738C15.0393 35.7688 15.5531 36.2599 16.164 36.6005C16.7749 36.9411 17.4628 37.1198 18.1622 37.1198H34.4023V40.9948H18.9023C18.7489 40.995 18.5977 41.0315 18.4612 41.1015C18.3247 41.1715 18.2067 41.2729 18.117 41.3974C18.0274 41.5218 17.9685 41.6658 17.9454 41.8175C17.9223 41.9692 17.9355 42.1242 17.984 42.2697L19.9215 48.0822C19.9857 48.275 20.1089 48.4428 20.2737 48.5617C20.4386 48.6806 20.6366 48.7447 20.8398 48.7448H34.4023V53.5886H10.1836ZM34.4023 42.9323V46.8073H21.5383L20.247 42.9323H34.4023ZM34.4023 29.3698V35.1823H26.5642L33.9412 24.5261H41.5062L43.1211 28.4011H35.3711C35.1142 28.4011 34.8678 28.5032 34.6861 28.6848C34.5044 28.8665 34.4023 29.1129 34.4023 29.3698ZM59.5898 59.4011H36.3398V30.3386H59.5898V59.4011Z" fill="black"/>
<path d="M12.1211 40.9949C11.3547 40.9949 10.6055 41.2221 9.96826 41.6479C9.33102 42.0737 8.83435 42.6789 8.54106 43.387C8.24777 44.095 8.17103 44.8742 8.32055 45.6258C8.47007 46.3775 8.83913 47.068 9.38106 47.6099C9.92299 48.1518 10.6134 48.5209 11.3651 48.6704C12.1168 48.8199 12.8959 48.7432 13.604 48.4499C14.3121 48.1566 14.9173 47.66 15.343 47.0227C15.7688 46.3855 15.9961 45.6363 15.9961 44.8699C15.9961 43.8422 15.5878 42.8565 14.8611 42.1298C14.1344 41.4031 13.1488 40.9949 12.1211 40.9949ZM12.1211 46.8074C11.7379 46.8074 11.3633 46.6937 11.0447 46.4808C10.7261 46.268 10.4777 45.9654 10.3311 45.6113C10.1844 45.2573 10.1461 44.8677 10.2208 44.4919C10.2956 44.116 10.4801 43.7708 10.7511 43.4999C11.022 43.2289 11.3673 43.0444 11.7431 42.9696C12.1189 42.8948 12.5085 42.9332 12.8625 43.0799C13.2166 43.2265 13.5192 43.4748 13.7321 43.7935C13.945 44.1121 14.0586 44.4867 14.0586 44.8699C14.0586 45.3837 13.8545 45.8765 13.4911 46.2399C13.1278 46.6032 12.635 46.8074 12.1211 46.8074Z" fill="black"/>
<path d="M37.3086 8.05737C37.5655 8.05737 37.8119 8.15944 37.9936 8.34111C38.1753 8.52279 38.2773 8.76919 38.2773 9.02612H40.2148C40.2124 8.42718 40.0249 7.84364 39.6781 7.35532C39.3313 6.867 38.842 6.49777 38.2773 6.29812V5.15112H36.3398V6.29812C35.694 6.52561 35.1495 6.97432 34.8028 7.5648C34.4561 8.15527 34.3295 8.8494 34.4456 9.52423C34.5616 10.1991 34.9127 10.8111 35.4367 11.2518C35.9608 11.6926 36.6239 11.9337 37.3086 11.9324C37.5002 11.9324 37.6875 11.9892 37.8468 12.0956C38.0061 12.2021 38.1303 12.3534 38.2036 12.5304C38.2769 12.7074 38.2961 12.9022 38.2587 13.0901C38.2214 13.278 38.1291 13.4507 37.9936 13.5861C37.8581 13.7216 37.6855 13.8139 37.4976 13.8513C37.3097 13.8886 37.1149 13.8695 36.9379 13.7961C36.7609 13.7228 36.6096 13.5986 36.5031 13.4393C36.3967 13.28 36.3398 13.0927 36.3398 12.9011H34.4023C34.4048 13.5001 34.5923 14.0836 34.9391 14.5719C35.2859 15.0602 35.7752 15.4295 36.3398 15.6291V16.7761H38.2773V15.6291C38.9232 15.4016 39.4677 14.9529 39.8144 14.3625C40.1611 13.772 40.2877 13.0778 40.1716 12.403C40.0556 11.7282 39.7045 11.1162 39.1805 10.6754C38.6564 10.2347 37.9933 9.99358 37.3086 9.99487C37.0517 9.99487 36.8053 9.89281 36.6236 9.71113C36.4419 9.52946 36.3398 9.28305 36.3398 9.02612C36.3398 8.76919 36.4419 8.52279 36.6236 8.34111C36.8053 8.15944 37.0517 8.05737 37.3086 8.05737Z" fill="#FF3600"/>
<path d="M17.9336 24.5261V23.3791C18.5794 23.1516 19.1239 22.7029 19.4707 22.1125C19.8174 21.522 19.9439 20.8279 19.8279 20.153C19.7118 19.4782 19.3607 18.8662 18.8367 18.4254C18.3127 17.9847 17.6496 17.7436 16.9648 17.7449C16.7732 17.7449 16.5859 17.6881 16.4266 17.5816C16.2673 17.4752 16.1432 17.3239 16.0698 17.1468C15.9965 16.9698 15.9773 16.775 16.0147 16.5871C16.0521 16.3992 16.1444 16.2266 16.2798 16.0911C16.4153 15.9556 16.5879 15.8634 16.7758 15.826C16.9638 15.7886 17.1586 15.8078 17.3356 15.8811C17.5126 15.9544 17.6639 16.0786 17.7703 16.2379C17.8768 16.3972 17.9336 16.5845 17.9336 16.7761H19.8711C19.8686 16.1772 19.6811 15.5936 19.3343 15.1053C18.9875 14.617 18.4983 14.2478 17.9336 14.0481V12.9011H15.9961V14.0481C15.3502 14.2756 14.8057 14.7243 14.459 15.3148C14.1123 15.9053 13.9858 16.5994 14.1018 17.2742C14.2178 17.9491 14.569 18.5611 15.093 19.0018C15.617 19.4426 16.2801 19.6837 16.9648 19.6824C17.1564 19.6824 17.3437 19.7392 17.5031 19.8456C17.6624 19.9521 17.7865 20.1034 17.8599 20.2804C17.9332 20.4574 17.9524 20.6522 17.915 20.8401C17.8776 21.028 17.7853 21.2007 17.6499 21.3361C17.5144 21.4716 17.3418 21.5639 17.1538 21.6013C16.9659 21.6386 16.7711 21.6195 16.5941 21.5461C16.4171 21.4728 16.2658 21.3486 16.1594 21.1893C16.0529 21.03 15.9961 20.8427 15.9961 20.6511H14.0586C14.0611 21.2501 14.2485 21.8336 14.5954 22.3219C14.9422 22.8102 15.4314 23.1795 15.9961 23.3791V24.5261H17.9336Z" fill="#FF3600"/>
</svg>
