<svg width="35" height="35" viewBox="0 0 35 35" fill="none" xmlns="http://www.w3.org/2000/svg">
<g clip-path="url(#clip0_727_59)">
<path d="M22.4121 12.6812C22.6873 12.6812 22.9102 12.4582 22.9102 12.1831V11.5293C22.9102 11.2542 22.6873 11.0312 22.4121 11.0312C22.137 11.0312 21.9141 11.2542 21.9141 11.5293V12.1831C21.9141 12.4582 22.1371 12.6812 22.4121 12.6812Z" fill="black"/>
<path d="M18.1153 12.6812C18.3904 12.6812 18.6134 12.4582 18.6134 12.1831V11.5293C18.6134 11.2542 18.3904 11.0312 18.1153 11.0312C17.8401 11.0312 17.6172 11.2542 17.6172 11.5293V12.1831C17.6172 12.4582 17.8402 12.6812 18.1153 12.6812Z" fill="black"/>
<path d="M20.2628 16.636C21.2263 16.636 22.0101 15.8521 22.0101 14.8887C22.0101 14.6136 21.7871 14.3906 21.512 14.3906C21.2368 14.3906 21.0139 14.6136 21.0139 14.8887C21.0139 15.3029 20.677 15.6398 20.2628 15.6398C19.8487 15.6398 19.5118 15.3029 19.5118 14.8887C19.5118 14.6136 19.2889 14.3906 19.0137 14.3906C18.7386 14.3906 18.5156 14.6136 18.5156 14.8887C18.5156 15.8521 19.2994 16.636 20.2628 16.636Z" fill="black"/>
<path d="M31.6048 27.6696C31.8799 27.6696 32.1029 27.4467 32.1029 27.1715V25.6268C32.1029 24.2 31.1916 22.9443 29.8306 22.5006L23.6712 20.5602V18.5787C25.1086 17.5174 25.8156 15.7812 25.7546 14.0244C26.8973 14.1122 28.1424 13.4348 28.1424 12.1385V11.0986C28.1424 10.6006 27.948 10.1472 27.6315 9.8098C27.6379 9.77779 27.6414 8.38906 27.6414 8.38906C27.6414 8.11391 27.4184 7.89097 27.1433 7.89097C26.8681 7.89097 26.6452 8.11391 26.6452 8.38906V9.21256H19.6727C18.8488 9.21256 18.1784 8.5422 18.1784 7.7183V3.45137C18.1784 2.62747 18.8488 1.95711 19.6727 1.95711H23.0537C25.0341 1.95711 26.6452 3.56825 26.6452 5.54864V6.21807C26.6452 6.49321 26.8681 6.71615 27.1433 6.71615C27.4184 6.71615 27.6414 6.49321 27.6414 6.21807V5.54864C27.6414 3.01896 25.5833 0.960938 23.0537 0.960938H19.6727C18.4453 0.960938 17.4232 1.85364 17.2198 3.02381H16.3846C14.4622 3.02381 12.898 4.58793 12.898 6.51041C12.898 6.51041 12.9008 9.76444 12.9049 9.7904C12.5775 10.1298 12.3754 10.5909 12.3754 11.0986V12.1385C12.3754 13.4147 13.6148 14.1223 14.7635 14.0244C14.6539 15.7711 15.4313 17.5336 16.8468 18.5787V20.5801L12.3657 22.2549C11.9297 22.4185 11.5491 22.6997 11.2655 23.0681L8.37973 26.8142V25.147C8.37973 24.6971 8.17956 24.2933 7.86391 24.0191V21.9563C7.86391 21.113 7.17775 20.4268 6.33439 20.4268C5.49103 20.4268 4.80493 21.113 4.80493 21.9563V23.6527C3.7559 23.6527 3.25781 24.2413 3.25781 25.147V29.3434C3.25781 30.0057 3.69121 30.5685 4.28912 30.7639V32.4732C4.28912 34.8689 7.38356 35.91 8.87223 33.8771L11.5094 30.6909V34.4628C11.5094 34.738 11.7323 34.9609 12.0075 34.9609H31.6048C31.8799 34.9609 32.1029 34.738 32.1029 34.4628V29.3425C32.1029 29.0674 31.8799 28.8444 31.6048 28.8444C31.3297 28.8444 31.1067 29.0674 31.1067 29.3425V33.9648H27.9772V27.356C27.9772 27.0809 27.7543 26.8579 27.4791 26.8579C27.204 26.8579 26.981 27.0809 26.981 27.356V27.7592H12.5056V27.2452C12.5056 26.97 12.2827 26.7471 12.0075 26.7471C11.7324 26.7471 11.5094 26.97 11.5094 27.2452V29.1286L8.08944 33.2607C7.27404 34.2449 5.28535 34.2746 5.28535 32.4732V30.8377H6.8678V31.3711C6.8678 31.6462 7.09075 31.8692 7.36589 31.8692C7.64103 31.8692 7.86398 31.6462 7.86398 31.3711V30.4713C8.17976 30.1971 8.38006 29.7932 8.38006 29.3431V28.4461L12.0547 23.676C12.225 23.4548 12.4537 23.2859 12.7151 23.1878L17.264 21.4875L19.9594 23.517C20.1542 23.6637 20.411 23.63 20.5904 23.4931L23.2674 21.4774L29.5265 23.4492C30.4716 23.7573 31.1067 24.6324 31.1067 25.6267V27.1715C31.1067 27.4467 31.3297 27.6696 31.6048 27.6696ZM26.981 28.7555V31.9047H18.4302C18.155 31.9047 17.9321 32.1277 17.9321 32.4028C17.9321 32.678 18.155 32.9009 18.4302 32.9009H26.9811V33.9648H12.5056V32.9009H16.2598C16.535 32.9009 16.7579 32.678 16.7579 32.4028C16.7579 32.1277 16.535 31.9047 16.2598 31.9047H12.5056V28.7555H26.981ZM5.8011 21.9564C5.8011 21.6623 6.04038 21.4231 6.33439 21.4231C6.62852 21.4231 6.86774 21.6624 6.86774 21.9564V23.6529H5.8011V21.9564ZM4.25405 25.1471C4.25405 24.8724 4.47746 24.649 4.75214 24.649H6.88554C7.16021 24.649 7.38362 24.8724 7.38362 25.1471V25.7158H5.81884C5.54369 25.7158 5.32075 25.9387 5.32075 26.2139C5.32075 26.489 5.54369 26.712 5.81884 26.712H7.38362V27.7787H5.81884C5.54369 27.7787 5.32075 28.0017 5.32075 28.2768C5.32075 28.552 5.54369 28.7749 5.81884 28.7749H7.38362V29.3436C7.38362 29.6757 7.1822 29.8191 6.88587 29.8414L4.75214 29.8417C4.47746 29.8417 4.25405 29.6183 4.25405 29.3436V25.1471ZM27.1463 12.1385C27.1463 12.6292 26.7472 13.0282 26.2566 13.0282H25.7546V10.2089H26.2566C26.7473 10.2089 27.1463 10.608 27.1463 11.0986V12.1385ZM13.8942 6.51041C13.8942 5.13715 15.0114 4.01998 16.3846 4.01998H17.1823V7.7183V7.71843C17.1823 8.54233 16.5119 9.21269 15.688 9.21269H15.2616H13.8942V6.51041ZM14.2614 13.0282C13.7707 13.0282 13.3717 12.6291 13.3717 12.1385V11.0986C13.3717 10.608 13.7708 10.2089 14.2614 10.2089H14.7635V13.0283L14.2614 13.0282ZM15.7597 14.4625V10.2071C16.5442 10.1848 17.2391 9.79857 17.6804 9.2109C18.1352 9.8163 18.859 10.2087 19.6727 10.2087H24.7583L24.7584 14.4625C24.7584 19.9357 15.7597 19.9294 15.7597 14.4625ZM22.6751 19.1534V20.675L20.2591 22.4955L17.843 20.675V19.1535C19.0307 19.8661 21.3994 19.8218 22.6751 19.1534Z" fill="black"/>
<path d="M5.98201 15.1945C6.21684 15.3889 6.45167 15.3889 6.68644 15.1945L8.74931 13.1315C8.94383 12.9369 8.94383 12.6216 8.74924 12.4271C8.55479 12.2326 8.2394 12.2326 8.04489 12.4271L6.33426 14.1378L5.655 13.4585C5.46042 13.2641 5.1451 13.2641 4.95058 13.4585C4.75606 13.6531 4.75606 13.9684 4.95058 14.163L5.98201 15.1945Z" fill="#FF3600"/>
<path d="M4.75207 18.4589H8.94841C9.77231 18.4589 10.4427 17.7885 10.4427 16.9646V16.3959H12.0075C12.5335 16.3918 12.7659 15.9906 12.3617 15.5477L10.4427 13.6067V10.6583C10.4427 9.83442 9.77231 9.16406 8.94841 9.16406H4.75207C3.92817 9.16406 3.25781 9.83442 3.25781 10.6583V16.9646C3.25781 17.7885 3.9281 18.4589 4.75207 18.4589ZM4.25398 10.6583C4.25398 10.3836 4.47739 10.1602 4.75207 10.1602H8.94841C9.22309 10.1602 9.44649 10.3836 9.44649 10.6583V13.8115C9.44649 13.9426 9.49816 14.0684 9.59041 14.1617L10.8146 15.3998H9.94458C9.66944 15.3998 9.44649 15.6228 9.44649 15.8979V16.9646C9.44649 17.2393 9.22309 17.4627 8.94841 17.4627H4.75207C4.47739 17.4627 4.25398 17.2393 4.25398 16.9646V10.6583Z" fill="black"/>
</g>
<defs>
<clipPath id="clip0_727_59">
<rect width="34" height="34" fill="white" transform="translate(0.679688 0.960938)"/>
</clipPath>
</defs>
</svg>
