<svg width="35" height="35" viewBox="0 0 35 35" fill="none" xmlns="http://www.w3.org/2000/svg">
<g clip-path="url(#clip0_726_43)">
<path d="M33.7609 29.9621L29.5309 25.732L29.1457 26.1172L28.2227 25.1941C28.8137 24.198 29.1324 23.0691 29.1324 21.8805C29.1324 20.7715 28.8535 19.7023 28.3355 18.7527C28.7406 17.418 28.9598 16.0367 28.9598 14.6289C28.9598 6.82617 22.6113 0.484375 14.8152 0.484375C7.0125 0.484375 0.664062 6.83281 0.664062 14.6289C0.664062 22.425 7.0125 28.7734 14.8086 28.7734C16.3559 28.7734 17.8832 28.5277 19.3176 28.043L19.975 27.8504C20.7918 28.209 21.6883 28.4082 22.6047 28.4082C23.7867 28.4082 24.9223 28.0895 25.9184 27.4984L26.8414 28.4215L26.4562 28.8066L30.6863 33.0367C31.1113 33.4617 31.6691 33.6742 32.227 33.6742C32.7848 33.6742 33.3426 33.4617 33.7676 33.0367C34.6109 32.1867 34.6109 30.8055 33.7609 29.9621ZM27.2199 17.2652C25.9848 16.0301 24.3445 15.3527 22.6047 15.3527C22.3523 15.3527 22.1066 15.3727 21.8609 15.3992C21.8609 15.3262 21.8676 15.2531 21.8676 15.1801H27.8508C27.8176 15.9969 27.7113 16.807 27.5254 17.6039C27.4258 17.4844 27.3262 17.3715 27.2199 17.2652ZM8.62617 9.38945C9.11758 9.38945 9.51602 9.78789 9.51602 10.2793C9.51602 10.7707 9.11758 11.1691 8.62617 11.1691C8.13477 11.1691 7.73633 10.7707 7.73633 10.2793C7.73633 9.78789 8.13477 9.38945 8.62617 9.38945ZM8.93828 12.225C9.88125 12.0723 10.5984 11.2621 10.5984 10.2793C10.5984 9.52227 10.1602 8.86484 9.53594 8.53945C9.58242 8.34688 9.63555 8.1543 9.68867 7.96172C11.1363 8.52617 12.6836 8.84492 14.2707 8.90469V14.0844H8.84531C8.85195 13.4602 8.88516 12.8359 8.93828 12.225ZM15.3531 8.90469C16.9336 8.84492 18.4742 8.52617 19.9219 7.96172C20.4266 9.78125 20.7387 11.873 20.7852 14.0844H15.3531V8.90469ZM15.3531 7.80234V1.62656C17.073 1.98516 18.607 4.00391 19.6031 6.91914C18.2617 7.45039 16.8273 7.74258 15.3531 7.80234ZM18.016 1.97187C19.9816 2.46992 21.7746 3.41953 23.2754 4.70117C22.4586 5.39844 21.5688 5.99609 20.6191 6.46758C19.9551 4.56172 19.0652 3.01445 18.016 1.97187ZM14.2641 1.6332V7.80234C12.7898 7.74258 11.3555 7.45039 10.0074 6.91914C11.0301 3.9375 12.584 1.98516 14.2641 1.6332ZM14.2641 15.1734V20.3531C12.6836 20.4129 11.143 20.7316 9.69531 21.2961C9.19063 19.4766 8.87852 17.3848 8.83203 15.1734H14.2641ZM14.2641 21.4555V27.6312C12.5441 27.2727 11.0102 25.2539 10.0141 22.3387C11.3621 21.8074 12.7965 21.5219 14.2641 21.4555ZM11.6078 27.2926C9.64219 26.7945 7.84922 25.8449 6.34844 24.5633C7.16523 23.866 8.05508 23.2684 9.00469 22.7969C9.66211 24.7027 10.5586 26.25 11.6078 27.2926ZM15.3531 27.6246V21.4488C15.5988 21.4621 15.8445 21.4754 16.0902 21.502C16.0836 21.6281 16.0703 21.7543 16.0703 21.8805C16.0703 23.4477 16.6215 24.9219 17.6242 26.1039C17.1062 26.7215 16.3227 27.4254 15.3531 27.6246ZM16.243 20.4262C15.9508 20.3996 15.652 20.373 15.3531 20.3664V15.1801H20.7785C20.7785 15.3262 20.7719 15.4723 20.7652 15.6184C19.7293 15.9238 18.773 16.4816 17.9895 17.2652C17.1062 18.1484 16.5152 19.2375 16.243 20.4262ZM27.8574 14.0844H21.8809C21.8344 11.6805 21.509 9.44922 20.9578 7.51016C22.0801 6.96563 23.1359 6.275 24.0922 5.44492C26.3035 7.68945 27.718 10.7242 27.8574 14.0844ZM9.01133 6.46758C8.06172 5.99609 7.17187 5.39844 6.34844 4.69453C7.84922 3.41289 9.64219 2.46328 11.6145 1.96523C10.5785 3.00117 9.68203 4.53516 9.01133 6.46758ZM5.53828 5.45156C6.50117 6.28828 7.55703 6.97891 8.68594 7.52344C8.61289 7.78242 8.53984 8.04805 8.47344 8.32031C7.45742 8.4 6.65391 9.24336 6.65391 10.2793C6.65391 11.0961 7.15195 11.8 7.8625 12.0988C7.80273 12.7562 7.76953 13.4203 7.75625 14.0844H1.76641C1.90586 10.7242 3.32031 7.68945 5.53828 5.45156ZM1.76641 15.1734H7.74297C7.78945 17.5773 8.11484 19.8086 8.66602 21.7477C7.54375 22.2922 6.48789 22.9828 5.53164 23.8129C3.32031 21.575 1.90586 18.5336 1.76641 15.1734ZM18.0027 27.2992C18.1355 27.1664 18.2684 27.0203 18.4012 26.8742C18.4941 26.9539 18.5938 27.027 18.6934 27.1C18.4609 27.1664 18.2352 27.2395 18.0027 27.2992ZM18.7598 25.7254C17.7305 24.6961 17.166 23.3281 17.166 21.8805C17.166 20.4262 17.7305 19.0582 18.7598 18.0355C19.7891 17.0062 21.157 16.4418 22.6047 16.4418C24.059 16.4418 25.427 17.0062 26.4496 18.0355C27.4789 19.0648 28.0434 20.4328 28.0434 21.8805C28.0434 22.943 27.7379 23.9656 27.1668 24.8355L27.0805 24.9617C26.9809 25.1078 26.8813 25.2406 26.775 25.3668C26.6688 25.493 26.5625 25.6125 26.4496 25.7254C26.3367 25.8383 26.2105 25.9512 26.091 26.0508C25.9648 26.157 25.832 26.2566 25.6859 26.3563L25.5598 26.4426C24.6898 27.007 23.6738 27.3125 22.6047 27.3125C21.1504 27.3191 19.7824 26.7547 18.7598 25.7254ZM26.8215 26.8676C26.9609 26.748 27.0938 26.6285 27.2266 26.5023C27.3527 26.3762 27.4789 26.2434 27.5918 26.1039L28.3754 26.8875L27.6051 27.6578L26.8215 26.8676ZM32.9906 32.2664C32.5656 32.6914 31.875 32.6914 31.45 32.2664L27.9902 28.8066L29.5309 27.266L32.9906 30.7258C33.4156 31.1508 33.4156 31.8414 32.9906 32.2664Z" fill="black"/>
<path d="M25.8754 18.7161C24.1289 16.9696 21.2934 16.9696 19.5469 18.7161L20.3172 19.4864C21.6387 18.1649 23.7836 18.1649 25.1051 19.4864L25.8754 18.7161Z" fill="#FF3600"/>
</g>
<defs>
<clipPath id="clip0_726_43">
<rect width="34" height="34" fill="white" transform="translate(0.53125 0.078125)"/>
</clipPath>
</defs>
</svg>
