<svg width="24" height="25" viewBox="0 0 24 25" fill="none" xmlns="http://www.w3.org/2000/svg">
<g clip-path="url(#clip0_15_130)">
<path d="M16.0096 16.0076C18.5635 12.0001 18.2425 12.5001 18.3161 12.3956C19.2459 11.0841 19.7373 9.54058 19.7373 7.93173C19.7373 3.66517 16.2751 0.150482 12.0029 0.150482C7.74471 0.150482 4.26855 3.65823 4.26855 7.93173C4.26855 9.53955 4.7703 11.1235 5.73059 12.4526L7.99615 16.0076C5.57388 16.3799 1.45605 17.4892 1.45605 19.9317C1.45605 20.8221 2.03721 22.091 4.80584 23.0798C6.73905 23.7702 9.29501 24.1505 12.0029 24.1505C17.0666 24.1505 22.5498 22.7221 22.5498 19.9317C22.5498 17.4887 18.4368 16.3806 16.0096 16.0076ZM6.90523 11.6792C6.89749 11.6671 6.88943 11.6552 6.88099 11.6436C6.08191 10.5443 5.6748 9.24147 5.6748 7.93173C5.6748 4.41526 8.50634 1.55673 12.0029 1.55673C15.4923 1.55673 18.3311 4.41653 18.3311 7.93173C18.3311 9.24358 17.9316 10.5022 17.1758 11.5726C17.108 11.6619 17.4614 11.1129 12.0029 19.6781L6.90523 11.6792ZM12.0029 22.7442C6.47196 22.7442 2.8623 21.1185 2.8623 19.9317C2.8623 19.1341 4.71705 17.8226 8.82705 17.3114L11.41 21.3643C11.5391 21.5669 11.7626 21.6895 12.0029 21.6895C12.2431 21.6895 12.4668 21.5669 12.5958 21.3643L15.1787 17.3114C19.2888 17.8226 21.1436 19.1341 21.1436 19.9317C21.1436 21.1084 17.5664 22.7442 12.0029 22.7442Z" fill="#12182B"/>
<path d="M12.0029 4.41611C10.0644 4.41611 8.4873 5.99322 8.4873 7.93173C8.4873 9.87025 10.0644 11.4474 12.0029 11.4474C13.9414 11.4474 15.5186 9.87025 15.5186 7.93173C15.5186 5.99322 13.9414 4.41611 12.0029 4.41611ZM12.0029 10.0411C10.8398 10.0411 9.89355 9.09484 9.89355 7.93173C9.89355 6.76862 10.8398 5.82236 12.0029 5.82236C13.166 5.82236 14.1123 6.76862 14.1123 7.93173C14.1123 9.09484 13.166 10.0411 12.0029 10.0411Z" fill="#12182B"/>
</g>
<defs>
<clipPath id="clip0_15_130">
<rect width="24" height="24" fill="white" transform="translate(0.00292969 0.150482)"/>
</clipPath>
</defs>
</svg>
