<svg width="62" height="62" viewBox="0 0 62 62" fill="none" xmlns="http://www.w3.org/2000/svg">
<path d="M8.41588 44.365C4.41652 41.2462 1.84473 36.3823 1.84473 30.9177C1.84473 21.5052 9.47509 13.875 18.8875 13.875C22.1213 13.875 25.1447 14.7757 27.7206 16.3399" stroke="#040401" stroke-width="2" stroke-miterlimit="10" stroke-linecap="round" stroke-linejoin="round"/>
<path d="M27.7573 45.4727C25.5397 46.8268 22.9886 47.6885 20.2559 47.9057" stroke="#040401" stroke-width="2" stroke-miterlimit="10" stroke-linecap="round" stroke-linejoin="round"/>
<path d="M55.7236 19.4586C58.4744 22.4853 60.1509 26.5057 60.1509 30.9177C60.1509 40.3302 52.5205 47.9605 43.1082 47.9605C33.6958 47.9605 26.0654 40.3301 26.0654 30.9177C26.0654 21.5054 33.6958 13.875 43.1082 13.875" stroke="#040401" stroke-width="2" stroke-miterlimit="10" stroke-linecap="round" stroke-linejoin="round"/>
<path d="M43.1086 21.4141L46.1971 27.6719L53.103 28.6755L48.1058 33.5464L49.2855 40.4245L43.1086 37.1771L36.9319 40.4245L38.1114 33.5464L33.1143 28.6755L40.0202 27.6719L43.1086 21.4141Z" stroke="#FF3600" stroke-width="2" stroke-miterlimit="10" stroke-linecap="round" stroke-linejoin="round"/>
<path d="M18.0836 29.2141C15.5611 28.1848 15.1334 27.624 15.1291 26.7563C15.1251 25.9504 15.7007 25.0864 17.3277 25.0784C18.9485 25.0705 19.9708 25.648 20.4074 25.8947C20.5737 25.9888 20.7732 26.0052 20.9525 25.9396C21.1321 25.8741 21.2741 25.7333 21.3409 25.5542L22.0068 23.77C22.1182 23.4713 21.9913 23.136 21.7157 22.9762C20.7716 22.429 19.6512 22.1073 18.5193 21.9984L18.5095 19.2863C18.5076 18.9255 18.2272 18.6583 17.8663 18.6602L16.1933 18.6684C15.8324 18.6702 15.5984 18.9398 15.6002 19.3006L15.611 22.1997C13.0279 22.8229 11.52 24.6963 11.5318 27.0976C11.5463 30.0574 13.8776 31.3714 16.4034 32.3475C18.7292 33.2771 19.0461 34.143 19.0501 34.94C19.0559 36.1308 18.0285 36.9359 16.4988 36.9434C15.2611 36.9494 13.9733 36.5728 12.9687 35.9101C12.8009 35.7993 12.5904 35.7722 12.3998 35.8361C12.2092 35.9002 12.0582 36.0485 11.9913 36.2381L11.3523 38.0492C11.2551 38.3248 11.3141 38.6317 11.5527 38.8004C12.4913 39.4639 13.9198 39.9331 15.3749 40.0561L15.3852 42.5222C15.3871 42.883 15.7581 43.1737 16.1189 43.1718L17.8189 43.1635C18.1797 43.1617 18.4577 42.868 18.4561 42.507L18.4449 39.8734C21.0278 39.2237 22.7018 37.2157 22.6896 34.7332C22.6816 33.0239 22.1559 30.8516 18.0836 29.2141Z" stroke="#040401" stroke-width="2" stroke-miterlimit="10" stroke-linecap="round" stroke-linejoin="round"/>
<path d="M9.09567 49.2626C8.93026 49.0654 8.76751 48.8658 8.60742 48.6641" stroke="#040401" stroke-width="2" stroke-miterlimit="10" stroke-linecap="round" stroke-linejoin="round"/>
<path d="M54.6306 46.9727L51.6747 57.0025L48.4203 53.5597C43.5984 57.2757 37.5562 59.4858 30.9977 59.4858C23.6265 59.4858 16.9073 56.6939 11.8398 52.1101" stroke="#040401" stroke-width="2" stroke-miterlimit="10" stroke-linecap="round" stroke-linejoin="round"/>
<path d="M53.9297 13.8789C54.1899 14.2285 54.4423 14.5843 54.6866 14.946" stroke="#040401" stroke-width="2" stroke-miterlimit="10" stroke-linecap="round" stroke-linejoin="round"/>
<path d="M7.1709 15.154L10.0151 4.38969L13.2918 8.49925C18.1595 4.64968 24.3105 2.35156 30.9983 2.35156C38.52 2.35156 45.3628 5.25854 50.4643 10.0103" stroke="#040401" stroke-width="2" stroke-miterlimit="10" stroke-linecap="round" stroke-linejoin="round"/>
<path d="M19.7119 9.80975C19.7119 9.80975 31.4653 3.64402 41.5808 13.856" stroke="#040401" stroke-width="2" stroke-miterlimit="10" stroke-linecap="round" stroke-linejoin="round"/>
<path d="M19.2285 47.2109C19.2285 47.2109 28.5331 58.2007 43.8455 51.5336" stroke="#040401" stroke-width="2" stroke-miterlimit="10" stroke-linecap="round" stroke-linejoin="round"/>
</svg>
