<svg width="33" height="33" viewBox="0 0 33 33" fill="none" xmlns="http://www.w3.org/2000/svg">
<g clip-path="url(#clip0_37_665)">
<path d="M21.6306 21.8196C25.0358 16.4763 24.6077 17.1429 24.7058 17.0036C25.9456 15.2549 26.6008 13.1969 26.6008 11.0518C26.6008 5.36301 21.9845 0.676758 16.2883 0.676758C10.6107 0.676758 5.97583 5.35376 5.97583 11.0518C5.97583 13.1955 6.64483 15.3074 7.92521 17.0796L10.946 21.8196C7.71627 22.3159 2.22583 23.795 2.22583 27.0518C2.22583 28.2389 3.00071 29.9308 6.6922 31.2492C9.26983 32.1698 12.6778 32.6768 16.2883 32.6768C23.0399 32.6768 30.3508 30.7723 30.3508 27.0518C30.3508 23.7944 24.8668 22.3169 21.6306 21.8196ZM9.49139 16.0483C9.48108 16.0322 9.47033 16.0164 9.45908 16.0009C8.39364 14.5352 7.85083 12.7981 7.85083 11.0518C7.85083 6.36313 11.6262 2.55176 16.2883 2.55176C20.9408 2.55176 24.7258 6.36482 24.7258 11.0518C24.7258 12.8009 24.1933 14.4791 23.1855 15.9062C23.0951 16.0253 23.5663 15.2933 16.2883 26.7136L9.49139 16.0483ZM16.2883 30.8018C8.9137 30.8018 4.10083 28.6341 4.10083 27.0518C4.10083 25.9883 6.57383 24.2396 12.0538 23.5579L15.4977 28.9619C15.6698 29.232 15.968 29.3955 16.2883 29.3955C16.6086 29.3955 16.9068 29.2319 17.0788 28.9619L20.5226 23.5579C26.0028 24.2396 28.4758 25.9883 28.4758 27.0518C28.4758 28.6206 23.7063 30.8018 16.2883 30.8018Z" fill="#12182B"/>
<path d="M16.2883 6.36426C13.7036 6.36426 11.6008 8.46707 11.6008 11.0518C11.6008 13.6364 13.7036 15.7393 16.2883 15.7393C18.873 15.7393 20.9758 13.6364 20.9758 11.0518C20.9758 8.46707 18.873 6.36426 16.2883 6.36426ZM16.2883 13.8643C14.7375 13.8643 13.4758 12.6026 13.4758 11.0518C13.4758 9.50095 14.7375 8.23926 16.2883 8.23926C17.8391 8.23926 19.1008 9.50095 19.1008 11.0518C19.1008 12.6026 17.8391 13.8643 16.2883 13.8643Z" fill="#FF3600"/>
</g>
<defs>
<clipPath id="clip0_37_665">
<rect width="32" height="32" fill="white" transform="translate(0.28833 0.676758)"/>
</clipPath>
</defs>
</svg>
