<svg width="24" height="25" viewBox="0 0 24 25" fill="none" xmlns="http://www.w3.org/2000/svg">
<g clip-path="url(#clip0_15_83)">
<path d="M16.0052 16.0076C18.5591 12.0001 18.2381 12.5001 18.3117 12.3956C19.2415 11.0841 19.7329 9.54058 19.7329 7.93173C19.7329 3.66517 16.2707 0.150482 11.9985 0.150482C7.74032 0.150482 4.26416 3.65823 4.26416 7.93173C4.26416 9.53955 4.76591 11.1235 5.72619 12.4526L7.99175 16.0076C5.56949 16.3799 1.45166 17.4892 1.45166 19.9317C1.45166 20.8221 2.03282 22.091 4.80144 23.0798C6.73466 23.7702 9.29061 24.1505 11.9985 24.1505C17.0622 24.1505 22.5454 22.7221 22.5454 19.9317C22.5454 17.4887 18.4324 16.3806 16.0052 16.0076ZM6.90083 11.6792C6.8931 11.6671 6.88504 11.6552 6.8766 11.6436C6.07752 10.5443 5.67041 9.24147 5.67041 7.93173C5.67041 4.41526 8.50194 1.55673 11.9985 1.55673C15.4879 1.55673 18.3267 4.41653 18.3267 7.93173C18.3267 9.24358 17.9272 10.5022 17.1714 11.5726C17.1036 11.6619 17.457 11.1129 11.9985 19.6781L6.90083 11.6792ZM11.9985 22.7442C6.46757 22.7442 2.85791 21.1185 2.85791 19.9317C2.85791 19.1341 4.71266 17.8226 8.82266 17.3114L11.4056 21.3643C11.5347 21.5669 11.7583 21.6895 11.9985 21.6895C12.2387 21.6895 12.4624 21.5669 12.5914 21.3643L15.1743 17.3114C19.2844 17.8226 21.1392 19.1341 21.1392 19.9317C21.1392 21.1084 17.562 22.7442 11.9985 22.7442Z" fill="#12182B"/>
<path d="M11.9985 4.41611C10.06 4.41611 8.48291 5.99322 8.48291 7.93173C8.48291 9.87025 10.06 11.4474 11.9985 11.4474C13.9371 11.4474 15.5142 9.87025 15.5142 7.93173C15.5142 5.99322 13.9371 4.41611 11.9985 4.41611ZM11.9985 10.0411C10.8354 10.0411 9.88916 9.09484 9.88916 7.93173C9.88916 6.76862 10.8354 5.82236 11.9985 5.82236C13.1616 5.82236 14.1079 6.76862 14.1079 7.93173C14.1079 9.09484 13.1616 10.0411 11.9985 10.0411Z" fill="#12182B"/>
</g>
<defs>
<clipPath id="clip0_15_83">
<rect width="24" height="24" fill="white" transform="translate(-0.00146484 0.150482)"/>
</clipPath>
</defs>
</svg>
