<svg width="62" height="62" viewBox="0 0 62 62" fill="none" xmlns="http://www.w3.org/2000/svg">
<path d="M55.2188 5.8125H49.4062V4.84375C49.4062 4.07296 49.1001 3.33375 48.555 2.78872C48.01 2.24369 47.2708 1.9375 46.5 1.9375C45.7292 1.9375 44.99 2.24369 44.445 2.78872C43.8999 3.33375 43.5938 4.07296 43.5938 4.84375V5.8125H33.9062V4.84375C33.9062 4.07296 33.6001 3.33375 33.055 2.78872C32.51 2.24369 31.7708 1.9375 31 1.9375C30.2292 1.9375 29.49 2.24369 28.945 2.78872C28.3999 3.33375 28.0938 4.07296 28.0938 4.84375V5.8125H18.4062V4.84375C18.4062 4.07296 18.1001 3.33375 17.555 2.78872C17.01 2.24369 16.2708 1.9375 15.5 1.9375C14.7292 1.9375 13.99 2.24369 13.445 2.78872C12.8999 3.33375 12.5938 4.07296 12.5938 4.84375V5.8125H6.78125C5.49705 5.81394 4.26586 6.32473 3.35779 7.23279C2.44973 8.14086 1.93894 9.37205 1.9375 10.6562V55.2188C1.93894 56.5029 2.44973 57.7341 3.35779 58.6422C4.26586 59.5503 5.49705 60.0611 6.78125 60.0625H55.2188C56.5029 60.0611 57.7341 59.5503 58.6422 58.6422C59.5503 57.7341 60.0611 56.5029 60.0625 55.2188V10.6562C60.0611 9.37205 59.5503 8.14086 58.6422 7.23279C57.7341 6.32473 56.5029 5.81394 55.2188 5.8125ZM45.5312 4.84375C45.5312 4.58682 45.6333 4.34042 45.815 4.15874C45.9967 3.97706 46.2431 3.875 46.5 3.875C46.7569 3.875 47.0033 3.97706 47.185 4.15874C47.3667 4.34042 47.4688 4.58682 47.4688 4.84375V10.6562C47.4688 10.9132 47.3667 11.1596 47.185 11.3413C47.0033 11.5229 46.7569 11.625 46.5 11.625C46.2431 11.625 45.9967 11.5229 45.815 11.3413C45.6333 11.1596 45.5312 10.9132 45.5312 10.6562V4.84375ZM30.0312 4.84375C30.0312 4.58682 30.1333 4.34042 30.315 4.15874C30.4967 3.97706 30.7431 3.875 31 3.875C31.2569 3.875 31.5033 3.97706 31.685 4.15874C31.8667 4.34042 31.9688 4.58682 31.9688 4.84375V10.6562C31.9688 10.9132 31.8667 11.1596 31.685 11.3413C31.5033 11.5229 31.2569 11.625 31 11.625C30.7431 11.625 30.4967 11.5229 30.315 11.3413C30.1333 11.1596 30.0312 10.9132 30.0312 10.6562V4.84375ZM14.5312 4.84375C14.5312 4.58682 14.6333 4.34042 14.815 4.15874C14.9967 3.97706 15.2431 3.875 15.5 3.875C15.7569 3.875 16.0033 3.97706 16.185 4.15874C16.3667 4.34042 16.4688 4.58682 16.4688 4.84375V10.6562C16.4688 10.9132 16.3667 11.1596 16.185 11.3413C16.0033 11.5229 15.7569 11.625 15.5 11.625C15.2431 11.625 14.9967 11.5229 14.815 11.3413C14.6333 11.1596 14.5312 10.9132 14.5312 10.6562V4.84375ZM6.78125 7.75H12.5938V10.6562C12.5938 11.427 12.8999 12.1663 13.445 12.7113C13.99 13.2563 14.7292 13.5625 15.5 13.5625C16.2708 13.5625 17.01 13.2563 17.555 12.7113C18.1001 12.1663 18.4062 11.427 18.4062 10.6562V7.75H28.0938V10.6562C28.0938 11.427 28.3999 12.1663 28.945 12.7113C29.49 13.2563 30.2292 13.5625 31 13.5625C31.7708 13.5625 32.51 13.2563 33.055 12.7113C33.6001 12.1663 33.9062 11.427 33.9062 10.6562V7.75H43.5938V10.6562C43.5938 11.427 43.8999 12.1663 44.445 12.7113C44.99 13.2563 45.7292 13.5625 46.5 13.5625C47.2708 13.5625 48.01 13.2563 48.555 12.7113C49.1001 12.1663 49.4062 11.427 49.4062 10.6562V7.75H55.2188C55.9893 7.7509 56.728 8.05738 57.2728 8.60221C57.8176 9.14705 58.1241 9.88574 58.125 10.6562V17.4375H3.875V10.6562C3.8759 9.88574 4.18238 9.14705 4.72721 8.60221C5.27205 8.05738 6.01074 7.7509 6.78125 7.75ZM55.2188 58.125H6.78125C6.01074 58.1241 5.27205 57.8176 4.72721 57.2728C4.18238 56.728 3.8759 55.9893 3.875 55.2188V19.375H58.125V55.2188C58.1241 55.9893 57.8176 56.728 57.2728 57.2728C56.728 57.8176 55.9893 58.1241 55.2188 58.125Z" fill="black"/>
<path d="M53.2812 26.1562H49.4062C49.1493 26.1562 48.9029 26.2583 48.7212 26.44C48.5396 26.6217 48.4375 26.8681 48.4375 27.125V31C48.4375 31.2569 48.5396 31.5033 48.7212 31.685C48.9029 31.8667 49.1493 31.9688 49.4062 31.9688H53.2812C53.5382 31.9688 53.7846 31.8667 53.9663 31.685C54.1479 31.5033 54.25 31.2569 54.25 31V27.125C54.25 26.8681 54.1479 26.6217 53.9663 26.44C53.7846 26.2583 53.5382 26.1562 53.2812 26.1562ZM52.3125 30.0312H50.375V28.0938H52.3125V30.0312Z" fill="black"/>
<path d="M33.9062 45.5312H30.0312C29.7743 45.5312 29.5279 45.6333 29.3462 45.815C29.1646 45.9967 29.0625 46.2431 29.0625 46.5V50.375C29.0625 50.6319 29.1646 50.8783 29.3462 51.06C29.5279 51.2417 29.7743 51.3438 30.0312 51.3438H33.9062C34.1632 51.3438 34.4096 51.2417 34.5913 51.06C34.7729 50.8783 34.875 50.6319 34.875 50.375V46.5C34.875 46.2431 34.7729 45.9967 34.5913 45.815C34.4096 45.6333 34.1632 45.5312 33.9062 45.5312ZM32.9375 49.4062H31V47.4688H32.9375V49.4062Z" fill="black"/>
<path d="M24.2188 26.1562H20.3438C20.0868 26.1562 19.8404 26.2583 19.6587 26.44C19.4771 26.6217 19.375 26.8681 19.375 27.125V31C19.375 31.2569 19.4771 31.5033 19.6587 31.685C19.8404 31.8667 20.0868 31.9688 20.3438 31.9688H24.2188C24.4757 31.9688 24.7221 31.8667 24.9038 31.685C25.0854 31.5033 25.1875 31.2569 25.1875 31V27.125C25.1875 26.8681 25.0854 26.6217 24.9038 26.44C24.7221 26.2583 24.4757 26.1562 24.2188 26.1562ZM23.25 30.0312H21.3125V28.0938H23.25V30.0312Z" fill="black"/>
<path d="M14.5312 35.8438H10.6562C10.3993 35.8438 10.1529 35.9458 9.97124 36.1275C9.78956 36.3092 9.6875 36.5556 9.6875 36.8125V40.6875C9.6875 40.9444 9.78956 41.1908 9.97124 41.3725C10.1529 41.5542 10.3993 41.6562 10.6562 41.6562H14.5312C14.7882 41.6562 15.0346 41.5542 15.2163 41.3725C15.3979 41.1908 15.5 40.9444 15.5 40.6875V36.8125C15.5 36.5556 15.3979 36.3092 15.2163 36.1275C15.0346 35.9458 14.7882 35.8438 14.5312 35.8438ZM13.5625 39.7188H11.625V37.7812H13.5625V39.7188Z" fill="black"/>
<path d="M24.2188 35.8438H20.3438C20.0868 35.8438 19.8404 35.9458 19.6587 36.1275C19.4771 36.3092 19.375 36.5556 19.375 36.8125V40.6875C19.375 40.9444 19.4771 41.1908 19.6587 41.3725C19.8404 41.5542 20.0868 41.6562 20.3438 41.6562H24.2188C24.4757 41.6562 24.7221 41.5542 24.9038 41.3725C25.0854 41.1908 25.1875 40.9444 25.1875 40.6875V36.8125C25.1875 36.5556 25.0854 36.3092 24.9038 36.1275C24.7221 35.9458 24.4757 35.8438 24.2188 35.8438ZM23.25 39.7188H21.3125V37.7812H23.25V39.7188Z" fill="black"/>
<path d="M14.5312 45.5312H10.6562C10.3993 45.5312 10.1529 45.6333 9.97124 45.815C9.78956 45.9967 9.6875 46.2431 9.6875 46.5V50.375C9.6875 50.6319 9.78956 50.8783 9.97124 51.06C10.1529 51.2417 10.3993 51.3438 10.6562 51.3438H14.5312C14.7882 51.3438 15.0346 51.2417 15.2163 51.06C15.3979 50.8783 15.5 50.6319 15.5 50.375V46.5C15.5 46.2431 15.3979 45.9967 15.2163 45.815C15.0346 45.6333 14.7882 45.5312 14.5312 45.5312ZM13.5625 49.4062H11.625V47.4688H13.5625V49.4062Z" fill="black"/>
<path d="M24.2188 45.5312H20.3438C20.0868 45.5312 19.8404 45.6333 19.6587 45.815C19.4771 45.9967 19.375 46.2431 19.375 46.5V50.375C19.375 50.6319 19.4771 50.8783 19.6587 51.06C19.8404 51.2417 20.0868 51.3438 20.3438 51.3438H24.2188C24.4757 51.3438 24.7221 51.2417 24.9038 51.06C25.0854 50.8783 25.1875 50.6319 25.1875 50.375V46.5C25.1875 46.2431 25.0854 45.9967 24.9038 45.815C24.7221 45.6333 24.4757 45.5312 24.2188 45.5312ZM23.25 49.4062H21.3125V47.4688H23.25V49.4062Z" fill="black"/>
<path d="M44.7083 30.1504L39.8646 29.4103L37.689 24.7759C37.6108 24.6093 37.4868 24.4685 37.3315 24.3698C37.1762 24.2711 36.996 24.2188 36.812 24.2188C36.628 24.2188 36.4478 24.2711 36.2925 24.3698C36.1372 24.4685 36.0132 24.6093 35.9351 24.7759L33.7605 29.4103L28.9167 30.1504C28.7405 30.1772 28.5752 30.2521 28.4388 30.3668C28.3025 30.4816 28.2004 30.6317 28.1438 30.8007C28.0873 30.9697 28.0784 31.151 28.1183 31.3247C28.1581 31.4984 28.2451 31.6577 28.3696 31.7852L31.9033 35.4067L31.0677 40.5321C31.0388 40.7113 31.0608 40.895 31.1312 41.0623C31.2016 41.2296 31.3176 41.3737 31.466 41.4782C31.6143 41.5828 31.7891 41.6436 31.9703 41.6537C32.1515 41.6638 32.3319 41.6227 32.4909 41.5353L36.812 39.1468L41.1331 41.5353C41.2923 41.6232 41.4729 41.6646 41.6545 41.6548C41.836 41.6449 42.0111 41.5841 42.1597 41.4794C42.3084 41.3747 42.4245 41.2303 42.4949 41.0626C42.5654 40.895 42.5872 40.711 42.5579 40.5315L41.7224 35.4061L45.256 31.7846C45.3806 31.6571 45.4675 31.4978 45.5074 31.3241C45.5472 31.1504 45.5384 30.9691 45.4818 30.8001C45.4252 30.6311 45.3232 30.481 45.1868 30.3662C45.0505 30.2515 44.8851 30.1766 44.7089 30.1498L44.7083 30.1504ZM39.9936 34.4028C39.8877 34.5114 39.8088 34.6432 39.7632 34.7878C39.7175 34.9324 39.7065 35.0857 39.7309 35.2354L40.3242 38.8744L37.2804 37.1912C37.137 37.1119 36.9757 37.0703 36.8118 37.0703C36.6479 37.0703 36.4866 37.1119 36.3432 37.1912L33.2993 38.8744L33.8927 35.2354C33.9171 35.0857 33.9061 34.9324 33.8604 34.7878C33.8148 34.6432 33.7358 34.5114 33.6299 34.4028L31.0722 31.7809L34.5637 31.2481C34.7209 31.2241 34.8698 31.1617 34.9972 31.0665C35.1247 30.9712 35.2267 30.8461 35.2942 30.7021L36.812 27.4676L38.3299 30.7015C38.3975 30.8455 38.4995 30.9706 38.6269 31.0659C38.7544 31.1611 38.9033 31.2235 39.0605 31.2475L42.552 31.7803L39.9936 34.4028Z" fill="#FF3600"/>
<path d="M53.2812 35.8438H49.4062C49.1493 35.8438 48.9029 35.9458 48.7212 36.1275C48.5396 36.3092 48.4375 36.5556 48.4375 36.8125V40.6875C48.4375 40.9444 48.5396 41.1908 48.7212 41.3725C48.9029 41.5542 49.1493 41.6562 49.4062 41.6562H53.2812C53.5382 41.6562 53.7846 41.5542 53.9663 41.3725C54.1479 41.1908 54.25 40.9444 54.25 40.6875V36.8125C54.25 36.5556 54.1479 36.3092 53.9663 36.1275C53.7846 35.9458 53.5382 35.8438 53.2812 35.8438ZM52.3125 39.7188H50.375V37.7812H52.3125V39.7188Z" fill="black"/>
<path d="M53.2812 45.5312H49.4062C49.1493 45.5312 48.9029 45.6333 48.7212 45.815C48.5396 45.9967 48.4375 46.2431 48.4375 46.5V50.375C48.4375 50.6319 48.5396 50.8783 48.7212 51.06C48.9029 51.2417 49.1493 51.3438 49.4062 51.3438H53.2812C53.5382 51.3438 53.7846 51.2417 53.9663 51.06C54.1479 50.8783 54.25 50.6319 54.25 50.375V46.5C54.25 46.2431 54.1479 45.9967 53.9663 45.815C53.7846 45.6333 53.5382 45.5312 53.2812 45.5312ZM52.3125 49.4062H50.375V47.4688H52.3125V49.4062Z" fill="black"/>
<path d="M43.5938 45.5312H39.7188C39.4618 45.5312 39.2154 45.6333 39.0337 45.815C38.8521 45.9967 38.75 46.2431 38.75 46.5V50.375C38.75 50.6319 38.8521 50.8783 39.0337 51.06C39.2154 51.2417 39.4618 51.3438 39.7188 51.3438H43.5938C43.8507 51.3438 44.0971 51.2417 44.2788 51.06C44.4604 50.8783 44.5625 50.6319 44.5625 50.375V46.5C44.5625 46.2431 44.4604 45.9967 44.2788 45.815C44.0971 45.6333 43.8507 45.5312 43.5938 45.5312ZM42.625 49.4062H40.6875V47.4688H42.625V49.4062Z" fill="black"/>
</svg>
