<svg width="63" height="63" viewBox="0 0 63 63" fill="none" xmlns="http://www.w3.org/2000/svg">
<path d="M8.83189 44.3924H9.9027L10.2156 56.082C10.246 56.9099 10.9191 57.5583 11.7483 57.5583H19.8147C20.6426 57.5583 21.3156 56.9099 21.3467 56.071L21.5152 49.5917H23.4223C24.085 51.6355 25.9843 53.1267 28.2451 53.1267C31.0534 53.1267 33.3375 50.8426 33.3375 48.0344C33.3375 45.2261 31.054 42.942 28.2451 42.942C25.571 42.942 23.3964 45.0208 23.193 47.6437H21.5657L21.6499 44.3918H23.2266C25.0172 44.3918 26.4741 42.9349 26.4741 41.1444V39.3662H41.8211C42.4624 39.3662 43.0474 39.0429 43.3849 38.5013C43.725 37.9565 43.758 37.2854 43.4704 36.6953L42.18 34.1293C41.8748 33.4906 41.24 33.0948 40.5222 33.0948H26.4734V31.371H38.0936C39.5596 31.967 41.1532 32.3058 42.8226 32.3382L45.1281 36.9142C45.5563 37.7894 46.3473 38.4268 47.2982 38.6646L53.8844 40.3139C54.4953 40.4648 54.9222 41.0109 54.9222 41.6406V46.2885C54.9222 47.0406 54.3048 47.6515 53.5463 47.6515H52.125C51.9261 45.024 49.7489 42.9407 47.0708 42.9407C44.3967 42.9407 42.2221 45.0195 42.0187 47.6424H35.1883C34.6506 47.6424 34.2146 48.0784 34.2146 48.6161C34.2146 49.1538 34.6506 49.5897 35.1883 49.5897H42.2486C42.9113 51.6335 44.8107 53.1248 47.0715 53.1248C49.3297 53.1248 51.2265 51.6381 51.8918 49.5994H53.5469C55.3789 49.5994 56.8701 48.114 56.8701 46.2885V41.6406C56.8701 40.1118 55.8343 38.789 54.3547 38.4236L47.7718 36.775C47.3786 36.6765 47.0527 36.4154 46.8739 36.0494L44.9454 32.2054C51.4046 31.2965 56.3953 25.7481 56.3953 19.0421C56.3953 11.7038 50.4252 5.7337 43.0869 5.7337C35.7486 5.7337 29.7785 11.7038 29.7785 19.0421C29.7785 23.2385 31.7355 26.9809 34.7795 29.4218H26.2447C25.5943 27.1221 23.5 25.4229 20.9956 25.4229H11.1834C8.09599 25.4229 5.58447 27.9344 5.58447 31.0212V41.1424C5.58383 42.9355 7.04073 44.3924 8.83189 44.3924ZM28.2445 44.8906C29.9793 44.8906 31.3889 46.3015 31.3889 48.035C31.3889 49.7692 29.9787 51.1794 28.2445 51.1794C26.511 51.1794 25.1001 49.7692 25.1001 48.035C25.1001 46.3008 26.5116 44.8906 28.2445 44.8906ZM47.0708 51.1794C45.3373 51.1794 43.9264 49.7692 43.9264 48.035C43.9264 46.3008 45.3373 44.8906 47.0708 44.8906C48.8057 44.8906 50.2153 46.3015 50.2153 48.035C50.2159 49.7685 48.8057 51.1794 47.0708 51.1794ZM31.7258 19.0447C31.7258 12.7805 36.822 7.68423 43.0862 7.68423C49.3505 7.68423 54.4467 12.7805 54.4467 19.0447C54.4467 25.3089 49.3505 30.4051 43.0862 30.4051C36.822 30.4051 31.7258 25.3089 31.7258 19.0447ZM40.4309 34.9877L41.6533 37.4195H26.4734V35.0395L40.4309 34.9877ZM7.53176 31.0238C7.53176 29.0104 9.17004 27.3728 11.1834 27.3728H20.9956C22.9423 27.3728 24.5261 28.9573 24.5261 30.9039V41.145C24.5261 41.8615 23.9431 42.4445 23.2266 42.4445H21.6609V34.9184C21.6609 34.3807 21.2256 33.9447 20.6873 33.9447C20.1496 33.9447 19.7136 34.3807 19.7136 34.9184L19.4124 55.611H16.7564V45.3162C16.7564 44.7785 16.3205 44.3425 15.7828 44.3425C15.2445 44.3425 14.8091 44.7785 14.8091 45.3162V55.611H12.1525L11.8506 34.9184C11.8506 34.3807 11.4153 33.9447 10.877 33.9447C10.3393 33.9447 9.90335 34.3807 9.90335 34.9184V42.4451H8.83254C8.11543 42.4451 7.53241 41.8621 7.53241 41.1457V31.0238H7.53176Z" fill="black"/>
<path d="M8.10747 13.3641C8.14051 13.5591 8.53631 14.0152 8.61146 14.0806C8.57713 14.3592 8.55769 16.1264 8.55769 16.1264C8.82847 19.5973 10.4415 22.4165 12.8338 23.648C13.7362 24.1448 14.9236 24.4687 16.0126 24.4337C16.7828 24.4091 17.5122 24.3184 18.1613 24.0956C21.1354 23.1336 23.1656 20.0786 23.4629 16.0512C23.4629 16.0512 23.4415 14.3624 23.4059 14.0903C23.4506 14.0508 23.8205 13.7036 23.8853 13.5112C23.8853 13.5112 24.4074 11.9519 24.7702 10.7198C25.2035 9.42553 24.6665 7.98158 23.3793 7.23208C22.0144 6.64712 19.6299 5.90862 16.0203 5.94944C11.6309 5.99867 8.57777 7.22754 8.53048 7.2554C7.34242 7.96927 6.81252 9.3886 7.24201 10.7056L8.10747 13.3641ZM21.5189 15.9787C21.3342 18.4474 20.2103 21.4267 17.5459 22.2481C15.2669 22.9503 13.9824 22.0609 13.7634 21.9365C11.9645 21.0101 10.7142 18.726 10.5024 16.0506V15.0491C10.8166 15.121 11.1372 15.167 11.4624 15.167H20.5575C20.8853 15.167 21.204 15.121 21.5169 15.0504L21.5189 15.9787ZM9.47498 8.96235C11.3134 8.2556 13.5147 7.89737 16.0203 7.89737C19.2995 7.89737 21.4146 8.50889 22.5009 8.96624C22.8903 9.19556 23.0677 9.67234 22.9136 10.1349C22.6383 11.0664 22.28 12.1618 22.1213 12.6438C21.6886 13.0124 21.1276 13.2203 20.5575 13.2203H11.4624C11.0316 13.2203 10.0224 12.7468 9.93103 12.671L9.09537 10.1031C8.95544 9.67493 9.11156 9.21629 9.47498 8.96235Z" fill="black"/>
<path d="M40.0712 22.9678C40.3355 23.2321 40.6827 23.3649 41.0306 23.3649C41.3784 23.3649 41.7256 23.2321 41.9906 22.9678L48.5722 16.3868C48.9525 16.0065 48.9525 15.3905 48.5722 15.0096C48.192 14.6293 47.5759 14.6293 47.195 15.0096L41.0306 21.1727L38.9783 19.1205C38.5981 18.7402 37.982 18.7402 37.6011 19.1205C37.2209 19.5008 37.2209 20.1168 37.6011 20.4977L40.0712 22.9678Z" fill="#FF3600"/>
</svg>
