<svg width="21" height="21" viewBox="0 0 21 21" fill="none" xmlns="http://www.w3.org/2000/svg">
<path d="M15.7576 13.8203L15.0441 13.2374L14.1863 10.434C14.146 10.3038 14.0729 10.1861 13.9741 10.0921C13.8753 9.99814 13.7541 9.93106 13.622 9.89728C12.4483 9.61804 11.2452 9.48194 10.0388 9.49197C8.83247 9.48194 7.62934 9.61804 6.45571 9.89728C6.32341 9.93097 6.20199 9.99807 6.10309 10.0922C6.00418 10.1863 5.9311 10.3042 5.89086 10.4346L5.03305 13.2381L4.32008 13.8203C4.1691 13.9433 4.04747 14.0984 3.96405 14.2744C3.88063 14.4503 3.83753 14.6427 3.83789 14.8374V16.946C3.83835 17.1335 3.9052 17.3147 4.02657 17.4575C4.14793 17.6003 4.31597 17.6955 4.50086 17.7262V18.7778C4.50103 18.9607 4.57376 19.136 4.7031 19.2654C4.83243 19.3947 5.0078 19.4674 5.19071 19.4676H6.41258C6.59549 19.4674 6.77086 19.3947 6.90019 19.2654C7.02953 19.136 7.10226 18.9607 7.10242 18.7778V17.7395H12.9763V18.7776C12.9765 18.9605 13.0493 19.1359 13.1787 19.2653C13.308 19.3946 13.4834 19.4674 13.6663 19.4676H14.8879C15.0708 19.4674 15.2462 19.3946 15.3756 19.2653C15.5049 19.1359 15.5777 18.9605 15.5779 18.7776V17.7262C15.7628 17.6955 15.9308 17.6003 16.0522 17.4575C16.1736 17.3147 16.2404 17.1335 16.2409 16.946V14.8374C16.2411 14.6426 16.1979 14.4502 16.1142 14.2742C16.0306 14.0982 15.9088 13.9431 15.7576 13.8203ZM6.55446 18.7778C6.55446 18.8157 6.53939 18.852 6.51258 18.8788C6.48577 18.9057 6.4494 18.9207 6.41149 18.9207H5.18961C5.15169 18.9207 5.11533 18.9057 5.08852 18.8788C5.06171 18.852 5.04664 18.8157 5.04664 18.7778V17.7395H6.55446V18.7778ZM14.887 18.9207H13.6659C13.6279 18.9207 13.5915 18.9056 13.5647 18.8788C13.5379 18.8519 13.5228 18.8155 13.5227 18.7776V17.7395H15.0305V18.7776C15.0305 18.8155 15.0154 18.8519 14.9886 18.8788C14.9618 18.9056 14.9254 18.9207 14.8874 18.9207H14.887ZM15.693 16.946C15.693 17.0114 15.667 17.0741 15.6207 17.1203C15.5745 17.1665 15.5119 17.1925 15.4465 17.1926H4.63071C4.56534 17.1925 4.50267 17.1665 4.45645 17.1203C4.41023 17.0741 4.38423 17.0114 4.38414 16.946V14.8374C4.38387 14.7238 4.40897 14.6115 4.45763 14.5088C4.50629 14.406 4.57727 14.3155 4.66539 14.2437L5.44321 13.6084C5.485 13.5741 5.51576 13.5282 5.53164 13.4765L6.41383 10.5938C6.42603 10.5532 6.44864 10.5164 6.47941 10.4871C6.51018 10.4578 6.54806 10.4371 6.5893 10.427C7.71924 10.1587 8.87753 10.0284 10.0388 10.0388C11.2001 10.0284 12.3583 10.1588 13.4882 10.427C13.5295 10.4371 13.5674 10.4578 13.5982 10.4871C13.629 10.5164 13.6517 10.5533 13.6638 10.594L14.546 13.4767C14.5619 13.5284 14.5927 13.5742 14.6345 13.6085L15.4123 14.2437C15.5004 14.3155 15.5713 14.4061 15.62 14.5088C15.6686 14.6115 15.6938 14.7238 15.6935 14.8374L15.693 16.946Z" fill="#616161"/>
<path d="M6.30339 13.5924C7.54253 13.7448 8.79046 13.8144 10.0389 13.8007C11.2873 13.8144 12.5352 13.7448 13.7743 13.5924C13.8136 13.587 13.8513 13.5732 13.8847 13.5518C13.9181 13.5304 13.9465 13.502 13.9679 13.4686C13.9892 13.4352 14.0031 13.3975 14.0084 13.3582C14.0138 13.3189 14.0105 13.2789 13.9989 13.241L13.3104 10.991C13.2963 10.9445 13.27 10.9026 13.2343 10.8697C13.1986 10.8367 13.1548 10.8139 13.1073 10.8035C12.0984 10.5914 11.0698 10.4875 10.0389 10.4935C9.00791 10.4868 7.97921 10.5907 6.97042 10.8035C6.92298 10.8139 6.87917 10.8368 6.84347 10.8697C6.80778 10.9027 6.78149 10.9445 6.7673 10.991L6.07886 13.241C6.06727 13.2789 6.06405 13.3188 6.06942 13.3581C6.0748 13.3973 6.08865 13.435 6.11 13.4683C6.13136 13.5017 6.15971 13.5301 6.19311 13.5514C6.2265 13.5727 6.26413 13.5866 6.30339 13.5919V13.5924ZM7.24355 11.3049C8.16418 11.1238 9.1006 11.0351 10.0389 11.0403C10.9773 11.0359 11.9139 11.1249 12.8348 11.306L13.3807 13.0905C12.2708 13.2081 11.155 13.2626 10.0389 13.2538C8.92272 13.2627 7.80697 13.2083 6.69699 13.0908L7.24355 11.3049Z" fill="#616161"/>
<path d="M11.2078 15.0918H8.8697C8.79258 15.0918 8.71642 15.1089 8.64675 15.142C8.57708 15.175 8.51565 15.2232 8.46692 15.283C8.41819 15.3428 8.38339 15.4126 8.36503 15.4875C8.34667 15.5624 8.34522 15.6405 8.36079 15.716L8.51016 16.4426C8.53451 16.5596 8.59836 16.6648 8.69102 16.7403C8.78368 16.8159 8.89951 16.8573 9.01907 16.8576H11.0584C11.178 16.8573 11.2938 16.8159 11.3865 16.7403C11.4792 16.6648 11.543 16.5596 11.5674 16.4426L11.7167 15.716C11.7323 15.6405 11.7308 15.5624 11.7125 15.4875C11.6941 15.4126 11.6593 15.3428 11.6106 15.283C11.5619 15.2232 11.5004 15.175 11.4308 15.142C11.3611 15.1089 11.2849 15.0918 11.2078 15.0918ZM8.90298 15.6387H9.76532V16.3105H9.04126L8.90298 15.6387ZM11.0363 16.3105H10.3122V15.6387H11.1745L11.0363 16.3105Z" fill="#616161"/>
<path d="M15.0255 15.1126C14.9241 15.0349 14.8061 14.9818 14.6806 14.9577C14.5552 14.9335 14.4259 14.939 14.303 14.9735L13.315 15.2474C13.1729 15.2872 13.0477 15.3722 12.9584 15.4897C12.8691 15.6072 12.8206 15.7506 12.8203 15.8982V16.1666C12.8205 16.3457 12.8918 16.5174 13.0184 16.644C13.145 16.7706 13.3167 16.8418 13.4958 16.8419H14.677C14.8559 16.8415 15.0273 16.7702 15.1538 16.6436C15.2802 16.517 15.3513 16.3455 15.3516 16.1666V15.7713C15.3521 15.6437 15.3229 15.5178 15.2663 15.4034C15.2097 15.2891 15.1272 15.1895 15.0255 15.1126ZM14.8052 16.1666C14.8051 16.2007 14.7915 16.2334 14.7674 16.2575C14.7433 16.2815 14.7106 16.2951 14.6766 16.2951H13.4953C13.4612 16.2951 13.4285 16.2815 13.4044 16.2575C13.3803 16.2334 13.3668 16.2007 13.3667 16.1666V15.8982C13.3668 15.8702 13.3759 15.8429 13.3928 15.8206C13.4098 15.7983 13.4335 15.7821 13.4605 15.7744L14.4486 15.5005C14.4733 15.4937 14.4988 15.4903 14.5244 15.4902C14.5988 15.4905 14.6701 15.5202 14.7226 15.5729C14.7752 15.6256 14.8047 15.697 14.8047 15.7715L14.8052 16.1666Z" fill="#616161"/>
<path d="M6.76328 15.2474L5.775 14.9734C5.65209 14.9395 5.523 14.9344 5.3978 14.9586C5.2726 14.9828 5.15467 15.0355 5.0532 15.1127C4.95173 15.1899 4.86946 15.2895 4.81281 15.4038C4.75615 15.518 4.72663 15.6438 4.72656 15.7713V16.1666C4.72677 16.3456 4.79801 16.5173 4.92464 16.6439C5.05128 16.7705 5.22296 16.8417 5.40203 16.8419H6.58328C6.76235 16.8417 6.93404 16.7705 7.06067 16.6439C7.18731 16.5173 7.25854 16.3456 7.25875 16.1666V15.8981C7.25841 15.7505 7.20981 15.607 7.12037 15.4895C7.03092 15.372 6.90552 15.287 6.76328 15.2474ZM6.71141 16.1666C6.71136 16.2007 6.6978 16.2333 6.67369 16.2574C6.64958 16.2815 6.61689 16.295 6.58281 16.295H5.40156C5.36748 16.295 5.3348 16.2815 5.31069 16.2574C5.28658 16.2333 5.27301 16.2007 5.27297 16.1666V15.7713C5.27297 15.6968 5.30247 15.6254 5.35501 15.5727C5.40756 15.52 5.47885 15.4903 5.55328 15.49C5.57884 15.49 5.60427 15.4935 5.62891 15.5003L6.61719 15.7744C6.64415 15.782 6.66789 15.7982 6.68481 15.8205C6.70173 15.8429 6.7109 15.8701 6.71094 15.8981L6.71141 16.1666Z" fill="#616161"/>
<path d="M14.2767 1.10815C13.428 1.11108 12.6131 1.4412 12.0016 2.02981C11.3902 2.61842 11.0293 3.42016 10.9941 4.26815C10.9588 5.11615 11.252 5.94506 11.8125 6.58236C12.373 7.21966 13.1577 7.61624 14.0033 7.68956V8.97893C14.0033 9.05146 14.0321 9.12101 14.0834 9.17228C14.1347 9.22356 14.2042 9.25237 14.2767 9.25237C14.3492 9.25237 14.4188 9.22356 14.4701 9.17228C14.5214 9.12101 14.5502 9.05146 14.5502 8.97893V7.68956C15.3957 7.61624 16.1804 7.21966 16.741 6.58236C17.3015 5.94506 17.5946 5.11615 17.5594 4.26815C17.5242 3.42016 17.1633 2.61842 16.5518 2.02981C15.9403 1.4412 15.1254 1.11108 14.2767 1.10815ZM14.2767 4.80456C14.1047 4.80459 13.9364 4.75359 13.7933 4.65801C13.6502 4.56244 13.5387 4.42657 13.4728 4.2676C13.407 4.10863 13.3897 3.9337 13.4233 3.76493C13.4568 3.59615 13.5397 3.44112 13.6613 3.31943C13.783 3.19775 13.938 3.11487 14.1068 3.08129C14.2756 3.04771 14.4505 3.06493 14.6095 3.13077C14.7685 3.19661 14.9043 3.30812 14.9999 3.4512C15.0955 3.59427 15.1466 3.76248 15.1466 3.93456C15.1463 4.1652 15.0546 4.38632 14.8915 4.54941C14.7285 4.71251 14.5074 4.80427 14.2767 4.80456ZM13.7142 5.23409C13.8917 5.31135 14.0832 5.35122 14.2767 5.35122C14.4703 5.35122 14.6618 5.31135 14.8392 5.23409L15.7044 5.4255C15.7952 5.44614 15.8764 5.49692 15.9347 5.56958C15.993 5.64224 16.025 5.7325 16.0255 5.82565V6.52706C15.5334 6.93383 14.9149 7.15636 14.2764 7.15636C13.638 7.15636 13.0195 6.93383 12.5274 6.52706V5.8255C12.5269 5.73209 12.5585 5.64137 12.617 5.56852C12.6754 5.49567 12.7572 5.44512 12.8484 5.42534L13.7142 5.23409ZM16.5736 5.9169V5.82581C16.5747 5.60771 16.5008 5.39587 16.3642 5.22581C16.2277 5.05575 16.0368 4.9378 15.8236 4.89175L15.3984 4.798C15.5604 4.58845 15.6604 4.33769 15.687 4.07419C15.7137 3.81069 15.6659 3.54499 15.5492 3.30725C15.4325 3.06952 15.2515 2.86926 15.0267 2.7292C14.8019 2.58915 14.5424 2.51491 14.2775 2.51491C14.0127 2.51491 13.7531 2.58915 13.5283 2.7292C13.3035 2.86926 13.1225 3.06952 13.0058 3.30725C12.8891 3.54499 12.8413 3.81069 12.868 4.07419C12.8946 4.33769 12.9946 4.58845 13.1566 4.798L12.7314 4.89175C12.5182 4.93778 12.3273 5.05571 12.1908 5.22578C12.0542 5.39585 11.9803 5.60771 11.9814 5.82581V5.91722C11.7077 5.50255 11.5515 5.02151 11.5292 4.52517C11.5069 4.02882 11.6195 3.53572 11.8549 3.09821C12.0904 2.6607 12.4399 2.29512 12.8664 2.0403C13.2929 1.78547 13.7805 1.65092 14.2774 1.65092C14.7742 1.65092 15.2618 1.78547 15.6883 2.0403C16.1148 2.29512 16.4643 2.6607 16.6998 3.09821C16.9352 3.53572 17.0478 4.02882 17.0255 4.52517C17.0033 5.02151 16.847 5.50255 16.5733 5.91722L16.5736 5.9169Z" fill="#616161"/>
<path d="M5.52764 8.97904C5.52764 9.05156 5.55645 9.12111 5.60773 9.17239C5.65901 9.22367 5.72856 9.25248 5.80108 9.25248C5.8736 9.25248 5.94315 9.22367 5.99443 9.17239C6.04571 9.12111 6.07451 9.05156 6.07451 8.97904V7.68967C6.92249 7.61911 7.71036 7.22351 8.27344 6.58556C8.83651 5.94761 9.1312 5.1167 9.09589 4.26653C9.06058 3.41636 8.69802 2.61275 8.08398 2.02369C7.46995 1.43462 6.65198 1.10571 5.80108 1.10571C4.95017 1.10571 4.13221 1.43462 3.51817 2.02369C2.90414 2.61275 2.54157 3.41636 2.50626 4.26653C2.47095 5.1167 2.76564 5.94761 3.32871 6.58556C3.89179 7.22351 4.67967 7.61911 5.52764 7.68967V8.97904ZM5.80108 4.80467C5.629 4.8047 5.46078 4.7537 5.31769 4.65812C5.1746 4.56255 5.06306 4.42668 4.99719 4.26771C4.93132 4.10874 4.91407 3.93381 4.94762 3.76504C4.98117 3.59626 5.06402 3.44123 5.18568 3.31954C5.30735 3.19785 5.46237 3.11498 5.63113 3.0814C5.7999 3.04782 5.97484 3.06504 6.13382 3.13088C6.2928 3.19672 6.42868 3.30823 6.52429 3.45131C6.61989 3.59438 6.67092 3.76259 6.67092 3.93467C6.67063 4.16529 6.5789 4.38639 6.41584 4.54948C6.25278 4.71257 6.0317 4.80434 5.80108 4.80467ZM5.23858 5.23436C5.41604 5.31162 5.60752 5.35149 5.80108 5.35149C5.99463 5.35149 6.18611 5.31162 6.36358 5.23436L7.22873 5.42592C7.32002 5.4457 7.40174 5.49624 7.46019 5.56909C7.51865 5.64194 7.5503 5.73267 7.54983 5.82608V6.52764C7.05772 6.93441 6.43922 7.15693 5.80076 7.15693C5.16231 7.15693 4.54381 6.93441 4.0517 6.52764V5.82592C4.05217 5.73276 4.08417 5.64251 4.14247 5.56985C4.20077 5.49719 4.28195 5.4464 4.3728 5.42576L5.23858 5.23436ZM3.05108 4.40623C3.05054 3.97723 3.15035 3.55405 3.34254 3.1705C3.53473 2.78695 3.81396 2.45367 4.15792 2.19729C4.50189 1.9409 4.90105 1.76853 5.32352 1.69393C5.74598 1.61933 6.18004 1.64457 6.59101 1.76765C7.00199 1.89072 7.37847 2.10821 7.69039 2.40274C8.00232 2.69727 8.24103 3.06068 8.38745 3.46392C8.53388 3.86716 8.58396 4.29906 8.53369 4.72511C8.48342 5.15116 8.3342 5.55955 8.09795 5.91764V5.82623C8.09906 5.60813 8.02514 5.39627 7.88859 5.2262C7.75203 5.05614 7.56115 4.9382 7.34795 4.89217L6.92295 4.79842C7.08497 4.58885 7.185 4.33807 7.21168 4.07452C7.23837 3.81098 7.19064 3.54523 7.07391 3.30744C6.95718 3.06965 6.77613 2.86935 6.55131 2.72926C6.32649 2.58918 6.06691 2.51492 5.80201 2.51492C5.53712 2.51492 5.27753 2.58918 5.05271 2.72926C4.82789 2.86935 4.64685 3.06965 4.53012 3.30744C4.41339 3.54523 4.36566 3.81098 4.39235 4.07452C4.41903 4.33807 4.51906 4.58885 4.68108 4.79842L4.25592 4.89217C4.04274 4.93822 3.85187 5.05617 3.71532 5.22623C3.57877 5.3963 3.50484 5.60813 3.50592 5.82623V5.91733C3.20868 5.46931 3.05019 4.94357 3.0503 4.40592L3.05108 4.40623Z" fill="#616161"/>
</svg>
