<svg width="21" height="21" viewBox="0 0 21 21" fill="none" xmlns="http://www.w3.org/2000/svg">
<g clip-path="url(#clip0_23_406)">
<path d="M14.0392 6.08504H12.0392V2.41838H12.7059C12.89 2.41838 13.0392 2.26912 13.0392 2.08504V1.08504C13.0392 0.90096 12.89 0.751709 12.7059 0.751709H7.37256C7.18848 0.751709 7.03923 0.90096 7.03923 1.08504V2.08504C7.03923 2.26912 7.18848 2.41838 7.37256 2.41838H8.03923V6.08504H6.03923C5.11914 6.08618 4.3737 6.83162 4.37256 7.75171V18.085C4.3737 19.0051 5.11914 19.7506 6.03923 19.7517V20.4184C6.03923 20.6025 6.18848 20.7517 6.37256 20.7517H7.70589C7.88997 20.7517 8.03923 20.6025 8.03923 20.4184V19.7517H12.0392V20.4184C12.0392 20.6025 12.1885 20.7517 12.3726 20.7517H13.7059C13.89 20.7517 14.0392 20.6025 14.0392 20.4184V19.7517C14.9593 19.7506 15.7048 19.0051 15.7059 18.085V7.75171C15.7048 6.83162 14.9593 6.08618 14.0392 6.08504ZM7.70589 1.41838H12.3726V1.75171H7.70589V1.41838ZM8.70589 2.41838H11.3726V6.08504H8.70589V2.41838ZM7.37256 20.085H6.70589V19.7517H7.37256V20.085ZM13.3726 20.085H12.7059V19.7517H13.3726V20.085ZM15.0392 18.085C15.0392 18.6373 14.5915 19.085 14.0392 19.085H6.03923C5.48698 19.085 5.03923 18.6373 5.03923 18.085V7.75171C5.03923 7.19946 5.48698 6.75171 6.03923 6.75171H14.0392C14.5915 6.75171 15.0392 7.19946 15.0392 7.75171V18.085Z" fill="#616161"/>
<path d="M10.0389 7.41846C9.85482 7.41846 9.70557 7.56771 9.70557 7.75179V18.0851C9.70557 18.2692 9.85482 18.4185 10.0389 18.4185C10.223 18.4185 10.3722 18.2692 10.3722 18.0851V7.75179C10.3722 7.56771 10.223 7.41846 10.0389 7.41846Z" fill="#616161"/>
<path d="M12.7059 8.08496C12.5218 8.08496 12.3726 8.23421 12.3726 8.41829V17.4183C12.3726 17.6024 12.5218 17.7516 12.7059 17.7516C12.89 17.7516 13.0392 17.6024 13.0392 17.4183V8.41829C13.0392 8.23421 12.89 8.08496 12.7059 8.08496Z" fill="#616161"/>
<path d="M7.3724 8.08496C7.18831 8.08496 7.03906 8.23421 7.03906 8.41829V17.4183C7.03906 17.6024 7.18831 17.7516 7.3724 17.7516C7.55648 17.7516 7.70573 17.6024 7.70573 17.4183V8.41829C7.70573 8.23421 7.55648 8.08496 7.3724 8.08496Z" fill="#616161"/>
</g>
<defs>
<clipPath id="clip0_23_406">
<rect width="20" height="20" fill="white" transform="translate(0.0390625 0.751709)"/>
</clipPath>
</defs>
</svg>
