<svg width="63" height="63" viewBox="0 0 63 63" fill="none" xmlns="http://www.w3.org/2000/svg">
<g clip-path="url(#clip0_18_248)">
<path fill-rule="evenodd" clip-rule="evenodd" d="M29.4295 31.298H33.5629C34.1336 31.298 34.5962 30.8354 34.5962 30.2647C34.5962 29.6941 34.1336 29.2314 33.5629 29.2314H29.4295C28.8589 29.2314 28.3962 29.6941 28.3962 30.2647C28.3961 30.8354 28.8588 31.298 29.4295 31.298Z" fill="black"/>
<path fill-rule="evenodd" clip-rule="evenodd" d="M32.5297 32.3314H30.463C29.8923 32.3314 29.4297 32.794 29.4297 33.3647C29.4297 33.9353 29.8923 34.3979 30.463 34.3979H32.5297C33.1003 34.3979 33.563 33.9353 33.563 33.3647C33.563 32.794 33.1003 32.3314 32.5297 32.3314Z" fill="black"/>
<path fill-rule="evenodd" clip-rule="evenodd" d="M53.5599 56.0894H51.4933C50.9226 56.0894 50.46 56.552 50.46 57.1227C50.46 57.6933 50.9226 58.1559 51.4933 58.1559H53.5599C54.1306 58.1559 54.5932 57.6933 54.5932 57.1227C54.5932 56.552 54.1306 56.0894 53.5599 56.0894Z" fill="#FF3600"/>
<path fill-rule="evenodd" clip-rule="evenodd" d="M11.9091 56.0894H9.84238C9.27173 56.0894 8.80908 56.552 8.80908 57.1227C8.80908 57.6933 9.27173 58.1559 9.84238 58.1559H11.9091C12.4797 58.1559 12.9424 57.6933 12.9424 57.1227C12.9424 56.552 12.4797 56.0894 11.9091 56.0894Z" fill="#FF3600"/>
<path fill-rule="evenodd" clip-rule="evenodd" d="M28.3962 20.9647C28.3962 20.394 27.9336 19.9314 27.3629 19.9314H25.2962C24.7256 19.9314 24.2629 20.394 24.2629 20.9647C24.2629 21.5353 24.7256 21.998 25.2962 21.998C25.2962 22.5686 25.7589 23.0313 26.3295 23.0313C26.9002 23.0313 27.3628 22.5686 27.3628 21.998C27.9336 21.998 28.3962 21.5354 28.3962 20.9647Z" fill="black"/>
<path fill-rule="evenodd" clip-rule="evenodd" d="M35.6296 21.998C35.6296 22.5686 36.0922 23.0313 36.6629 23.0313C37.2335 23.0313 37.6962 22.5686 37.6962 21.998C38.2668 21.998 38.7295 21.5353 38.7295 20.9647C38.7295 20.394 38.2668 19.9314 37.6962 19.9314H35.6295C35.0588 19.9314 34.5962 20.394 34.5962 20.9647C34.5962 21.5354 35.0588 21.998 35.6296 21.998Z" fill="black"/>
<path fill-rule="evenodd" clip-rule="evenodd" d="M30.463 27.1647H32.5297C33.1003 27.1647 33.563 26.702 33.563 26.1314C33.563 25.5607 33.1003 25.0981 32.5297 25.0981H30.463C29.8923 25.0981 29.4297 25.5607 29.4297 26.1314C29.4297 26.702 29.8923 27.1647 30.463 27.1647Z" fill="black"/>
<path d="M8.03234 48.1342C5.36947 50.795 3.59619 53.524 3.59619 58.1647V60.2407C3.59619 61.3821 4.52148 62.3074 5.66288 62.3074H57.3295C58.4709 62.3074 59.3962 61.3821 59.3962 60.2407V58.1647C59.3962 53.5199 57.6231 50.795 54.9601 48.1342C52.0523 45.2274 42.8235 42.4611 40.5399 41.8101C39.6449 39.4795 39.3259 36.9673 39.61 34.4868L42.1344 32.2765C43.2545 31.2952 43.8966 29.8783 43.8962 28.3892V27.0614C46.3001 26.574 48.028 24.4606 48.028 22.0079C48.028 19.5551 46.3001 17.4418 43.8962 16.9544L44.7797 13.4193L48.5214 11.548C50.0998 10.7594 51.1054 9.15516 51.1271 7.39093C51.1489 5.6267 50.1831 3.99804 48.6247 3.1708C46.0931 1.86464 41.0659 0.307373 31.4962 0.307373C21.9264 0.307373 16.8993 1.86464 14.3687 3.1707C12.8096 3.99743 11.8433 5.62619 11.8651 7.39083C11.8869 9.15546 12.893 10.7599 14.472 11.548L18.2137 13.4193L19.0962 16.9544C16.6923 17.4418 14.9645 19.5551 14.9645 22.0079C14.9645 24.4606 16.6923 26.574 19.0962 27.0614V28.3892C19.0966 29.8788 19.74 31.2958 20.8612 32.2765L23.3856 34.4868C23.6697 36.9672 23.3506 39.4795 22.4556 41.8101C20.1688 42.4611 10.9401 45.2274 8.03234 48.1342ZM15.0155 60.2407H5.66288V58.1647C5.66288 54.2174 7.12811 51.9596 9.4935 49.5953C10.8699 48.2189 14.3006 46.7361 17.5535 45.5654L13.9038 51.165C13.5285 51.7396 13.463 52.463 13.729 53.0957C13.9949 53.7284 14.5576 54.1878 15.2306 54.3218L16.4086 54.5553C15.6067 56.3515 15.1349 58.2773 15.0155 60.2407ZM20.2174 45.2573L22.4267 47.4666C20.3988 48.808 18.6892 50.5771 17.4181 52.6497L15.6315 52.2911L20.2174 45.2573ZM28.3962 57.1407C27.3884 57.901 26.6934 59.0036 26.4422 60.2407H21.2197C21.6152 56.1225 24.4446 52.6444 28.3962 51.4191V57.1407ZM36.5503 60.2407C36.2996 59.0033 35.6044 57.9006 34.5962 57.1407L34.5838 51.4057C38.5411 52.6338 41.3749 56.1165 41.7728 60.2407H36.5503ZM43.8528 60.2407C43.4487 55.2097 40.0227 50.9313 35.2017 49.4372C34.5797 49.2406 33.901 49.356 33.3789 49.7472C32.8476 50.1391 32.5327 50.7589 32.5295 51.419V57.6986C32.529 58.0681 32.7261 58.4097 33.0461 58.5945C33.677 58.9654 34.1551 59.5491 34.3946 60.2406H28.6027C28.8409 59.5498 29.3171 58.9664 29.946 58.5945C30.2661 58.4097 30.4631 58.0681 30.4627 57.6986V51.419C30.4607 50.7574 30.1457 50.1358 29.6132 49.743C29.0917 49.3515 28.4132 49.2361 27.7915 49.433C22.9687 50.9273 19.542 55.2077 19.1393 60.2406H17.082C17.611 52.6693 23.9072 46.7975 31.497 46.7975C39.0867 46.7975 45.383 52.6693 45.9119 60.2406L43.8528 60.2407ZM24.5657 42.0644C25.21 40.2385 25.5429 38.3172 25.5504 36.381L26.5476 37.2531C27.4886 38.0764 28.6961 38.5305 29.9462 38.5313H33.0462C34.2974 38.5312 35.5062 38.077 36.4479 37.2531L37.4451 36.381C37.4527 38.3172 37.7855 40.2385 38.4299 42.0644L31.4963 44.6704L24.5657 42.0644ZM53.4989 49.5953C55.8642 51.9596 57.3294 54.2174 57.3294 58.1647V60.2407H47.9767C47.8584 58.2782 47.3879 56.3531 46.5878 54.5574L47.7659 54.3239C48.4394 54.1898 49.0024 53.73 49.2682 53.0967C49.534 52.4634 49.4679 51.7395 49.0917 51.165L45.446 45.5674C48.6918 46.7361 52.1224 48.219 53.4988 49.5973L53.4989 49.5953ZM47.362 52.2944L45.5744 52.6498C44.3035 50.5767 42.5939 48.8071 40.5659 47.4656L42.7751 45.2573L47.362 52.2944ZM39.8114 43.7508C40.1597 43.8479 40.5689 43.9678 41.0091 44.1L38.6955 46.4137C37.7326 45.9452 36.7262 45.5724 35.6906 45.3007L39.8114 43.7508ZM18.7965 11.4023L15.3865 9.69937C14.4899 9.2529 13.925 8.33564 13.9295 7.33408C13.9175 6.35937 14.4533 5.46032 15.3163 5.00703C17.6495 3.80634 22.3418 2.37406 31.4962 2.37406C40.6505 2.37406 45.348 3.80623 47.6771 5.00805C48.5391 5.46164 49.0744 6.36008 49.0628 7.33408C49.066 8.33646 48.4989 9.2535 47.6006 9.69835L44.1906 11.4013C43.0126 10.2429 39.8661 8.57403 31.4962 8.57403C23.1262 8.57403 19.9797 10.2429 18.7965 11.4023ZM42.7864 12.8882L42.0053 16.0141C38.5444 16.6838 35.0192 16.961 31.4963 16.8407C27.9733 16.9607 24.4481 16.6834 20.9873 16.0141L20.2113 12.9141C20.793 12.3199 23.1791 10.6407 31.4963 10.6407C39.9272 10.6407 42.2646 12.3664 42.7864 12.8882ZM22.2231 30.7214C21.5499 30.1333 21.1634 29.283 21.1628 28.3892V26.1314C21.1628 25.5607 20.7002 25.0981 20.1295 25.0981C18.6199 25.1107 17.3235 24.028 17.0671 22.5404C16.8106 21.0528 17.6695 19.5983 19.0961 19.1048V20.9648C19.0961 21.5355 19.5588 21.9981 20.1294 21.9981C20.7001 21.9981 21.1627 21.5355 21.1627 20.9648V18.1666C24.5759 18.74 28.0359 18.988 31.4961 18.9075C34.9562 18.988 38.4162 18.74 41.8294 18.1666V20.9648C41.8294 21.5355 42.2921 21.9981 42.8627 21.9981C43.4334 21.9981 43.896 21.5355 43.896 20.9648V19.1048C45.3226 19.5983 46.1815 21.0528 45.9251 22.5404C45.6686 24.028 44.3722 25.1108 42.8626 25.0981C42.292 25.0981 41.8293 25.5607 41.8293 26.1314V28.3892C41.8292 29.2827 41.4436 30.1329 40.7712 30.7214L35.0879 35.6969C34.5227 36.1918 33.7972 36.4645 33.046 36.4646H29.946C29.1948 36.4645 28.4693 36.1918 27.9041 35.6969L22.2231 30.7214ZM27.304 45.3007C26.2684 45.5724 25.2618 45.9451 24.2991 46.4137L21.9834 44.1C22.4236 43.9677 22.8329 43.8479 23.1811 43.7508L27.304 45.3007Z" fill="black"/>
</g>
<defs>
<clipPath id="clip0_18_248">
<rect width="62" height="62" fill="white" transform="translate(0.496094 0.307373)"/>
</clipPath>
</defs>
</svg>
