<svg width="33" height="33" viewBox="0 0 33 33" fill="none" xmlns="http://www.w3.org/2000/svg">
<g clip-path="url(#clip0_733_24)">
<path d="M16.2039 12.8203C18.2664 12.8203 19.9414 11.1453 19.9414 9.08281C19.7351 4.12656 12.6726 4.12656 12.4664 9.08281C12.4664 11.1453 14.1414 12.8203 16.2039 12.8203ZM16.2039 5.99531C17.9039 5.99531 19.2914 7.38281 19.2914 9.08281C19.1226 13.1766 13.2851 13.1766 13.1164 9.08281C13.1164 7.38281 14.5039 5.99531 16.2039 5.99531ZM9.56639 10.7891H10.4789C10.5976 11.1828 10.7539 11.5641 10.9476 11.9266L10.3039 12.5703C10.0351 12.8391 10.0351 13.2766 10.3039 13.5453L11.7414 14.9828C11.9976 15.2516 12.4601 15.2516 12.7164 14.9828L13.3601 14.3391C13.7226 14.5328 14.1039 14.6953 14.4976 14.8078V15.7203C14.4976 16.1016 14.8039 16.4078 15.1851 16.4078H17.2226C17.6039 16.4078 17.9101 16.1016 17.9101 15.7203V14.8078C18.3039 14.6891 18.6789 14.5328 19.0476 14.3391L19.6976 14.9828C19.9539 15.2516 20.4164 15.2516 20.6726 14.9828L22.1101 13.5453C22.3789 13.2891 22.3789 12.8266 22.1101 12.5703L21.4664 11.9266C21.6601 11.5641 21.8226 11.1828 21.9351 10.7891H22.8476C23.2289 10.7891 23.5351 10.4828 23.5351 10.1016V8.06406C23.5351 7.68281 23.2289 7.37656 22.8476 7.37656H21.9351C21.8164 6.98281 21.6601 6.60156 21.4664 6.23906L22.1101 5.59531C22.3789 5.33906 22.3789 4.87656 22.1101 4.62031L20.6726 3.18281C20.4039 2.91406 19.9664 2.91406 19.6976 3.18281L19.0476 3.82656C18.6851 3.63281 18.3039 3.47031 17.9101 3.35781V2.44531C17.9101 2.06406 17.6039 1.75781 17.2226 1.75781H15.1851C14.8039 1.75781 14.4976 2.06406 14.4976 2.44531V3.35781C14.1039 3.47656 13.7226 3.63281 13.3601 3.82656L12.7101 3.17656C12.4414 2.90781 12.0039 2.90781 11.7351 3.17656L10.2976 4.61406C10.0289 4.88281 10.0289 5.32031 10.2976 5.58906L10.9414 6.23281C10.7476 6.59531 10.5914 6.97656 10.4726 7.37031H9.56014C9.17889 7.37031 8.87264 7.67656 8.87264 8.05781V10.0953C8.87264 10.4828 9.18514 10.7891 9.56639 10.7891ZM9.52265 8.06406C9.52265 8.03906 9.54139 8.02031 9.56639 8.02031H10.7289C10.8789 8.02031 11.0039 7.92031 11.0414 7.77656C11.1664 7.27656 11.3664 6.79531 11.6351 6.35156C11.7101 6.22656 11.6914 6.06406 11.5851 5.95781L10.7601 5.13906C10.7414 5.12031 10.7414 5.09531 10.7601 5.08281L12.1976 3.64531C12.2164 3.62656 12.2414 3.63281 12.2539 3.64531L13.0789 4.46406C13.1851 4.57031 13.3476 4.58906 13.4726 4.51406C13.9164 4.24531 14.3976 4.05156 14.8976 3.92031C15.0414 3.88281 15.1414 3.75156 15.1414 3.60781V2.44531C15.1414 2.42031 15.1601 2.40156 15.1851 2.40156H17.2226C17.2476 2.40156 17.2664 2.42031 17.2664 2.44531V3.60781C17.2664 3.75781 17.3664 3.88281 17.5101 3.92031C18.0101 4.04531 18.4914 4.24531 18.9351 4.51406C19.0601 4.58906 19.2289 4.57031 19.3289 4.46406L20.1539 3.63906C20.1726 3.62031 20.1976 3.62656 20.2101 3.63906L21.6476 5.07656V5.13281L20.8289 5.95781C20.7226 6.06406 20.7039 6.22656 20.7789 6.35156C21.0476 6.79531 21.2476 7.27656 21.3726 7.77656C21.4101 7.92031 21.5351 8.02031 21.6851 8.02031H22.8476C22.8726 8.02031 22.8914 8.03906 22.8914 8.06406V10.1016C22.8914 10.1266 22.8726 10.1453 22.8476 10.1453H21.6851C21.5351 10.1453 21.4039 10.2453 21.3726 10.3891C21.2476 10.8891 21.0476 11.3703 20.7789 11.8141C20.7039 11.9391 20.7226 12.1016 20.8289 12.2078L21.6476 13.0266V13.0828L20.2101 14.5203L20.4414 14.7516C20.2351 14.6266 19.5164 13.8828 19.3289 13.7016C19.2226 13.5953 19.0601 13.5766 18.9351 13.6516C18.4851 13.9203 18.0101 14.1203 17.5101 14.2453C17.3664 14.2828 17.2664 14.4141 17.2664 14.5578V15.7203C17.2664 15.7453 17.2476 15.7641 17.2226 15.7641H15.1851C15.1601 15.7641 15.1414 15.7453 15.1414 15.7203V14.5578C15.1414 14.4078 15.0414 14.2766 14.8976 14.2453C14.3976 14.1203 13.9164 13.9203 13.4726 13.6516C13.3476 13.5766 13.1851 13.5953 13.0789 13.7016L12.2601 14.5203L12.4914 14.7516C12.3164 14.6641 10.9414 13.2578 10.7664 13.0828C10.7476 13.0641 10.7476 13.0391 10.7664 13.0266L11.5851 12.2078C11.6914 12.1016 11.7101 11.9391 11.6351 11.8141C11.3664 11.3703 11.1726 10.8891 11.0414 10.3891C11.0039 10.2453 10.8726 10.1453 10.7289 10.1453H9.56639C9.54139 10.1453 9.52265 10.1266 9.52265 10.1016V8.06406ZM22.3351 21.0953C22.3351 21.1016 22.3351 21.1016 22.3351 21.0953ZM32.0914 22.0953C31.9976 21.6766 31.7601 21.3141 31.4664 21.0578C31.8476 20.8078 32.0976 20.3516 32.0976 19.8391C32.1351 19.5641 31.9476 19.2953 31.6664 19.2953C31.2101 19.3266 30.1789 19.1891 29.7851 19.4641L28.7726 17.4641C28.4226 16.7766 27.7601 16.3516 27.0351 16.3516H21.1726C20.3414 16.3391 19.6226 16.9328 19.3039 17.7203H13.4101C13.3164 17.7203 13.2289 17.7266 13.1351 17.7391C12.8164 16.9453 12.0914 16.3328 11.2539 16.3516H5.39139C4.66639 16.3516 3.99764 16.7766 3.64764 17.4641L2.63514 19.4641C2.24139 19.1891 1.20389 19.3203 0.753895 19.2953C0.472645 19.2891 0.291395 19.5641 0.328895 19.8391C0.328895 20.3516 0.578895 20.8078 0.953895 21.0578C0.672645 21.3016 0.447645 21.6453 0.341395 22.0391C0.116395 22.6391 0.516395 24.0266 0.585145 24.6453V27.3891C0.585145 27.8766 0.960145 28.2766 1.41639 28.2766H2.86639C3.27264 28.2766 3.61639 27.9641 3.69139 27.5516H7.99764V30.1828C7.99764 30.7141 8.4039 31.1453 8.89765 31.1453H10.5414C10.9914 31.1453 11.3664 30.7891 11.4351 30.3266H22.0164C22.0789 30.7891 22.4539 31.1453 22.9101 31.1453H24.5539C25.0539 31.1453 25.4601 30.7141 25.4601 30.1828V27.5516H28.7289C28.8039 27.9641 29.1414 28.2766 29.5539 28.2766H31.0039C31.4664 28.2766 31.8414 27.8766 31.8414 27.3891V24.6266C31.9039 24.0453 32.2789 22.6703 32.0914 22.0953ZM30.4289 19.9453H31.4414C31.3976 20.3266 31.1101 20.6266 30.7664 20.6266C30.7351 20.6266 30.3914 20.6266 30.3664 20.6203L30.0726 20.0453C30.1789 19.9828 30.3039 19.9453 30.4289 19.9453ZM21.1601 17.0078H27.0226C27.4976 17.0078 27.9414 17.2953 28.1851 17.7641C28.1851 17.7641 29.3664 20.0891 29.3664 20.0953C29.3976 20.1766 29.5914 20.5391 29.6351 20.6266L29.6289 20.6203H22.8164L21.9726 18.9578C21.6039 18.2328 20.8351 17.7141 20.0164 17.7203C20.2664 17.2766 20.6976 17.0078 21.1601 17.0078ZM13.3976 18.3766H20.0476C20.6039 18.3766 21.1226 18.7141 21.4039 19.2578C21.8226 20.0828 22.6664 21.7453 23.0851 22.5641H10.3664C10.5476 22.2078 10.9289 21.4578 11.1101 21.1016C11.7164 20.1141 11.9914 18.4203 13.3976 18.3766ZM21.6476 24.2016C21.2476 24.3578 20.9539 24.7078 20.8164 25.1141C20.8226 25.0891 20.8289 25.0703 20.8414 25.0453C20.8101 25.1266 20.7851 25.2078 20.7726 25.2891C20.7851 25.2328 20.7976 25.1703 20.8226 25.1141C20.8039 25.1703 20.7851 25.2328 20.7726 25.2891V25.2828H12.6789C12.3664 23.7641 10.3289 23.7141 9.95389 25.2203C9.32889 25.0578 8.77265 24.6703 8.3789 24.1641C8.5789 23.5391 9.17889 23.1516 9.83514 23.1953C9.82889 23.1953 9.81639 23.1953 9.81014 23.1891C9.96639 23.1891 10.1226 23.1953 10.2789 23.1953H19.0164H23.4789C24.1664 23.1266 24.8601 23.4828 25.0664 24.1703C24.5976 24.6391 24.1476 25.0453 23.4851 25.2203C23.3351 24.4203 22.4164 23.9078 21.6476 24.2016ZM22.8851 25.6141C22.8601 26.7516 21.4039 26.7516 21.3789 25.6203C21.4039 24.4828 22.8601 24.4766 22.8851 25.6141ZM12.0601 25.6141C12.0351 26.7516 10.5851 26.7516 10.5539 25.6203C10.5789 24.4828 12.0351 24.4766 12.0601 25.6141ZM3.02889 20.1141C3.02264 20.0953 4.21639 17.7828 4.21639 17.7641C4.45389 17.2953 4.89764 17.0078 5.37889 17.0078H11.2414C11.7851 16.9953 12.2726 17.4078 12.4914 17.9391C11.4664 18.4953 11.1414 19.6641 10.6164 20.6266H2.77264L3.02889 20.1141ZM1.97889 19.9453C2.10389 19.9453 2.22264 19.9828 2.33514 20.0516L2.04139 20.6266C2.02889 20.6328 1.66639 20.6328 1.64139 20.6328C1.29764 20.6328 1.01014 20.3328 0.966395 19.9516H1.97889V19.9453ZM2.86014 27.6266H1.41014C1.16639 27.6203 1.23514 27.2141 1.22264 27.0516C1.42264 27.2828 1.69139 27.4578 1.98514 27.5203C2.17264 27.5766 2.78514 27.5453 2.99139 27.5516C2.96014 27.6016 2.91014 27.6266 2.86014 27.6266ZM2.26639 26.9078C1.85389 26.9078 1.54764 26.5266 1.49139 26.1391L1.22264 24.5453C1.22264 24.5266 1.21014 24.5078 1.21014 24.4891L0.953895 22.9516C1.34764 23.2766 1.80389 23.5141 2.30389 23.6266C2.57264 25.0453 4.46014 25.0828 4.78514 23.6766H7.89764C7.83514 23.8016 7.77264 23.9328 7.74139 24.0703H7.31014C6.57889 24.0703 5.93514 24.4516 5.69139 25.0078L5.29764 25.9266C5.25389 26.0266 5.26639 26.1391 5.32889 26.2328C5.38514 26.3266 5.49139 26.3766 5.59764 26.3766H7.88514L7.97265 26.8891H2.26639V26.9078ZM2.91639 23.3578C2.91014 22.8391 3.41014 22.4578 3.83514 22.7203C4.36014 23.0453 4.22264 24.0766 3.53514 24.0766C3.19764 24.0828 2.91639 23.7578 2.91639 23.3578ZM4.80389 23.1953C4.82889 23.3578 4.81639 23.5266 4.77889 23.6828C4.81014 23.5266 4.81639 23.3578 4.80389 23.1953ZM7.63514 24.9141C7.64139 25.0828 7.74139 25.5766 7.76639 25.7453H6.07889L6.27889 25.2766C6.41639 24.9578 6.83514 24.7328 7.29764 24.7328H7.6289C7.6289 24.7891 7.63514 24.8516 7.63514 24.9141ZM4.77889 23.0391C4.79139 23.0891 4.79764 23.1453 4.80389 23.1953C4.62889 21.7391 2.74139 21.5766 2.32264 22.9703C1.81014 22.8203 1.32889 22.5078 0.997645 22.0828C1.16639 21.6266 1.55389 21.3141 1.98514 21.2766H10.2851C10.1601 21.5953 9.64765 22.2891 9.46015 22.5703C9.08515 22.6141 8.67265 22.7516 8.39765 23.0328H4.77889V23.0391ZM10.5414 30.5016H8.89139C8.54139 30.4891 8.65389 29.9203 8.64139 29.6891C9.12264 30.4016 10.0164 30.3641 10.7664 30.3328C10.7226 30.4328 10.6351 30.5016 10.5414 30.5016ZM24.8039 30.1891C24.8039 30.3578 24.6851 30.5016 24.5476 30.5016H22.9039C22.8039 30.5016 22.7226 30.4328 22.6789 30.3328C22.6976 30.3703 23.1039 30.3266 23.1539 30.3266C23.7664 30.3766 24.4539 30.2391 24.8101 29.6891V30.1891H24.8039ZM25.1289 25.0828C25.0289 25.7141 24.9164 26.3453 24.8101 26.9766L24.5039 28.7766C24.4164 29.3016 24.0289 29.6828 23.5851 29.6828H9.8664C9.4164 29.6828 9.0289 29.3016 8.9414 28.7766C8.83515 28.1578 8.57264 26.6203 8.47264 26.0266L8.31014 25.0516C8.76639 25.4641 9.33515 25.7703 9.9414 25.8953C10.2164 27.4953 12.3539 27.5391 12.6789 25.9453H20.7726L20.7664 25.9391C20.7414 25.8328 20.7351 25.7266 20.7351 25.6141C20.7664 27.4203 23.1601 27.6953 23.5101 25.8891C24.1101 25.7641 24.6664 25.4578 25.1351 25.0516L25.1289 25.0828ZM25.0414 23.0391C24.7039 22.7203 24.2539 22.6078 23.8039 22.5641C23.8039 22.5641 23.1539 21.2766 23.1476 21.2766L23.1539 21.2828H30.4226C30.8539 21.3203 31.2414 21.6391 31.4101 22.0891C31.0539 22.4703 30.6164 22.8578 30.0914 22.9766C30.0476 22.8328 29.9914 22.6953 29.9039 22.5703V22.5766C29.2789 21.6141 27.8476 21.9453 27.6226 23.0453C27.6289 23.0391 25.0414 23.0391 25.0414 23.0391ZM29.9789 22.6891C29.9664 22.6578 29.9476 22.6328 29.9289 22.6016C29.9476 22.6328 29.9601 22.6641 29.9789 22.6891ZM29.4914 23.3578C29.4789 24.3078 28.2539 24.3078 28.2414 23.3578C28.2539 22.4266 29.4601 22.3828 29.4914 23.3578ZM31.1851 27.3891C31.1851 27.5203 31.1039 27.6266 30.9976 27.6266H29.5476C29.4976 27.6266 29.4476 27.5953 29.4164 27.5516C29.6414 27.5391 30.2414 27.5828 30.4476 27.5141C30.7351 27.4516 30.9976 27.2766 31.1851 27.0516V27.3891ZM31.2039 24.4891C31.2039 24.5078 31.1914 24.5266 31.1914 24.5453L30.9226 26.1391C30.8476 26.5828 30.5226 26.9078 30.1476 26.9078H25.4851L25.5726 26.3953H26.8226C27.0476 26.4016 27.2164 26.1516 27.1226 25.9453L26.7289 25.0266C26.5664 24.6391 26.2039 24.3391 25.7414 24.1891H25.7476C25.7039 24.0203 25.6414 23.8453 25.5601 23.6953H27.6351C27.9601 25.1016 29.8414 25.0578 30.1164 23.6453C30.6039 23.5203 31.0726 23.2953 31.4601 22.9703L31.2039 24.4891ZM25.6789 25.7453C25.7039 25.5766 25.7976 25.0828 25.8039 24.9203C26.1039 25.0703 26.2039 25.4766 26.3289 25.7453H25.6789ZM28.1539 22.2203C28.1601 22.2203 28.1601 22.2203 28.1539 22.2203ZM1.34139 23.2391C1.39139 23.2703 1.43514 23.2953 1.48514 23.3203C1.41014 23.2828 1.34139 23.2453 1.27889 23.1953C1.29139 23.2078 1.31639 23.2203 1.34139 23.2391ZM3.89139 22.0391C3.89764 22.0328 3.89764 22.0391 3.90389 22.0391C3.90389 22.0391 3.90389 22.0391 3.89764 22.0453C3.89139 22.0391 3.89139 22.0391 3.89139 22.0391ZM19.6664 27.5141C19.4039 26.8953 18.6851 26.4828 17.8726 26.4828H15.5726C14.7601 26.4828 14.0414 26.8953 13.7789 27.5141L13.3351 28.5641C13.2414 28.7703 13.4101 29.0203 13.6351 29.0141H19.8164C20.0414 29.0203 20.2101 28.7703 20.1164 28.5641C20.1101 28.5641 19.6664 27.5141 19.6664 27.5141ZM14.1226 28.3641L14.3726 27.7703C14.5351 27.3891 15.0289 27.1266 15.5726 27.1266H17.8726C18.4164 27.1266 18.9101 27.3891 19.0664 27.7703L19.3164 28.3641H14.1226Z" fill="black"/>
<circle cx="16.201" cy="9.05255" r="3.24787" stroke="#FF3600"/>
</g>
<defs>
<clipPath id="clip0_733_24">
<rect width="32" height="32" fill="white" transform="translate(0.203125 0.453125)"/>
</clipPath>
</defs>
</svg>
