<svg width="31" height="31" viewBox="0 0 31 31" fill="none" xmlns="http://www.w3.org/2000/svg">
<path d="M21.1753 9.68185C21.1753 9.82908 21.17 9.97632 21.1595 10.1235C21.1542 10.1972 21.1464 10.2681 21.1385 10.3418C21.1332 10.3865 21.149 10.4811 21.1385 10.3444C21.1411 10.3891 21.1253 10.4443 21.1174 10.4864C21.0701 10.7782 20.9991 11.0674 20.9071 11.3487C20.8624 11.4828 20.8125 11.6143 20.7625 11.7431C20.7178 11.8561 20.8125 11.6353 20.7599 11.7457C20.7467 11.7773 20.731 11.8088 20.7178 11.8404C20.6836 11.914 20.6495 11.9876 20.61 12.0586C20.4838 12.3057 20.3392 12.5423 20.1788 12.7684C20.1447 12.8184 20.1052 12.8973 20.0553 12.9341C20.1473 12.8631 20.0842 12.8973 20.0526 12.9367C20.0316 12.963 20.0106 12.9893 19.9869 13.0156C19.8923 13.1313 19.7924 13.2417 19.6872 13.3468C19.5926 13.4467 19.4926 13.5414 19.3901 13.6334C19.3375 13.6781 19.2876 13.7254 19.235 13.7675C19.2087 13.7885 19.1824 13.8122 19.1561 13.8332C19.1377 13.8464 19.1193 13.8621 19.1009 13.8753C19.1614 13.828 19.1693 13.8227 19.1246 13.8569C18.9011 14.0225 18.6724 14.175 18.4305 14.3065C18.3095 14.3748 18.186 14.4353 18.0598 14.4958C18.0282 14.5115 17.9967 14.5247 17.9651 14.5378C17.8521 14.5878 18.0756 14.4931 17.9625 14.5405C17.8863 14.572 17.81 14.6009 17.7338 14.6298C17.4551 14.7298 17.1711 14.8086 16.8819 14.8665C16.8109 14.8796 16.74 14.8928 16.669 14.9033C16.6374 14.9085 16.5954 14.9217 16.5612 14.919C16.6663 14.9269 16.6348 14.9085 16.5927 14.9138C16.435 14.9296 16.2772 14.9453 16.1195 14.9506C15.8119 14.9611 15.5095 14.9453 15.2046 14.9138C15.0784 14.9006 15.3255 14.9322 15.2019 14.9138C15.1651 14.9085 15.1309 14.9033 15.0941 14.898C15.0232 14.8875 14.9522 14.8744 14.8838 14.8586C14.7339 14.827 14.5841 14.7902 14.4342 14.7482C14.3001 14.7087 14.1661 14.6667 14.032 14.6167C13.9768 14.5957 13.9216 14.5746 13.869 14.5536C13.8585 14.5483 13.8479 14.5457 13.8374 14.5405C13.7848 14.5194 13.7954 14.5221 13.8663 14.5536C13.8322 14.5536 13.7691 14.5115 13.7401 14.4958C13.4772 14.3748 13.2248 14.2355 12.983 14.0751C12.9251 14.0383 12.8673 13.9989 12.8121 13.9594C12.7621 13.9252 12.6832 13.8858 12.6464 13.8359C12.7174 13.9279 12.6832 13.8648 12.6438 13.8332C12.6175 13.8122 12.5912 13.7912 12.5649 13.7675C12.5045 13.7149 12.4414 13.6623 12.3835 13.6098C12.1784 13.4257 11.9892 13.2259 11.813 13.0156C11.792 12.9893 11.7683 12.963 11.7473 12.9367C11.7157 12.8973 11.65 12.8631 11.7446 12.9341C11.6973 12.8973 11.6579 12.8158 11.6211 12.7684C11.5343 12.6475 11.4528 12.5213 11.3766 12.3925C11.3056 12.2742 11.2372 12.1532 11.1768 12.027C11.1452 11.9639 11.1163 11.9035 11.0847 11.8404C11.069 11.8088 11.0558 11.7773 11.0427 11.7457C11.019 11.6931 11.0243 11.7036 11.0532 11.7746C11.0453 11.7536 11.0348 11.7326 11.0269 11.7089C10.9217 11.4486 10.835 11.1778 10.7692 10.9044C10.7351 10.765 10.7061 10.6257 10.6851 10.4837C10.6799 10.4469 10.6746 10.4127 10.6693 10.3759C10.6509 10.2497 10.6825 10.4995 10.6693 10.3733C10.6615 10.2892 10.6509 10.205 10.6457 10.1209C10.622 9.81594 10.6246 9.50833 10.6483 9.20336C10.6536 9.12974 10.6615 9.05876 10.6693 8.98514C10.6825 8.85894 10.6509 9.10608 10.6693 8.98251C10.6746 8.9457 10.6799 8.91152 10.6851 8.87472C10.7114 8.72223 10.7403 8.56974 10.7798 8.41988C10.8481 8.14645 10.9375 7.87828 11.0427 7.618C11.0874 7.50495 10.9927 7.72579 11.0453 7.61537C11.0584 7.58382 11.0742 7.55227 11.0874 7.52072C11.1163 7.45763 11.1478 7.39453 11.1794 7.33406C11.2477 7.19997 11.3214 7.06852 11.3976 6.93969C11.4686 6.82138 11.5448 6.7057 11.6263 6.59265C11.6605 6.54269 11.7 6.46382 11.7499 6.42701C11.6579 6.498 11.721 6.46382 11.7525 6.42438C11.7815 6.38758 11.8104 6.3534 11.8393 6.31922C12.0154 6.10889 12.21 5.91171 12.4151 5.72767C12.4677 5.68297 12.5176 5.63565 12.5702 5.59358C12.5965 5.57255 12.6228 5.54889 12.6491 5.52786C12.6885 5.49631 12.7227 5.43058 12.6517 5.52523C12.6885 5.4779 12.77 5.43847 12.8173 5.40166C12.8831 5.35433 12.9488 5.30964 13.0171 5.26494C13.259 5.1072 13.514 4.96785 13.777 4.84954C13.798 4.83903 13.8479 4.80748 13.8716 4.80748C13.8506 4.81537 13.8295 4.82588 13.8111 4.83377C13.8322 4.82588 13.8532 4.81537 13.8769 4.80748C13.9321 4.78645 13.9847 4.76541 14.0399 4.74438C14.1818 4.6918 14.3291 4.64447 14.4763 4.60241C14.613 4.56297 14.7524 4.53142 14.8917 4.5025C14.9627 4.48936 15.0337 4.47621 15.102 4.46307C15.1388 4.45781 15.173 4.45255 15.2098 4.44729C15.2677 4.4394 15.2571 4.4394 15.1783 4.45255L15.2493 4.44466C15.5542 4.41048 15.8592 4.39997 16.1668 4.41311C16.3062 4.41837 16.4455 4.43152 16.5848 4.44729C16.6322 4.45255 16.6926 4.43677 16.5717 4.44466C16.6032 4.44203 16.6453 4.45518 16.6795 4.46044C16.761 4.47358 16.8451 4.48936 16.9266 4.50513C17.2158 4.56297 17.4998 4.64447 17.7758 4.74701C17.8416 4.77067 17.9073 4.79696 17.9704 4.82325C18.0834 4.86795 17.8626 4.7733 17.973 4.82588C18.0046 4.83903 18.0361 4.8548 18.0677 4.86795C18.2044 4.93105 18.3385 4.9994 18.4699 5.07302C18.5909 5.14138 18.7092 5.21236 18.8248 5.28861C18.8722 5.32016 18.9195 5.35171 18.9668 5.38588C19.0247 5.42532 19.1193 5.47264 19.1614 5.52786C19.0904 5.43584 19.1246 5.49894 19.164 5.53049C19.1903 5.55152 19.2166 5.57255 19.2429 5.59621C19.2955 5.64091 19.348 5.6856 19.398 5.7303C19.5084 5.8302 19.6162 5.93274 19.7187 6.04053C19.8134 6.14044 19.9054 6.24297 19.9948 6.34814C20.0158 6.37443 20.0395 6.40072 20.0605 6.42701C20.0921 6.46645 20.1578 6.50063 20.0632 6.42964C20.1184 6.47171 20.1657 6.56636 20.2051 6.6242C20.3629 6.8503 20.5075 7.08955 20.6311 7.33669C20.6626 7.39978 20.6915 7.46025 20.7231 7.52335C20.7388 7.5549 20.752 7.58645 20.7651 7.618C20.8151 7.73105 20.7204 7.50758 20.7678 7.62063C20.823 7.7626 20.8782 7.90457 20.9229 8.04918C21.0123 8.33049 21.0833 8.61969 21.128 8.91415C21.1332 8.9457 21.1464 8.98777 21.1437 9.02195C21.1542 8.88786 21.1385 8.98251 21.1437 9.02458C21.1516 9.09819 21.1595 9.16918 21.1648 9.24279C21.1674 9.38739 21.1726 9.53462 21.1753 9.68185C21.1753 9.95791 21.4172 10.2208 21.7011 10.2077C21.985 10.1945 22.2269 9.97632 22.2269 9.68185C22.2217 8.39359 21.8299 7.10007 21.078 6.04842C20.3182 4.98626 19.2718 4.18175 18.0466 3.72954C16.8188 3.27734 15.4307 3.23527 14.1739 3.59283C12.9619 3.93724 11.8472 4.65499 11.0453 5.62776C10.2014 6.65575 9.69657 7.89669 9.5914 9.22176C9.48887 10.5153 9.81225 11.8456 10.4853 12.9551C11.1347 14.0252 12.1127 14.9138 13.259 15.4291C14.4894 15.9838 15.8487 16.1416 17.1764 15.8787C18.4173 15.6315 19.582 14.9821 20.4575 14.0698C21.3357 13.1549 21.9456 11.9692 22.1402 10.7125C22.1927 10.3707 22.2269 10.0263 22.2269 9.68185C22.2269 9.4058 21.985 9.14289 21.7011 9.15603C21.4145 9.16918 21.1753 9.38739 21.1753 9.68185Z" fill="black"/>
<path d="M24.5614 27.2995C24.3353 27.2995 24.1118 27.2995 23.8857 27.2995C23.2889 27.2995 22.6895 27.2995 22.0927 27.2995C21.2382 27.2995 20.3838 27.2995 19.5293 27.2995C18.5329 27.2995 17.5391 27.2995 16.5426 27.2995C15.5225 27.2995 14.5051 27.2995 13.485 27.2995C12.5569 27.2995 11.6288 27.2995 10.7034 27.2995C9.98298 27.2995 9.26523 27.2995 8.54486 27.2995C8.15049 27.2995 7.75612 27.2995 7.35913 27.2995C7.32495 27.2995 7.29077 27.2995 7.25659 27.2995C7.25133 27.2995 7.24344 27.2995 7.23819 27.2995C7.21452 27.2995 7.18823 27.2995 7.16457 27.2969C7.16983 27.2969 7.09359 27.2943 7.09359 27.2916C7.09096 27.2864 7.2303 27.3179 7.12776 27.2943C7.08307 27.2838 7.03574 27.2732 6.99105 27.2601C6.97527 27.2548 6.95687 27.2443 6.9411 27.2443C6.87537 27.2338 7.02786 27.2943 6.97002 27.2575C6.93584 27.2364 6.89903 27.2207 6.86485 27.2023C6.83067 27.1812 6.79912 27.1576 6.76495 27.1365C6.71499 27.1076 6.80701 27.1628 6.80438 27.1681C6.80175 27.1707 6.74654 27.1181 6.74128 27.1129C6.71236 27.0866 6.68607 27.055 6.65978 27.0261C6.59668 26.963 6.70973 27.1102 6.64926 27.0103C6.62823 26.9762 6.6072 26.9446 6.58617 26.9078C6.57565 26.8868 6.56513 26.8657 6.55462 26.8473C6.51518 26.7711 6.56776 26.8789 6.56776 26.8789C6.5441 26.8815 6.51518 26.6659 6.50203 26.6423C6.53884 26.7106 6.50992 26.7316 6.50729 26.6764C6.50729 26.6528 6.50466 26.6291 6.50203 26.6028C6.50203 26.5897 6.50203 26.5765 6.50203 26.5634C6.50203 26.5345 6.50203 26.5082 6.50203 26.4793C6.50203 25.6274 6.50203 24.7756 6.50203 23.9211C6.50203 23.8028 6.50203 23.6871 6.50203 23.5688C6.50203 23.3033 6.5441 23.043 6.54936 22.7801C6.54936 22.7801 6.53358 22.8905 6.54147 22.83C6.5441 22.8064 6.54936 22.7827 6.55199 22.7591C6.55725 22.717 6.56513 22.6749 6.57302 22.6355C6.5888 22.5461 6.60457 22.4593 6.6256 22.3726C6.66241 22.2043 6.70711 22.0387 6.75706 21.8757C6.80964 21.7074 6.87011 21.5444 6.93584 21.3814C6.97002 21.2946 6.89114 21.4839 6.94373 21.363C6.9595 21.3262 6.9779 21.2894 6.99368 21.2526C7.03049 21.1737 7.06992 21.0948 7.10936 21.0186C7.26711 20.7162 7.45114 20.4323 7.65359 20.1562C7.7088 20.0826 7.59049 20.2325 7.66673 20.1405C7.69302 20.1089 7.71669 20.0774 7.74298 20.0458C7.79819 19.9801 7.8534 19.9144 7.91124 19.8513C8.02692 19.7224 8.14786 19.6015 8.27406 19.4832C8.395 19.3701 8.52382 19.2623 8.65265 19.1572C8.72364 19.0993 8.57378 19.215 8.66842 19.144C8.69997 19.1204 8.73415 19.0967 8.7657 19.073C8.83932 19.0205 8.91556 18.9679 8.99443 18.9179C9.27575 18.7339 9.57284 18.5788 9.87782 18.4394C9.96195 18.4 9.7858 18.4762 9.89622 18.4315C9.93303 18.4158 9.97246 18.4 10.0093 18.3868C10.096 18.3527 10.1854 18.3211 10.2748 18.2922C10.4378 18.2396 10.6008 18.1923 10.7691 18.1529C10.9373 18.1134 11.1082 18.0792 11.2791 18.0529C11.2975 18.0503 11.3317 18.0398 11.3501 18.0424C11.3527 18.0424 11.2397 18.0556 11.3002 18.0503C11.3422 18.0451 11.3843 18.0398 11.4264 18.0372C11.5236 18.0267 11.6209 18.0188 11.7182 18.0135C11.918 18.003 12.1205 18.0056 12.3203 18.0056H14.5366H17.5469H19.5898H19.7449C20.0052 18.0056 20.2628 18.0477 20.5205 18.0529C20.5205 18.0529 20.41 18.0372 20.4705 18.0451C20.4942 18.0477 20.5178 18.0529 20.5415 18.0556C20.5836 18.0608 20.6256 18.0687 20.6651 18.0766C20.7545 18.0924 20.8412 18.1082 20.928 18.1292C21.0962 18.166 21.2619 18.2107 21.4249 18.2606C21.5931 18.3132 21.7562 18.3737 21.9192 18.4394C22.0059 18.4736 21.8166 18.3947 21.9376 18.4473C21.9744 18.4631 22.0112 18.4815 22.048 18.4973C22.1269 18.5341 22.2057 18.5735 22.282 18.6129C22.5843 18.7707 22.8683 18.9547 23.1443 19.1572C23.2179 19.2124 23.0681 19.0941 23.1601 19.1703C23.1916 19.1966 23.2232 19.2203 23.2547 19.2466C23.3205 19.3018 23.3862 19.357 23.4493 19.4148C23.5781 19.5305 23.6991 19.6514 23.8174 19.7776C23.9304 19.8986 24.0382 20.0274 24.1434 20.1562C24.2012 20.2272 24.0855 20.0774 24.1565 20.172C24.1802 20.2036 24.2039 20.2377 24.2275 20.2693C24.2801 20.3429 24.3327 20.4191 24.3826 20.498C24.5667 20.7793 24.7218 21.0764 24.8611 21.3814C24.9006 21.4655 24.8243 21.2894 24.869 21.3998C24.8848 21.4366 24.9006 21.476 24.9137 21.5129C24.9479 21.5996 24.9794 21.689 25.0084 21.7784C25.0609 21.9414 25.1083 22.1044 25.1477 22.2727C25.1871 22.4409 25.2213 22.6118 25.2476 22.7827C25.2502 22.8011 25.2608 22.8353 25.2581 22.8537C25.2581 22.8563 25.245 22.7433 25.2502 22.8038C25.2555 22.8458 25.2608 22.8879 25.2634 22.9299C25.2739 23.0272 25.2818 23.1245 25.2871 23.2218C25.3028 23.532 25.2949 23.8423 25.2949 24.1525C25.2949 24.9544 25.3028 25.7562 25.2949 26.5581V26.6055C25.2949 26.6239 25.2844 26.7658 25.2923 26.6791C25.3002 26.5923 25.2792 26.7264 25.2739 26.7474C25.2713 26.7579 25.2397 26.8815 25.2318 26.8789C25.224 26.8789 25.2844 26.7816 25.2502 26.8316C25.2424 26.8447 25.2345 26.8631 25.2266 26.8789C25.2055 26.9183 25.1819 26.9578 25.1582 26.9972C25.1503 27.0103 25.1372 27.0235 25.1293 27.0393C25.0978 27.0971 25.1977 26.9683 25.1477 27.013C25.1188 27.0393 25.0951 27.0734 25.0662 27.0997C25.0531 27.1129 25.0399 27.1234 25.0294 27.1339C25.0241 27.1365 25.0215 27.1418 25.0163 27.1444C24.9821 27.1733 24.9821 27.1733 25.0163 27.147C25.0294 27.1155 25.0504 27.1234 25.0163 27.147C24.9978 27.1602 24.9794 27.1733 24.9584 27.1839C24.9242 27.2049 24.8901 27.2233 24.8532 27.2417C24.7507 27.2969 24.9242 27.2233 24.8348 27.2496C24.7954 27.2601 24.7586 27.2732 24.7165 27.2838C24.6981 27.289 24.6824 27.2916 24.664 27.2943C24.5614 27.3179 24.7008 27.2864 24.6981 27.2916C24.7008 27.3022 24.5772 27.2995 24.5614 27.2995C24.2854 27.3022 24.0224 27.5388 24.0356 27.8254C24.0487 28.1067 24.267 28.3564 24.5614 28.3512C25.5105 28.338 26.2651 27.6098 26.344 26.6712C26.3676 26.382 26.3492 26.0849 26.3492 25.7957C26.3492 24.9964 26.3676 24.1972 26.3466 23.3979C26.3098 21.8757 25.7445 20.4191 24.7639 19.2597C23.8279 18.1502 22.4897 17.3589 21.0647 17.0802C20.368 16.9435 19.6765 16.9487 18.9719 16.9487C18.0701 16.9487 17.1657 16.9487 16.2639 16.9487C15.2859 16.9487 14.3079 16.9487 13.3272 16.9487C12.8251 16.9487 12.3229 16.9356 11.8207 16.954C10.3037 17.0092 8.85246 17.5876 7.70354 18.5788C6.60457 19.5279 5.82635 20.874 5.56344 22.3042C5.39255 23.227 5.44513 24.1761 5.44513 25.1095V26.4004C5.44513 26.5161 5.44513 26.6291 5.45828 26.7448C5.51349 27.1891 5.70804 27.6177 6.05771 27.9095C6.41002 28.204 6.82804 28.3538 7.28814 28.3538H7.65622H9.28101H11.7813H14.7706H17.9045H20.7886H23.0786H24.3879H24.5588C24.8348 28.3538 25.0978 28.1119 25.0846 27.828C25.0741 27.5388 24.8559 27.2995 24.5614 27.2995Z" fill="black"/>
</svg>
