<svg width="31" height="31" viewBox="0 0 31 31" fill="none" xmlns="http://www.w3.org/2000/svg">
<path d="M19.8685 9.22944H17.3685V4.64611H18.2018C18.4319 4.64611 18.6185 4.45954 18.6185 4.22944V2.97944C18.6185 2.74934 18.4319 2.56277 18.2018 2.56277H11.5352C11.3051 2.56277 11.1185 2.74934 11.1185 2.97944V4.22944C11.1185 4.45954 11.3051 4.64611 11.5352 4.64611H12.3685V9.22944H9.86849C8.71838 9.23087 7.78658 10.1627 7.78516 11.3128V24.2294C7.78658 25.3795 8.71838 26.3113 9.86849 26.3128V27.1461C9.86849 27.3762 10.0551 27.5628 10.2852 27.5628H11.9518C12.1819 27.5628 12.3685 27.3762 12.3685 27.1461V26.3128H17.3685V27.1461C17.3685 27.3762 17.5551 27.5628 17.7852 27.5628H19.4518C19.6819 27.5628 19.8685 27.3762 19.8685 27.1461V26.3128C21.0186 26.3113 21.9504 25.3795 21.9518 24.2294V11.3128C21.9504 10.1627 21.0186 9.23087 19.8685 9.22944ZM11.9518 3.39611H17.7852V3.81277H11.9518V3.39611ZM13.2018 4.64611H16.5352V9.22944H13.2018V4.64611ZM11.5352 26.7294H10.7018V26.3128H11.5352V26.7294ZM19.0352 26.7294H18.2018V26.3128H19.0352V26.7294ZM21.1185 24.2294C21.1185 24.9197 20.5588 25.4794 19.8685 25.4794H9.86849C9.17818 25.4794 8.61849 24.9197 8.61849 24.2294V11.3128C8.61849 10.6225 9.17818 10.0628 9.86849 10.0628H19.8685C20.5588 10.0628 21.1185 10.6225 21.1185 11.3128V24.2294Z" fill="#040401"/>
<path d="M14.8683 10.8961C14.6382 10.8961 14.4517 11.0827 14.4517 11.3128V24.2295C14.4517 24.4596 14.6382 24.6461 14.8683 24.6461C15.0984 24.6461 15.285 24.4596 15.285 24.2295V11.3128C15.285 11.0827 15.0984 10.8961 14.8683 10.8961Z" fill="#FF3600"/>
<path d="M18.2018 11.7294C17.9717 11.7294 17.7852 11.916 17.7852 12.1461V23.3961C17.7852 23.6262 17.9717 23.8128 18.2018 23.8128C18.4319 23.8128 18.6185 23.6262 18.6185 23.3961V12.1461C18.6185 11.916 18.4319 11.7294 18.2018 11.7294Z" fill="#040401"/>
<path d="M11.5353 11.7294C11.3052 11.7294 11.1187 11.916 11.1187 12.1461V23.3961C11.1187 23.6262 11.3052 23.8128 11.5353 23.8128C11.7654 23.8128 11.952 23.6262 11.952 23.3961V12.1461C11.952 11.916 11.7654 11.7294 11.5353 11.7294Z" fill="#040401"/>
</svg>
