<svg width="62" height="62" viewBox="0 0 62 62" fill="none" xmlns="http://www.w3.org/2000/svg">
<g clip-path="url(#clip0_1191_342)">
<path d="M56.8333 0H5.16667C2.31461 0.00341632 0.00341632 2.31461 0 5.16667V56.8333C0.00341632 59.6854 2.31461 61.9966 5.16667 62H56.8333C59.6854 61.9966 61.9966 59.6854 62 56.8333V5.16667C61.9966 2.31461 59.6854 0.00341632 56.8333 0ZM59.9333 56.8333C59.9333 58.5454 58.5454 59.9333 56.8333 59.9333H5.16667C3.45458 59.9333 2.06667 58.5454 2.06667 56.8333V5.16667C2.06667 3.45458 3.45458 2.06667 5.16667 2.06667H56.8333C58.5454 2.06667 59.9333 3.45458 59.9333 5.16667V56.8333Z" fill="#040401"/>
<path d="M21.7003 16.5326C21.1296 16.5326 20.667 16.9952 20.667 17.5659C20.667 18.1366 21.1296 18.5992 21.7003 18.5992H25.8337C26.4044 18.5992 26.867 18.1366 26.867 17.5659C26.867 16.9952 26.4044 16.5326 25.8337 16.5326H24.8003V8.26589H25.8337C26.4044 8.26589 26.867 7.80325 26.867 7.23255C26.867 6.66186 26.4044 6.19922 25.8337 6.19922H21.7003C21.1296 6.19922 20.667 6.66186 20.667 7.23255C20.667 7.80325 21.1296 8.26589 21.7003 8.26589H22.7337V16.5326H21.7003Z" fill="#040401"/>
<path d="M56.8337 8.26589C57.4044 8.26589 57.867 7.80325 57.867 7.23255C57.867 6.66186 57.4044 6.19922 56.8337 6.19922H52.7003C52.1296 6.19922 51.667 6.66186 51.667 7.23255V17.5659C51.667 18.1366 52.1296 18.5992 52.7003 18.5992H56.8337C57.4044 18.5992 57.867 18.1366 57.867 17.5659C57.867 16.9952 57.4044 16.5326 56.8337 16.5326H53.7337V13.4326H56.8337C57.4044 13.4326 57.867 12.9699 57.867 12.3992C57.867 11.8285 57.4044 11.3659 56.8337 11.3659H53.7337V8.26589H56.8337Z" fill="#040401"/>
<path d="M49.5995 6.19922H43.3995C42.8289 6.19922 42.3662 6.66186 42.3662 7.23255C42.3662 7.80325 42.8289 8.26589 43.3995 8.26589H45.4662V17.5659C45.4662 18.1366 45.9288 18.5992 46.4995 18.5992C47.0702 18.5992 47.5329 18.1366 47.5329 17.5659V8.26589H49.5995C50.1702 8.26589 50.6329 7.80325 50.6329 7.23255C50.6329 6.66186 50.1702 6.19922 49.5995 6.19922Z" fill="#040401"/>
<path d="M7.75046 6.19922H5.16712C4.59643 6.19922 4.13379 6.66186 4.13379 7.23255V17.5659C4.13379 18.1366 4.59643 18.5992 5.16712 18.5992C5.73782 18.5992 6.20046 18.1366 6.20046 17.5659V13.4326H7.75046C9.74789 13.4326 11.3671 11.8133 11.3671 9.81589C11.3671 7.81846 9.74789 6.19922 7.75046 6.19922ZM7.75046 11.3659H6.20046V8.26589H7.75046C8.6065 8.26589 9.30046 8.95984 9.30046 9.81589C9.30046 10.6719 8.6065 11.3659 7.75046 11.3659Z" fill="#040401"/>
<path d="M13.4337 18.5992C14.0044 18.5992 14.4671 18.1366 14.4671 17.5659V13.4326H15.8342L17.6404 17.9503C17.8527 18.4805 18.4546 18.7382 18.9848 18.5259C19.515 18.3136 19.7727 17.7117 19.5604 17.1815L17.8533 12.9159C19.2604 12.0922 19.9396 10.4266 19.5096 8.85377C19.0796 7.28097 17.6476 6.19253 16.0171 6.19925H13.4337C12.863 6.19925 12.4004 6.66189 12.4004 7.23258V17.5659C12.4004 18.1366 12.863 18.5992 13.4337 18.5992ZM14.4671 8.26592H16.0171C16.8731 8.26592 17.5671 8.95988 17.5671 9.81592C17.5671 10.672 16.8731 11.3659 16.0171 11.3659H14.4671V8.26592Z" fill="#040401"/>
<path d="M35.8697 18.5561C36.1322 18.6347 36.4153 18.6059 36.6565 18.4758C36.8978 18.3458 37.0775 18.1253 37.1562 17.8627L37.555 16.5328H40.9774L41.3763 17.8627C41.5073 18.3 41.9097 18.5995 42.3662 18.5995C42.4666 18.5992 42.5665 18.5845 42.6628 18.5561C42.9254 18.4774 43.1459 18.2977 43.276 18.0564C43.406 17.8152 43.4348 17.5321 43.3562 17.2696L40.2562 6.93622C40.1252 6.49884 39.7228 6.19922 39.2662 6.19922C38.8097 6.19922 38.4072 6.49884 38.2763 6.93622L35.1763 17.2696C35.0976 17.5321 35.1265 17.8152 35.2565 18.0564C35.3866 18.2977 35.6071 18.4774 35.8697 18.5561ZM39.2662 10.8288L40.3574 14.4661H38.175L39.2662 10.8288Z" fill="#040401"/>
<path d="M31.0439 17.8625C31.1748 18.2999 31.5773 18.5996 32.0338 18.5996C32.4904 18.5996 32.8928 18.2999 33.0237 17.8625L36.1237 7.52921C36.2297 7.17554 36.1389 6.79221 35.8856 6.52362C35.6323 6.25503 35.2549 6.14198 34.8957 6.22705C34.5364 6.31213 34.2498 6.58241 34.1439 6.93608L32.0338 13.97L29.9237 6.93608C29.8178 6.58241 29.5312 6.31213 29.1719 6.22705C28.8127 6.14198 28.4353 6.25503 28.182 6.52362C27.9287 6.79221 27.8379 7.17554 27.9439 7.52921L31.0439 17.8625Z" fill="#040401"/>
<path d="M24.059 41.2167L18.8923 40.4778C18.2992 40.3931 17.6984 40.5699 17.2458 40.9624C16.7932 41.355 16.5332 41.9247 16.5332 42.5238V44.4324C16.5332 45.5738 17.4585 46.4991 18.5999 46.4991H23.7665C24.9079 46.4991 25.8332 45.5738 25.8332 44.4324V43.2616C25.8292 42.2349 25.0749 41.3655 24.059 41.2167ZM23.7665 44.4324H18.5999V42.5238L23.7665 43.2616V44.4324Z" fill="#040401"/>
<path d="M43.1079 40.4778L37.9412 41.2167C36.9253 41.3655 36.171 42.2349 36.167 43.2616V44.4324C36.167 45.5738 37.0923 46.4991 38.2337 46.4991H43.4003C44.5417 46.4991 45.467 45.5738 45.467 44.4324V42.5238C45.467 41.9247 45.207 41.355 44.7544 40.9624C44.3018 40.5699 43.701 40.3931 43.1079 40.4778ZM43.4003 44.4324H38.2337V43.2616L43.4003 42.5238V44.4324Z" fill="#040401"/>
<path d="M33.0671 40.3008H28.9337C28.363 40.3008 27.9004 40.7634 27.9004 41.3341C27.9004 41.9048 28.363 42.3674 28.9337 42.3674H33.0671C33.6378 42.3674 34.1004 41.9048 34.1004 41.3341C34.1004 40.7634 33.6378 40.3008 33.0671 40.3008Z" fill="#040401"/>
<path d="M33.0671 44.4336H28.9337C28.363 44.4336 27.9004 44.8962 27.9004 45.4669C27.9004 46.0376 28.363 46.5003 28.9337 46.5003H33.0671C33.6378 46.5003 34.1004 46.0376 34.1004 45.4669C34.1004 44.8962 33.6378 44.4336 33.0671 44.4336Z" fill="#040401"/>
<path d="M26.564 26.1346C26.1605 25.7312 25.5064 25.7312 25.1029 26.1346L23.0362 28.2012C22.7676 28.4607 22.6598 28.8449 22.7544 29.2062C22.849 29.5675 23.1311 29.8496 23.4924 29.9442C23.8537 30.0387 24.2379 29.931 24.4973 29.6624L26.564 27.5957C26.9674 27.1922 26.9674 26.5381 26.564 26.1346Z" fill="#FF3600"/>
<path d="M31.3026 26.1377L25.1026 32.3377C24.834 32.5972 24.7262 32.9814 24.8208 33.3426C24.9154 33.7039 25.1975 33.9861 25.5588 34.0806C25.9201 34.1752 26.3043 34.0675 26.5637 33.7989L32.7637 27.5989C33.1553 27.1934 33.1497 26.5489 32.7511 26.1503C32.3526 25.7517 31.7081 25.7461 31.3026 26.1377Z" fill="#FF3600"/>
<path d="M49.6004 35.1326C49.6004 33.4205 48.2125 32.0326 46.5004 32.0326H44.0328L42.3671 26.1963C41.5987 23.5392 39.1697 21.7074 36.4037 21.6992H25.5971C22.8311 21.7074 20.4021 23.5392 19.6337 26.1963L17.968 32.0326H15.5004C13.7883 32.0326 12.4004 33.4205 12.4004 35.1326C12.402 36.1982 12.9526 37.1879 13.8574 37.751C12.9243 38.7098 12.4016 39.9946 12.4004 41.3326V47.5326C12.4058 48.8416 13.2329 50.0061 14.4671 50.4424V54.7659C14.4671 56.478 15.855 57.8659 17.5671 57.8659H18.6004C20.3125 57.8659 21.7004 56.478 21.7004 54.7659V50.6326H40.3004V54.7659C40.3004 56.478 41.6883 57.8659 43.4004 57.8659H44.4337C46.1458 57.8659 47.5337 56.478 47.5337 54.7659V50.4424C48.7679 50.0061 49.595 48.8416 49.6004 47.5326V41.3326C49.5992 39.9956 49.0773 38.7117 48.1455 37.7531C48.3388 37.6331 48.5174 37.4909 48.6776 37.3294C49.272 36.7537 49.6054 35.9601 49.6004 35.1326ZM21.6239 26.7626C22.1357 24.9921 23.7541 23.7714 25.5971 23.7659H36.4037C38.2467 23.7714 39.8651 24.9921 40.3769 26.7626L43.0635 36.1659H18.9373L21.6239 26.7626ZM15.5004 34.0992H17.378L16.7869 36.1659H15.5004C15.2217 36.1666 14.9551 36.0522 14.7636 35.8497C14.572 35.6605 14.465 35.4018 14.4671 35.1326C14.4671 34.5619 14.9297 34.0992 15.5004 34.0992ZM19.6337 54.7659C19.6337 55.3366 19.1711 55.7992 18.6004 55.7992H17.5671C16.9964 55.7992 16.5337 55.3366 16.5337 54.7659V50.6326H19.6337V54.7659ZM45.4671 54.7659C45.4671 55.3366 45.0044 55.7992 44.4337 55.7992H43.4004C42.8297 55.7992 42.3671 55.3366 42.3671 54.7659V50.6326H45.4671V54.7659ZM47.5337 47.5326C47.5337 48.1032 47.0711 48.5659 46.5004 48.5659H15.5004C14.9297 48.5659 14.4671 48.1032 14.4671 47.5326V41.3326C14.4671 39.6205 15.855 38.2326 17.5671 38.2326H44.4337C46.1458 38.2326 47.5337 39.6205 47.5337 41.3326V47.5326ZM47.2175 35.8683C47.029 36.0611 46.77 36.1686 46.5004 36.1659H45.2139L44.6228 34.0992H46.5004C47.0711 34.0992 47.5337 34.5619 47.5337 35.1326C47.5341 35.4109 47.4197 35.677 47.2175 35.8683Z" fill="#040401"/>
</g>
<defs>
<clipPath id="clip0_1191_342">
<rect width="62" height="62" fill="white"/>
</clipPath>
</defs>
</svg>
