<svg width="63" height="63" viewBox="0 0 63 63" fill="none" xmlns="http://www.w3.org/2000/svg">
<path d="M51.7501 11.2168C50.8481 10.3715 49.6583 9.90196 48.4224 9.90391H20.4203L19.6773 6.99179C18.9601 4.17655 16.4242 2.20662 13.5187 2.2074C12.9671 2.2074 12.5203 2.65427 12.5203 3.20584V14.5149C12.521 15.718 12.8351 16.9004 13.4312 17.945C15.0726 20.809 18.1203 22.5774 21.4215 22.5817H33.5489L31.3328 26.5118C31.1586 26.8208 31.1614 27.1993 31.3403 27.5059C31.5196 27.8122 31.8477 28.0001 32.2028 28.0009H35.252C38.095 27.997 40.7645 26.6309 42.4309 24.327C42.4598 24.2868 42.4856 24.2446 42.5087 24.2005L42.9384 23.3676H52.4642C52.5298 23.3676 52.5954 23.3661 52.6603 23.3641C54.6048 23.3145 56.3204 22.0762 56.9802 20.2454C57.699 18.3977 57.2111 16.2977 55.7505 14.9567L51.7501 11.2168ZM48.4591 13.7856H51.5735L52.7982 14.9301H48.4591C48.1431 14.9301 47.8868 14.6739 47.8868 14.3578C47.8868 14.0422 48.1431 13.7856 48.4591 13.7856ZM35.2516 26.004H33.9114L36.9481 20.618H42.1106L40.7692 23.2157C39.4751 24.9665 37.4282 26.0009 35.2516 26.004ZM55.1103 19.5438C54.7357 20.6188 53.731 21.3469 52.5927 21.3676C52.5501 21.3692 52.5071 21.3704 52.4642 21.3704H43.9692L44.152 21.0161C44.277 20.7938 44.3055 20.543 44.3145 20.1196C44.3255 19.6321 44.2915 19.3942 44.179 19.175C44.0075 18.8356 43.6594 18.6211 43.2794 18.6211H36.3645C36.0043 18.6211 35.6719 18.8157 35.495 19.1297L34.6743 20.5848H21.4207C18.8355 20.5813 16.4496 19.1969 15.164 16.9539C14.7398 16.211 14.5164 15.3703 14.516 14.5149V4.31991C16.0976 4.69139 17.341 5.91132 17.7418 7.48593L18.6765 11.1492C18.789 11.5914 19.1875 11.9008 19.6437 11.9008H47.7106C46.4927 12.2715 45.7306 13.4774 45.9181 14.7367C46.1052 15.9953 47.1864 16.927 48.4595 16.927H54.8243C55.3361 17.7024 55.4431 18.6766 55.1103 19.5438Z" fill="black"/>
<path d="M41.5477 13.5164H22.157C21.6058 13.5164 21.1589 13.9637 21.1589 14.5149C21.1589 15.0664 21.6058 15.5133 22.157 15.5133H41.5477C42.0993 15.5133 42.5461 15.0664 42.5461 14.5149C42.5461 13.9637 42.0993 13.5164 41.5477 13.5164Z" fill="#FF3600"/>
<path d="M8.23086 6.61481C7.6793 6.61481 7.23242 7.06207 7.23242 7.61325C7.23242 8.16481 7.6793 8.61169 8.23086 8.61169H9.64103C10.1926 8.61169 10.6395 8.16481 10.6395 7.61325C10.6395 7.06207 10.1926 6.61481 9.64103 6.61481H8.23086Z" fill="black"/>
<path d="M10.5218 11.682H6.38003C5.82886 11.682 5.38159 12.1289 5.38159 12.6804C5.38159 13.2316 5.82886 13.6789 6.38003 13.6789H10.5218C11.0734 13.6789 11.5203 13.2316 11.5203 12.6804C11.5203 12.1289 11.0734 11.682 10.5218 11.682Z" fill="black"/>
<path d="M9.90533 16.7492H7.87759C7.32642 16.7492 6.87915 17.1961 6.87915 17.7476C6.87915 18.2988 7.32642 18.7461 7.87759 18.7461H9.90533C10.4565 18.7461 10.9038 18.2988 10.9038 17.7476C10.9038 17.1961 10.4565 16.7492 9.90533 16.7492Z" fill="black"/>
<path d="M19.9024 45.5911C17.9078 45.5903 16.2895 47.2068 16.2891 49.2017C16.2883 51.1962 17.9051 52.8142 19.9 52.8142C21.8946 52.8146 23.5121 51.1974 23.5121 49.2029C23.5106 47.2099 21.8953 45.5943 19.9024 45.5911ZM19.9024 50.5677C19.1484 50.5685 18.5359 49.9579 18.5356 49.2036C18.5352 48.4493 19.1461 47.838 19.9 47.8376C20.6543 47.8372 21.2656 48.4486 21.2656 49.2029C21.2653 49.956 20.6551 50.5665 19.9024 50.5677Z" fill="black"/>
<path d="M42.7786 45.5911C40.7836 45.5903 39.1657 47.2068 39.1653 49.2017C39.1649 51.1966 40.7813 52.8142 42.7762 52.8142C44.7712 52.8146 46.388 51.1974 46.388 49.2029C46.3864 47.2099 44.7716 45.5943 42.7786 45.5911ZM42.7786 50.5677C42.0243 50.5685 41.4122 49.9579 41.4118 49.2036C41.411 48.4493 42.0219 47.838 42.7762 47.8376C43.5301 47.8372 44.1423 48.4486 44.1415 49.2029C44.1415 49.956 43.5313 50.5665 42.7786 50.5677Z" fill="black"/>
<path d="M49.2618 39.0364H48.1798C47.347 39.0353 46.5415 39.3314 45.9075 39.8708L44.1571 34.7427C44.1528 34.7298 44.1481 34.7165 44.143 34.704C43.6774 33.5032 42.5247 32.7106 41.2372 32.7052H37.6836C37.5829 31.0634 36.2227 29.7821 34.5778 29.7802H28.6098C26.9649 29.7821 25.6047 31.0634 25.5039 32.7052H21.4863C20.1988 32.7106 19.0461 33.5032 18.5804 34.7032C18.5754 34.7161 18.5707 34.7298 18.5664 34.7427L16.8062 39.8993C16.1675 39.3423 15.3488 39.0357 14.5015 39.0364H13.4191C12.3578 39.0372 11.498 39.8974 11.4968 40.9579V42.347C11.498 43.4075 12.3578 44.2677 13.4191 44.2685H13.6003C12.7902 45.072 12.3351 46.1665 12.3355 47.308V51.0986C12.3382 53.467 14.2574 55.3857 16.6254 55.3885H16.8113V58.2142C16.8129 59.3834 17.7597 60.3311 18.9289 60.3322H21.9035C23.0727 60.3311 24.0203 59.3838 24.0215 58.2142V55.3881H38.702V58.2142C38.7032 59.3834 39.6508 60.3311 40.8196 60.3322H43.7946C44.9638 60.3311 45.9114 59.3834 45.9122 58.2142V55.3881H46.0981C48.4661 55.3857 50.3853 53.4666 50.388 51.0986V47.3072C50.3884 46.1662 49.9333 45.072 49.1228 44.2681H49.2618C50.3228 44.2673 51.1825 43.4072 51.1837 42.3466V40.9579C51.1825 39.8966 50.3228 39.0372 49.2618 39.0364ZM48.1798 41.2825H48.9372V42.0216H47.0239C47.2325 41.5712 47.6833 41.2825 48.1798 41.2825ZM28.6098 32.027H34.5778C34.9832 32.0278 35.3344 32.3098 35.4227 32.7056H27.7649C27.8531 32.3098 28.2043 32.0278 28.6098 32.027ZM20.684 35.4931C20.8176 35.1669 21.1344 34.954 21.4863 34.952H41.2372C41.5891 34.954 41.9059 35.1669 42.0395 35.4931L44.6075 43.0189H42.554C42.4911 41.0716 40.895 39.5263 38.9469 39.5263C36.9993 39.5263 35.4032 41.0716 35.3403 43.0189H18.1156L20.684 35.4931ZM40.3044 43.0189H37.5891C37.6442 42.3095 38.2356 41.7622 38.9469 41.7622C39.6579 41.7622 40.2493 42.3095 40.3044 43.0189ZM13.7433 41.2825H14.5011C14.9976 41.2825 15.4488 41.5712 15.657 42.0216H13.7433V41.2825ZM21.775 58.0861H19.0578V55.3881H21.775V58.0861ZM43.6657 58.0861H40.9485V55.3881H43.6657V58.0861ZM48.1415 51.0986C48.1399 52.2263 47.2259 53.1408 46.0981 53.1416H16.6254C15.4972 53.1408 14.5832 52.2263 14.582 51.0986V47.3072C14.5828 46.179 15.4972 45.265 16.6254 45.2638H46.0981C47.2259 45.265 48.1399 46.179 48.1415 47.3072V51.0986Z" fill="black"/>
</svg>
