<svg width="31" height="31" viewBox="0 0 31 31" fill="none" xmlns="http://www.w3.org/2000/svg">
<path d="M7.39014 14.1852H12.3893V15.0184H7.39014V14.1852Z" fill="#333333"/>
<path d="M7.39014 15.8516H12.3893V16.6848H7.39014V15.8516Z" fill="#333333"/>
<path d="M7.39014 17.518H12.3893V18.3512H7.39014V17.518Z" fill="#333333"/>
<path d="M5.72412 14.1852H6.55731V15.0184H5.72412V14.1852Z" fill="#333333"/>
<path d="M5.72412 15.8516H6.55731V16.6848H5.72412V15.8516Z" fill="#333333"/>
<path d="M5.72412 17.518H6.55731V18.3512H5.72412V17.518Z" fill="#333333"/>
<path d="M18.2217 19.9305V5.85338C18.2217 5.19046 17.9584 4.55468 17.4896 4.08593C17.0209 3.61717 16.3851 3.35382 15.7222 3.35382C15.0593 3.35382 14.4235 3.61717 13.9547 4.08593C13.486 4.55468 13.2226 5.19046 13.2226 5.85338V19.9305C12.3946 20.4693 11.763 21.2613 11.4217 22.1883C11.0805 23.1154 11.048 24.1279 11.329 25.0749C11.61 26.022 12.1896 26.8529 12.9812 27.4437C13.7729 28.0346 14.7343 28.3538 15.7222 28.3538C16.71 28.3538 17.6715 28.0346 18.4631 27.4437C19.2548 26.8529 19.8343 26.022 20.1154 25.0749C20.3964 24.1279 20.3639 23.1154 20.0226 22.1883C19.6814 21.2613 19.0497 20.4693 18.2217 19.9305ZM15.7222 27.5162C14.8969 27.517 14.0944 27.2452 13.4394 26.7431C12.7844 26.2411 12.3134 25.5368 12.0997 24.7396C11.886 23.9424 11.9415 23.097 12.2575 22.3346C12.5736 21.5722 13.1325 20.9355 13.8475 20.5233C13.9108 20.4868 13.9633 20.4343 13.9999 20.371C14.0364 20.3078 14.0557 20.236 14.0558 20.163V5.85338C14.0558 5.41143 14.2314 4.98758 14.5439 4.67508C14.8564 4.36257 15.2802 4.18701 15.7222 4.18701C16.1641 4.18701 16.588 4.36257 16.9005 4.67508C17.213 4.98758 17.3886 5.41143 17.3886 5.85338V20.163C17.3886 20.236 17.4079 20.3078 17.4445 20.371C17.481 20.4343 17.5336 20.4868 17.5968 20.5233C18.3119 20.9355 18.8708 21.5722 19.1868 22.3346C19.5029 23.097 19.5583 23.9424 19.3446 24.7396C19.1309 25.5368 18.66 26.2411 18.005 26.7431C17.35 27.2452 16.5475 27.517 15.7222 27.5162Z" fill="#333333"/>
<path d="M16.1387 21.7256V8.35294H15.3055V21.7256C14.7998 21.8288 14.3504 22.1162 14.0444 22.5319C13.7385 22.9477 13.5978 23.4622 13.6497 23.9758C13.7016 24.4894 13.9423 24.9654 14.3252 25.3116C14.7081 25.6578 15.2059 25.8494 15.7221 25.8494C16.2383 25.8494 16.7361 25.6578 17.119 25.3116C17.5019 24.9654 17.7427 24.4894 17.7946 23.9758C17.8464 23.4622 17.7058 22.9477 17.3998 22.5319C17.0939 22.1162 16.6445 21.8288 16.1387 21.7256ZM15.7221 25.0167C15.4749 25.0167 15.2333 24.9434 15.0278 24.806C14.8223 24.6687 14.6621 24.4735 14.5675 24.2452C14.4729 24.0168 14.4481 23.7655 14.4964 23.5231C14.5446 23.2806 14.6636 23.058 14.8384 22.8832C15.0132 22.7084 15.2359 22.5894 15.4783 22.5411C15.7207 22.4929 15.972 22.5177 16.2004 22.6122C16.4288 22.7068 16.624 22.867 16.7613 23.0726C16.8986 23.2781 16.9719 23.5197 16.9719 23.7669C16.9719 24.0984 16.8402 24.4162 16.6059 24.6506C16.3715 24.885 16.0536 25.0167 15.7221 25.0167Z" fill="#FF3600"/>
<path d="M7.39013 11.6857H8.22331V10.7975L8.82529 11.1991L9.28771 10.5059L8.22331 9.79644V8.2413L9.57016 9.01908L9.65223 10.2951L10.4837 10.2418L10.4371 9.51982L11.2061 9.96349L11.6227 9.24195L10.8541 8.79786L11.5023 8.47709L11.1328 7.73013L9.98675 8.29712L8.63991 7.51976L9.98675 6.74239L11.1328 7.30938L11.5023 6.56242L10.8541 6.24165L11.6227 5.79756L11.2061 5.07602L10.4371 5.51969L10.4837 4.79773L9.65223 4.74441L9.57016 6.02044L8.22331 6.79822V5.24307L9.28771 4.53361L8.82529 3.8404L8.22331 4.242V3.35382H7.39013V4.242L6.78815 3.8404L6.32573 4.53361L7.39013 5.24307V6.79822L6.04328 6.02044L5.96121 4.74441L5.12969 4.79773L5.17635 5.51969L4.40732 5.07602L3.99072 5.79756L4.75934 6.24165L4.11112 6.56242L4.48064 7.30938L5.62669 6.74239L6.97353 7.51976L5.62669 8.29712L4.48064 7.73013L4.11112 8.47709L4.75934 8.79786L3.99072 9.24195L4.40732 9.96349L5.17635 9.51982L5.12969 10.2418L5.96121 10.2951L6.04328 9.01908L7.39013 8.2413V9.79644L6.32573 10.5059L6.78815 11.1991L7.39013 10.7975V11.6857Z" fill="#333333"/>
<path d="M23.6372 13.3521C23.6372 12.9101 23.4617 12.4863 23.1491 12.1738C22.8366 11.8613 22.4128 11.6857 21.9708 11.6857C21.5289 11.6857 21.105 11.8613 20.7925 12.1738C20.48 12.4863 20.3045 12.9101 20.3045 13.3521H21.1377C21.1377 13.1873 21.1865 13.0262 21.2781 12.8892C21.3696 12.7522 21.4998 12.6454 21.652 12.5823C21.8042 12.5192 21.9718 12.5027 22.1334 12.5349C22.295 12.567 22.4435 12.6464 22.56 12.7629C22.6765 12.8794 22.7559 13.0279 22.788 13.1895C22.8202 13.3511 22.8037 13.5187 22.7406 13.6709C22.6775 13.8232 22.5708 13.9533 22.4337 14.0448C22.2967 14.1364 22.1356 14.1853 21.9708 14.1853H19.0547V15.0184H21.9708C22.4128 15.0184 22.8366 14.8429 23.1491 14.5304C23.4617 14.2179 23.6372 13.794 23.6372 13.3521Z" fill="#333333"/>
<path d="M26.1368 13.3521C25.6948 13.3521 25.271 13.5276 24.9585 13.8401C24.646 14.1526 24.4704 14.5765 24.4704 15.0184H25.3036C25.3036 14.8536 25.3525 14.6925 25.444 14.5555C25.5356 14.4185 25.6657 14.3117 25.8179 14.2487C25.9702 14.1856 26.1377 14.1691 26.2993 14.2012C26.4609 14.2334 26.6094 14.3127 26.7259 14.4293C26.8425 14.5458 26.9218 14.6943 26.954 14.8559C26.9861 15.0175 26.9696 15.185 26.9065 15.3373C26.8435 15.4895 26.7367 15.6196 26.5997 15.7112C26.4627 15.8027 26.3016 15.8516 26.1368 15.8516H19.0547V16.6848H26.1368C26.5787 16.6848 27.0026 16.5092 27.3151 16.1967C27.6276 15.8842 27.8032 15.4604 27.8032 15.0184C27.8032 14.5765 27.6276 14.1526 27.3151 13.8401C27.0026 13.5276 26.5787 13.3521 26.1368 13.3521Z" fill="#333333"/>
<path d="M24.4704 17.518H19.0547V18.3512H24.4704C24.6352 18.3512 24.7963 18.4001 24.9333 18.4916C25.0703 18.5832 25.1771 18.7133 25.2402 18.8655C25.3032 19.0178 25.3197 19.1853 25.2876 19.3469C25.2554 19.5085 25.1761 19.657 25.0596 19.7735C24.943 19.8901 24.7946 19.9694 24.6329 20.0016C24.4713 20.0337 24.3038 20.0172 24.1516 19.9541C23.9993 19.8911 23.8692 19.7843 23.7776 19.6473C23.6861 19.5103 23.6372 19.3492 23.6372 19.1844H22.804C22.804 19.514 22.9018 19.8361 23.0849 20.1102C23.268 20.3842 23.5282 20.5978 23.8327 20.7239C24.1372 20.85 24.4723 20.883 24.7955 20.8187C25.1187 20.7544 25.4157 20.5957 25.6487 20.3627C25.8818 20.1296 26.0405 19.8327 26.1048 19.5095C26.1691 19.1862 26.1361 18.8512 26.0099 18.5467C25.8838 18.2422 25.6702 17.9819 25.3962 17.7988C25.1222 17.6157 24.8 17.518 24.4704 17.518Z" fill="#333333"/>
</svg>
