<svg width="74" height="75" viewBox="0 0 74 75" fill="none" xmlns="http://www.w3.org/2000/svg">
<g clip-path="url(#clip0_15_229)">
<path d="M18.3842 35.8803L12.4874 34.6084C10.8686 34.2615 9.36548 35.5334 9.36548 37.1522V39.5803C9.36548 41.5459 10.8686 42.0084 12.7186 42.0084H19.1936C20.4655 42.0084 21.7374 41.7772 21.7374 40.3897V40.0428C21.7374 37.9615 20.3499 36.2272 18.3842 35.8803ZM11.5624 39.5803C11.5624 39.4647 11.5624 39.4647 11.5624 37.0365C11.5624 36.8053 11.7936 36.574 12.0249 36.6897L17.9217 37.9615C18.7311 38.1928 19.3092 38.8865 19.4249 39.6959C15.378 39.6959 11.9092 39.6959 11.5624 39.5803Z" fill="black"/>
<path d="M70.8779 23.5084L62.5529 19.5772C59.7779 18.3053 56.7716 17.8428 53.881 18.4209L52.6091 15.8772C51.6841 13.5647 49.4873 11.9459 46.9435 11.9459H19.8873C17.3435 11.9459 15.1466 13.449 14.2216 15.7615L9.71226 25.1272C8.67163 23.624 6.93726 22.699 5.08726 22.699H3.12163C1.38726 22.699 -0.000244141 24.0865 -0.000244141 25.8209V27.0928C-0.000244141 28.8272 1.38726 30.2147 3.12163 30.2147H6.12788C4.85601 31.8334 4.27788 33.9147 4.27788 35.9959V42.9334C4.27788 45.5928 5.20288 48.1365 7.05288 50.3334V55.5365C7.05288 57.849 8.90288 59.699 11.2154 59.699H15.4935C17.806 59.699 19.656 57.849 19.656 55.5365V53.4553H42.781C47.8685 60.3928 55.8466 63.399 55.9623 63.399C56.1935 63.5147 56.4248 63.5147 56.7716 63.399C56.8873 63.2834 73.9998 57.0397 73.9998 41.4303V28.4803C73.9998 26.399 72.7279 24.4334 70.8779 23.5084ZM16.3029 16.6865C16.881 15.1834 18.2685 14.2584 19.8873 14.2584H46.9435C48.5623 14.2584 49.9498 15.1834 50.6435 16.8022L51.6841 18.999C51.2216 19.1147 50.7591 19.3459 50.2966 19.5772L41.9716 23.5084C40.1216 24.4334 38.8498 26.2834 38.8498 28.3647H10.5216C10.9841 27.6709 10.5216 28.8272 16.3029 16.6865ZM2.31226 27.0928V25.8209C2.31226 25.3584 2.65913 25.0115 3.12163 25.0115H5.08726C7.39976 25.0115 8.20913 27.0928 8.44038 27.4397C8.32476 27.6709 8.20913 27.7865 7.97788 28.0178H3.12163C2.65913 27.9022 2.31226 27.5553 2.31226 27.0928ZM17.3435 55.4209C17.3435 56.4615 16.5341 57.2709 15.4935 57.2709H11.0998C10.0591 57.3865 9.24976 56.4615 9.24976 55.4209V52.0678C10.6373 52.8772 12.256 53.3397 13.8748 53.3397H17.3435V55.4209ZM13.7591 51.1428C9.59663 51.1428 6.35913 47.0959 6.35913 42.8178V35.8803C6.35913 33.9147 7.16851 32.0647 8.55601 30.5615H38.8498V40.7365H26.131C25.5529 40.7365 24.9748 41.199 24.9748 41.8928C24.9748 42.5865 25.4373 43.049 26.131 43.049H38.9654C39.081 43.8584 39.081 44.5522 39.3123 45.2459H26.131C25.5529 45.2459 24.9748 45.7084 24.9748 46.4022C24.9748 47.0959 25.4373 47.5584 26.131 47.5584H39.7748C40.2373 48.8303 40.6998 50.1022 41.3935 51.1428H13.7591ZM71.6873 41.4303C71.6873 54.2647 58.7373 60.1615 56.4248 61.0865C48.0998 57.7334 41.1623 50.5647 41.1623 41.4303C41.1623 37.1522 41.1623 34.8397 41.1623 28.4803C41.1623 27.2084 41.856 26.1678 43.0123 25.5897L51.3373 21.6584C54.6904 20.0397 58.3904 20.0397 61.7435 21.6584L70.0685 25.5897C71.1091 26.1678 71.9185 27.2084 71.9185 28.4803V41.4303H71.6873Z" fill="black"/>
<path d="M67.7559 28.249L60.1247 24.6647C57.8122 23.5084 54.9215 23.5084 52.609 24.6647L45.0934 28.249C44.7465 28.4803 44.3997 28.8272 44.3997 29.2897V41.4303C44.3997 50.5647 52.3778 55.5366 55.8465 57.2709C56.1934 57.3866 56.5403 57.3866 56.8872 57.2709C60.3559 55.5366 68.334 50.5647 68.334 41.4303V29.2897C68.334 28.8272 68.1028 28.4803 67.7559 28.249ZM66.1372 41.4303C66.1372 48.8303 59.6622 53.2241 56.4247 54.9584C52.609 52.8772 46.7122 48.7147 46.7122 41.4303V29.9834L53.6497 26.6303C55.384 25.8209 57.4653 25.8209 59.1997 26.6303L66.1372 29.9834V41.4303Z" fill="black"/>
<path d="M51.9153 41.0834C51.4528 40.7365 50.759 40.8522 50.2965 41.3147C49.834 41.7772 50.0653 42.4709 50.5278 42.9334L54.9215 46.2865C55.384 46.6334 56.0778 46.5178 56.5403 46.0553L63.0153 37.6147C63.3622 37.1522 63.2465 36.4584 62.784 35.9959C62.3215 35.649 61.6278 35.7647 61.1653 36.2272L55.384 43.7428L51.9153 41.0834Z" fill="#FF3600"/>
</g>
<defs>
<clipPath id="clip0_15_229">
<rect width="74" height="74" fill="white" transform="translate(-0.000244141 0.730286)"/>
</clipPath>
</defs>
</svg>
