<?xml version="1.0" encoding="utf-8"?>
<!-- Uploaded to: SVG Repo, www.svgrepo.com, Generator: SVG Repo Mixer Tools -->
<svg width="800px" height="800px" viewBox="0 0 1024 1024" class="icon"  version="1.1" xmlns="http://www.w3.org/2000/svg"><path d="M630.7 349.8c1.7 10.4-5.6 18.9-16.1 18.9h-57.3c-10.5 0-17.8-8.5-16.1-18.9l6.2-38.8c1.6-10.4 11.6-19 22.1-19h32.7c10.5 0 20.5 8.5 22.2 18.9l6.3 38.9z" fill="#D1D3D3" /><path d="M630.7 349.8l-3.1-19.4h-83.3l-3.1 19.4c-1.7 10.4 5.6 18.9 16.1 18.9h57.3c10.5 0 17.7-8.5 16.1-18.9z" fill="" /><path d="M910.8 524.6c-3-26.9-21.7-48.2-48.2-48.2h-96.8L707.5 384c-14.2-22.4-47.5-40.8-74-40.8H292.7c-26.5 0-54.2 20.9-61.5 46.4L206.4 476c0 0.1-0.1 0.3-0.1 0.4H151c-26.5 0-48.2 21.7-48.2 48.2v97.6h819.5l-11.5-97.6z" fill="#FFB819" /><path d="M911.8 533.1h-57.7V580h63.3z" fill="#00B3E3" /><path d="M865 580h-15.9c-3.7 0-6.7-3-6.7-6.7v-33.4c0-3.7 3-6.7 6.7-6.7H865V580z" fill="#FFFFFF" /><path d="M286 516.6c-61.1 0-111.3 46.2-117.7 105.6h235.4c-6.4-59.4-56.6-105.6-117.7-105.6z" fill="" /><path d="M286 635m-97.2 0a97.2 97.2 0 1 0 194.4 0 97.2 97.2 0 1 0-194.4 0Z" fill="#333E48" /><path d="M286 635m-49.3 0a49.3 49.3 0 1 0 98.6 0 49.3 49.3 0 1 0-98.6 0Z" fill="#A4A9AD" /><path d="M713.7 516.6c-61.1 0-111.3 46.2-117.7 105.6h235.4c-6.3-59.4-56.6-105.6-117.7-105.6z" fill="" /><path d="M713.7 635m-97.2 0a97.2 97.2 0 1 0 194.4 0 97.2 97.2 0 1 0-194.4 0Z" fill="#333E48" /><path d="M713.7 635m-49.3 0a49.3 49.3 0 1 0 98.6 0 49.3 49.3 0 1 0-98.6 0Z" fill="#A4A9AD" /><path d="M960.5 627.1c0 9.9-8.1 17.9-17.9 17.9h-40.4c-9.9 0-17.9-8.1-17.9-17.9v-29.2c0-9.9 8.1-17.9 17.9-17.9h40.4c9.9 0 17.9 8.1 17.9 17.9v29.2zM141 627.1c0 9.9-8.1 17.9-17.9 17.9H82.6c-9.9 0-17.9-8.1-17.9-17.9v-29.2c0-9.9 8.1-17.9 17.9-17.9H123c9.9 0 17.9 8.1 17.9 17.9l0.1 29.2z" fill="#333E48" /><path d="M102.8 533.1H155V580h-52.2z" fill="#00B3E3" /><path d="M144.1 580H160c3.7 0 6.7-3 6.7-6.7v-33.4c0-3.7-3-6.7-6.7-6.7h-15.9V580z" fill="#FFFFFF" /><path d="M488 402.2c0-10.5 8.6-19.2 19.2-19.2h129c10.5 0 23.9 7.2 29.6 16.1l29.8 45.9c5.7 8.8 1.8 16.1-8.7 16.1H507.2c-10.5 0-19.2-8.6-19.2-19.2v-39.7zM295.4 401.3c3.2-10 14.5-18.2 25-18.2h108.9c10.5 0 19.2 8.6 19.2 19.2V442c0 10.5-8.6 19.2-19.2 19.2h-134c-10.5 0-16.5-8.2-13.3-18.2l13.4-41.7z" fill="#333E48" /><path d="M665.8 399.1c-5.7-8.8-19.1-16.1-29.6-16.1h-129c-10.5 0-19.2 8.6-19.2 19.2V420c0-10.5 8.6-19.2 19.2-19.2h144.3c6.3 0 13.7 2.6 19.7 6.6l-5.4-8.3zM429.3 383H320.4c-10.5 0-21.8 8.2-25 18.2l-3.2 9.9c5.1-6.1 13-10.3 20.6-10.3h116.6c10.5 0 19.2 8.6 19.2 19.2v-17.8c-0.1-10.5-8.7-19.2-19.3-19.2z" fill="" /><path d="M371.4 500.1H399v27.6h-27.6z" fill="#333E48" /><path d="M398.9 527.6h27.6v27.6h-27.6zM426.5 500.1h27.6v27.6h-27.6zM454.1 527.6h27.6v27.6h-27.6z" fill="#333E48" /><path d="M481.7 500.1h27.6v27.6h-27.6z" fill="#333E48" /><path d="M509.3 527.6h27.6v27.6h-27.6z" fill="#333E48" /><path d="M536.8 500.1h27.6v27.6h-27.6zM564.4 527.6H592v27.6h-27.6zM592 500.1h27.6v27.6H592z" fill="#333E48" /><path d="M592 527.6h27.6v27.6H592zM564.4 500.1H592v27.6h-27.6zM536.8 527.6h27.6v27.6h-27.6z" fill="#FFFFFF" /><path d="M509.3 500.1h27.6v27.6h-27.6z" fill="#FFFFFF" /><path d="M481.7 527.6h27.6v27.6h-27.6z" fill="#FFFFFF" /><path d="M454.1 500.1h27.6v27.6h-27.6zM426.5 527.6h27.6v27.6h-27.6zM398.9 500.1h27.6v27.6h-27.6z" fill="#FFFFFF" /><path d="M371.4 527.6H399v27.6h-27.6z" fill="#FFFFFF" /></svg>